<svg class="img-fluid" id="outputsvg" xmlns="http://www.w3.org/2000/svg" style="transform: matrix(0.659101, 0, 0, 0.659101, 39.9846, 38.4307); transform-origin: 50% 50%; cursor: move;" width="536" height="359" viewBox="0 0 5360 3590"><g id="l17uKgXRQdKTarOOv0ZRWw0" fill="rgb(252,239,233)" style="transform: none;"><g style="transform: none;"><path id="p1CAQan0Km" d="M1740 3247 c-30 -11 -157 -130 -216 -202 -13 -17 -15 -17 -10 -2 3 9 2 17 -2 17 -10 -1 -52 -37 -52 -45 0 -4 -12 -16 -26 -27 -18 -15 -22 -23 -14 -28 9 -5 6 -10 -9 -15 -11 -3 -21 -15 -21 -25 0 -17 11 -18 188 -13 103 2 225 9 272 14 47 6 203 13 348 16 l262 6 0 43 c0 30 -5 46 -17 53 -14 8 -4 10 40 11 l57 0 0 -45 c0 -84 -15 -81 411 -88 535 -9 707 -28 758 -85 l23 -26 207 0 c337 -1 397 2 449 26 92 41 97 45 100 81 l3 34 -78 12 c-151 24 -280 60 -294 82 -3 6 -37 14 -75 18 -57 7 -39 9 106 10 96 1 207 4 245 5 71 4 145 27 145 47 0 6 21 8 59 3 39 -4 61 -3 65 5 11 17 63 13 70 -4 3 -9 -1 -18 -8 -21 -8 -3 -16 -14 -19 -25 -3 -10 -14 -19 -25 -19 -10 0 -31 -9 -45 -20 -14 -11 -34 -20 -45 -20 -24 0 -32 -18 -32 -71 0 -47 2 -47 122 32 48 32 105 63 125 70 60 19 72 53 23 63 -17 3 -30 10 -30 15 0 6 7 8 15 5 23 -9 19 33 -4 46 -11 5 -32 10 -46 10 -15 0 -33 7 -42 15 -12 12 -42 15 -161 13 -137 -1 -719 9 -1827 32 -631 14 -951 12 -995 -3z m1440 -127 c25 -5 72 -13 105 -17 56 -7 60 -10 63 -35 3 -25 7 -28 43 -28 32 0 39 3 39 20 0 18 2 18 38 6 64 -23 148 -69 134 -74 -7 -2 -21 3 -31 12 -15 14 -53 16 -272 16 -232 0 -453 9 -648 26 -62 6 -72 9 -58 19 10 7 17 26 17 45 l0 33 263 -7 c144 -3 282 -11 307 -16z m484 -6 c9 -3 16 -10 16 -14 0 -8 -58 4 -68 15 -7 7 33 6 52 -1z m-1294 -29 c0 -11 -11 -15 -42 -14 l-43 1 30 13 c39 18 55 18 55 0z m1520 5 c0 -5 19 -10 42 -10 23 0 39 -2 36 -5 -3 -3 -48 -2 -99 2 -73 6 -86 9 -59 14 55 10 80 10 80 -1z"></path><path id="p1CzkjqHwi" d="M2522 2723 c3 -37 4 -38 46 -41 42 -3 42 -3 42 31 0 38 -12 47 -61 47 -29 0 -30 -2 -27 -37z"></path><path id="pYutwWFXl" d="M1800 1545 c0 -33 2 -35 35 -35 33 0 35 2 35 35 0 33 -2 35 -35 35 -33 0 -35 -2 -35 -35z"></path><path id="pGkmIiiCp" d="M3145 1309 c-22 -22 -53 -47 -68 -56 -26 -13 -30 -13 -41 2 -8 12 -23 16 -51 13 -37 -3 -40 -5 -43 -35 l-3 -33 -68 0 c-112 0 -219 39 -281 104 -26 26 -43 36 -67 36 -29 0 -33 -3 -33 -28 0 -51 30 -145 53 -164 15 -14 33 -19 59 -16 21 2 38 0 38 -5 0 -5 7 -15 16 -24 24 -24 268 -13 348 16 83 29 143 66 199 119 37 37 47 53 47 79 0 31 -2 33 -33 33 -25 0 -42 -9 -72 -41z"></path><path id="p42NQW7wo" d="M1557 1181 c-40 -87 -44 -109 -23 -117 8 -3 11 -15 8 -30 -4 -23 -6 -24 -20 -10 -14 14 -17 12 -29 -22 -17 -51 -18 -98 0 -84 10 9 48 -6 153 -58 129 -64 230 -99 330 -115 40 -6 42 -5 64 32 12 21 28 54 35 73 9 25 19 36 36 38 20 2 28 14 47 67 12 35 22 79 22 98 0 33 -1 34 -72 55 -181 51 -219 64 -318 103 -58 23 -125 44 -150 46 l-46 5 -37 -81z"></path></g></g><g id="l1Tg94fujsELNDTr8LKys01" fill="rgb(254,232,227)" style="transform: none;"><g style="transform: none;"><path id="psG8I0ZUp" d="M4649 3194 c50 -15 70 -29 28 -19 -21 6 -31 3 -41 -10 -7 -10 -16 -14 -19 -9 -9 16 -147 -3 -184 -25 -23 -14 -7 -14 18 -1 11 6 19 7 19 1 0 -18 -38 -22 -253 -27 -167 -5 -218 -3 -212 6 5 8 -6 10 -41 6 -32 -4 -42 -3 -29 3 14 6 -16 11 -97 16 -65 4 -115 11 -113 15 3 5 -52 9 -122 9 -71 1 -149 3 -175 6 -39 4 -46 2 -44 -13 2 -11 19 -20 57 -27 30 -6 88 -23 129 -37 46 -16 110 -29 165 -33 175 -13 349 -35 355 -45 13 -21 143 -57 293 -81 75 -11 77 -13 61 -30 -10 -11 -23 -19 -31 -19 -8 0 -33 -9 -55 -20 -23 -11 -48 -20 -55 -20 -8 0 -13 -12 -13 -30 0 -26 4 -30 26 -30 18 0 24 4 21 13 -5 13 68 57 94 57 6 0 23 8 37 19 15 10 38 22 51 26 72 22 92 35 82 53 -5 10 -6 24 -2 31 7 11 10 11 14 0 4 -10 6 -10 6 -1 1 6 7 12 15 12 7 0 19 7 26 15 7 8 30 20 51 25 25 7 36 15 33 24 -6 16 22 30 31 16 8 -13 55 -13 55 0 0 6 7 10 15 10 8 0 15 7 15 15 0 9 6 12 15 9 10 -4 15 0 15 14 0 20 -18 32 -47 32 -8 0 -31 14 -50 30 -31 28 -39 30 -111 29 l-77 -1 44 -14z m180 -70 c2 -2 -3 -4 -11 -4 -9 0 -26 9 -39 20 l-24 21 35 -17 c19 -9 37 -18 39 -20z"></path><path id="pMPS0V37S" d="M2568 3163 c-10 -2 -18 -11 -18 -19 0 -11 23 -14 125 -14 118 0 125 1 125 20 0 19 -6 20 -107 19 -60 -1 -116 -3 -125 -6z"></path><path id="p14njKHfiS" d="M2850 3150 c0 -18 7 -20 65 -20 49 0 65 3 65 14 0 17 -31 26 -87 26 -36 0 -43 -3 -43 -20z"></path><path id="pWxzUtnjt" d="M2448 3153 c-33 -8 -20 -33 17 -33 28 0 35 4 35 20 0 20 -14 23 -52 13z"></path><path id="pyUsiClZZ" d="M3110 3140 c0 -16 -7 -20 -35 -20 -34 0 -35 -1 -35 -39 0 -35 3 -39 31 -45 49 -9 92 -7 122 7 23 10 27 18 27 58 0 51 -10 59 -77 59 -26 0 -33 -4 -33 -20z"></path><path id="p10kMC5Fee" d="M2345 3141 c-6 -5 -27 -14 -48 -21 -54 -17 -41 -22 37 -14 55 6 66 10 66 25 0 20 -38 27 -55 10z"></path><path id="p36Ceoeuo" d="M3290 3125 c0 -8 5 -15 10 -15 6 0 10 -13 10 -29 0 -32 14 -41 66 -41 30 0 34 3 34 25 0 33 16 32 125 -5 48 -17 89 -29 91 -27 10 10 -140 68 -211 82 -44 9 -90 18 -102 21 -16 3 -23 0 -23 -11z"></path><path id="pUoA51l5D" d="M2548 3113 c31 -4 33 -5 15 -18 -10 -8 -26 -15 -35 -15 -11 0 -18 -8 -18 -20 0 -18 7 -20 55 -20 l55 0 0 34 c0 37 -17 47 -75 44 -30 -1 -29 -1 3 -5z"></path><path id="pa9dfSZhx" d="M4093 3113 c9 -2 25 -2 35 0 9 3 1 5 -18 5 -19 0 -27 -2 -17 -5z"></path><path id="p131PasCUF" d="M2185 3095 c-32 -14 -64 -20 -159 -31 -41 -5 -57 -4 -52 4 9 15 -43 7 -113 -16 -31 -11 -89 -22 -130 -26 -41 -3 -80 -11 -88 -18 -8 -6 -45 -12 -84 -14 -67 -3 -70 -2 -63 18 5 17 3 20 -11 15 -9 -4 -19 -7 -21 -7 -2 0 -4 -14 -4 -31 0 -17 4 -28 10 -24 5 3 46 7 92 9 79 3 192 14 358 36 41 5 119 14 172 21 98 12 117 20 131 62 7 20 3 20 -38 2z"></path><path id="p1BzBtxlPk" d="M2500 2736 c0 -36 15 -46 73 -46 24 0 27 4 27 34 0 38 -12 46 -66 46 -32 0 -34 -2 -34 -34z"></path><path id="pkHMS4RvZ" d="M3180 1347 c0 -7 -13 -26 -30 -42 -16 -16 -30 -35 -30 -42 0 -7 -8 -13 -18 -13 -10 0 -28 -8 -42 -17 -13 -9 -49 -27 -79 -40 -53 -23 -54 -24 -17 -18 77 13 150 48 206 99 l55 50 -45 -47 c-90 -96 -211 -146 -372 -154 -89 -5 -109 -3 -122 10 -9 9 -16 20 -16 26 0 6 -7 12 -15 12 -24 2 -29 4 -44 13 -9 6 -12 5 -7 -2 3 -6 2 -13 -3 -16 -13 -9 -49 27 -56 57 -10 38 -35 35 -35 -3 0 -57 24 -95 71 -115 62 -26 248 -32 349 -11 86 18 220 80 220 102 0 7 8 14 18 14 33 0 74 54 79 104 l6 46 -37 0 c-23 0 -36 -5 -36 -13z"></path></g></g><g id="l7cAhRUMrvuoNuoPHiOr84l" fill="rgb(255,221,113)" style="transform: none;"><g style="transform: none;"><path id="pfVSJ5Ha4" d="M2119 2172 c-47 -51 -91 -159 -225 -552 -66 -194 -94 -289 -94 -322 0 -45 2 -49 37 -67 75 -37 259 -93 323 -98 l65 -5 43 129 c24 70 52 160 63 198 11 39 24 78 30 88 10 18 52 152 138 439 23 76 41 152 41 169 0 31 0 31 -42 25 -125 -17 -145 -18 -198 -2 -71 21 -160 20 -181 -2z"></path></g></g><g id="l1kieYCeRb80UhvlhD41AQH" fill="rgb(255,139,163)" style="transform: none;"><g style="transform: none;"><path id="piVT0qwPu" d="M2560 3091 c0 -5 8 -12 18 -15 9 -3 -7 -3 -35 0 -51 6 -53 5 -53 -19 0 -23 4 -25 63 -31 34 -3 79 -8 100 -12 24 -4 37 -2 37 5 0 14 47 14 52 0 2 -6 25 -13 51 -16 43 -5 47 -4 47 16 0 17 -6 21 -30 21 -27 0 -30 3 -30 30 l0 30 -110 0 c-61 0 -110 -4 -110 -9z"></path><path id="pxIjFeWZl" d="M3163 3074 c-20 -10 -33 -24 -33 -35 0 -17 8 -19 60 -19 l60 0 0 35 c0 32 -3 35 -27 35 -16 0 -43 -8 -60 -16z"></path><path id="p2Qe8WDTG" d="M2920 3016 c0 -18 31 -26 103 -26 50 0 57 2 57 20 0 18 -7 20 -80 20 -61 0 -80 -3 -80 -14z"></path><path id="pd48YYVAi" d="M3500 3005 c0 -8 6 -15 14 -15 7 0 19 -7 26 -15 21 -25 40 -18 40 15 0 28 -2 30 -40 30 -29 0 -40 -4 -40 -15z"></path><path id="pHuhHpp93" d="M2940 2930 c0 -19 7 -20 120 -20 96 0 120 3 120 14 0 20 -32 26 -142 26 -91 0 -98 -1 -98 -20z"></path><path id="pM3cXwJ3U" d="M3320 2920 c0 -18 7 -20 55 -20 40 0 55 4 55 14 0 16 -30 26 -77 26 -26 0 -33 -4 -33 -20z"></path><path id="pcDBwhkem" d="M3470 2911 c0 -16 6 -21 28 -21 15 0 51 -3 80 -6 43 -6 52 -4 52 9 0 17 -18 22 -102 32 -55 7 -58 6 -58 -14z"></path><path id="ppdEPQUef" d="M3660 2877 c0 -14 9 -36 21 -51 19 -25 25 -26 110 -26 69 0 89 3 89 14 0 16 -30 26 -83 26 -27 0 -44 7 -60 24 -12 13 -34 27 -49 30 -25 6 -28 3 -28 -17z"></path><path id="pOLw2XHK0" d="M4175 2843 c-79 -9 -95 -14 -95 -30 0 -14 12 -15 94 -9 98 7 126 2 126 -19 0 -16 -32 -25 -87 -25 -67 0 -88 -14 -152 -102 -75 -102 -79 -131 -25 -218 33 -53 84 -200 84 -241 0 -14 -18 -17 -142 -22 -212 -7 -298 -41 -421 -163 -77 -76 -97 -132 -97 -267 0 -56 5 -131 10 -166 6 -35 9 -66 6 -68 -3 -3 -20 6 -38 20 -18 13 -60 39 -94 56 -33 18 -82 49 -107 71 -58 48 -104 64 -182 64 -87 1 -95 -4 -95 -62 0 -55 19 -79 80 -105 36 -14 161 -147 127 -134 -10 4 -81 10 -158 13 l-139 7 0 -36 c0 -21 1 -37 3 -37 69 0 307 -47 307 -61 0 -5 -7 -9 -15 -9 -9 0 -18 -7 -21 -15 -4 -8 -11 -15 -17 -15 -6 0 -18 -7 -27 -15 -9 -8 -41 -29 -71 -46 -41 -23 -47 -29 -24 -24 64 14 126 49 170 96 25 26 45 43 45 37 0 -23 -104 -109 -174 -143 -123 -61 -295 -82 -402 -50 -27 8 -50 15 -51 15 -2 0 -3 -11 -3 -25 0 -21 6 -26 41 -31 28 -5 52 -18 75 -41 19 -18 34 -37 34 -41 0 -4 -26 -7 -57 -7 l-58 0 -3 -41 c-2 -34 6 -59 44 -130 71 -133 63 -125 116 -123 26 2 51 0 54 -4 14 -13 1 -357 -13 -357 -9 0 -73 36 -144 81 -63 41 -84 49 -122 49 l-47 0 -1 -37 c0 -21 -4 -46 -7 -56 -7 -15 -12 -13 -42 18 -19 19 -40 35 -47 35 -7 0 -13 9 -13 20 0 11 -4 20 -10 20 -5 0 -10 7 -10 15 0 8 -4 15 -10 15 -5 0 -10 7 -10 15 0 8 -7 15 -15 15 -8 0 -15 8 -15 19 0 10 -14 49 -31 86 -17 37 -39 109 -50 159 -25 121 -71 216 -103 216 -6 0 -20 -27 -32 -60 l-21 -60 43 0 c23 0 46 -5 50 -11 3 -6 17 -57 29 -113 29 -124 58 -194 130 -302 68 -101 167 -194 254 -237 54 -26 77 -32 133 -32 63 0 70 2 100 33 33 32 33 33 39 155 11 209 40 270 135 281 136 17 196 29 271 53 101 33 106 32 303 -77 165 -91 234 -116 370 -132 81 -9 111 -9 185 5 183 34 254 121 242 297 -10 142 -78 259 -217 372 l-45 37 41 43 c23 24 52 63 64 88 12 25 46 70 76 100 77 80 96 130 102 270 4 124 -11 217 -47 288 -22 43 -88 107 -150 146 -33 21 -41 32 -41 55 0 16 -9 57 -19 90 -10 34 -16 63 -12 65 3 2 22 7 41 11 141 30 203 143 180 326 -18 146 -34 159 -175 142z m-6 -888 c34 -29 55 -86 71 -194 10 -67 9 -77 -11 -118 -12 -24 -32 -51 -45 -60 -23 -14 -26 -14 -45 3 -35 32 -47 66 -58 167 -16 142 -15 161 15 196 14 17 30 31 34 31 5 0 22 -11 39 -25z m-402 -45 c54 -32 64 -59 76 -189 l10 -120 -27 -35 c-44 -58 -92 -41 -127 44 -22 54 -19 258 4 293 21 32 23 32 64 7z m388 -770 c17 0 25 -6 25 -17 0 -20 28 -53 47 -53 7 0 13 -9 13 -20 0 -11 7 -23 15 -26 8 -4 15 -12 15 -19 0 -8 6 -20 13 -27 20 -20 47 -106 47 -150 0 -22 -6 -51 -14 -66 -20 -38 -115 -126 -151 -139 -79 -28 -125 -38 -185 -38 -65 0 -150 21 -150 37 0 4 -11 8 -25 8 -20 0 -25 5 -25 24 0 16 -12 32 -40 51 -22 16 -54 52 -71 82 -27 46 -30 58 -20 79 6 13 15 24 20 24 6 0 28 35 51 78 22 42 55 93 73 113 l32 36 106 5 c78 4 115 11 145 26 32 17 40 18 47 6 4 -8 19 -14 32 -14z"></path><path id="p16OGpBoJg" d="M284 2703 c-21 -71 -8 -141 39 -210 54 -79 127 -110 357 -148 380 -64 400 -69 400 -101 0 -8 7 -14 16 -14 12 0 14 9 12 37 -3 32 -7 38 -33 45 -44 11 -295 58 -400 74 -49 8 -120 23 -156 34 -67 20 -169 85 -169 108 0 6 -4 12 -8 12 -17 0 -34 103 -23 133 16 41 14 87 -4 87 -9 0 -21 -21 -31 -57z"></path><path id="p98wyM0p6" d="M2413 2544 c-30 -15 -95 -99 -120 -154 -6 -14 -19 -43 -28 -65 -10 -21 -20 -59 -23 -82 -2 -24 -9 -43 -14 -43 -5 0 -8 -10 -6 -21 2 -16 15 -26 48 -36 55 -16 175 -19 213 -4 26 10 28 9 22 -8 -5 -17 -3 -18 18 -8 31 14 117 128 117 155 0 11 5 24 10 27 6 3 10 37 10 74 0 70 -10 91 -74 164 -21 22 -127 23 -173 1z"></path><path id="pp0ZRGWW4" d="M1074 2183 c-4 -21 -20 -75 -36 -120 -33 -98 -34 -113 -9 -113 16 0 21 9 27 45 3 25 10 45 14 45 10 0 40 109 40 148 0 46 -27 42 -36 -5z"></path><path id="pSKFoXx8P" d="M1010 1837 c0 -78 96 -312 177 -431 l41 -60 -29 -35 c-45 -58 -72 -129 -71 -191 0 -66 12 -100 53 -152 47 -58 100 -82 184 -82 81 0 127 19 150 64 33 65 4 106 -67 96 -116 -17 -118 -18 -118 -36 0 -10 8 -20 18 -22 13 -3 10 -8 -15 -21 -44 -23 -63 -21 -99 12 -57 52 -86 135 -64 186 8 18 9 17 9 -7 1 -24 5 -28 31 -28 26 0 30 -3 30 -29 0 -46 10 -61 40 -61 l27 0 -20 41 c-17 34 -18 46 -9 77 6 21 18 46 25 57 14 18 18 16 88 -44 106 -92 148 -118 160 -100 5 8 9 17 9 21 0 8 -55 48 -67 48 -4 0 -14 9 -21 20 -7 11 -23 20 -37 20 -18 0 -25 5 -25 19 0 22 -74 89 -107 98 -13 3 -35 3 -48 1 -17 -4 -25 -1 -25 8 0 8 7 14 15 14 10 0 15 11 15 35 0 19 -4 35 -10 35 -5 0 -10 7 -10 15 0 9 -7 18 -15 21 -8 4 -15 12 -15 19 0 8 -6 20 -13 27 -19 20 -113 226 -131 287 -9 30 -16 65 -16 78 0 16 -6 23 -20 23 -14 0 -20 -7 -20 -23z m438 -834 c-10 -2 -26 -2 -35 0 -10 3 -2 5 17 5 19 0 27 -2 18 -5z"></path><path id="p12RlsSNNa" d="M2650 1821 c-32 -17 -35 -22 -38 -70 l-3 -51 54 0 c71 0 97 25 97 93 l0 47 -38 0 c-20 0 -53 -8 -72 -19z"></path><path id="p3761B66R" d="M1590 1235 c0 -36 16 -47 27 -19 3 9 13 14 24 11 15 -4 19 0 19 19 0 21 -5 24 -35 24 -33 0 -35 -2 -35 -35z"></path></g></g><g id="la4RV2ky7ivvW6Eynmc1Ph" fill="rgb(255,114,139)" style="transform: none;"><g style="transform: none;"><path id="pSvur4SRd" d="M2630 3036 c0 -13 28 -26 58 -26 6 0 12 9 12 20 0 16 -7 20 -35 20 -23 0 -35 -5 -35 -14z"></path><path id="p75sqHZDT" d="M3495 2879 c-16 -5 -50 -19 -75 -32 -41 -20 -45 -25 -48 -64 -5 -75 49 -101 152 -72 31 9 47 7 81 -6 28 -10 66 -15 107 -13 l63 3 3 41 c3 47 -19 82 -79 120 -44 27 -154 40 -204 23z"></path><path id="paaNnZUlo" d="M4022 2831 c-138 -5 -155 -8 -169 -26 -20 -27 -10 -122 17 -150 10 -11 46 -60 80 -110 l60 -90 -37 -5 c-35 -5 -38 -7 -41 -42 -3 -33 2 -42 48 -85 46 -43 90 -100 90 -117 0 -3 -46 -6 -103 -6 -188 0 -327 -56 -444 -179 -53 -56 -72 -103 -84 -206 -6 -55 -8 -128 -5 -162 4 -35 4 -63 1 -63 -11 0 -204 202 -210 220 -4 11 -10 20 -14 20 -5 0 -14 21 -21 48 -6 26 -16 56 -20 67 -5 11 -12 35 -15 54 -16 80 -60 116 -216 176 -104 40 -202 29 -250 -27 -42 -49 -119 -173 -119 -191 0 -11 -9 -35 -21 -54 -47 -76 -72 -209 -49 -267 16 -43 42 -50 146 -35 76 10 106 10 165 -1 l73 -12 -50 -31 c-35 -20 -56 -42 -70 -71 -17 -36 -25 -41 -57 -44 -35 -3 -37 -5 -37 -38 l0 -34 118 -2 c64 -2 136 -2 160 -2 23 0 42 -4 42 -9 0 -6 26 -6 64 -2 51 5 73 3 101 -11 l36 -17 -29 -26 c-72 -64 -89 -78 -124 -94 -21 -10 -38 -20 -38 -22 0 -5 71 20 102 36 37 18 108 92 108 110 0 20 -79 41 -219 58 -111 14 -119 25 -11 16 47 -4 103 -8 126 -10 47 -3 113 -32 121 -52 13 -33 -70 -115 -170 -169 -34 -19 -58 -34 -53 -34 23 0 146 76 189 118 26 25 47 41 47 34 0 -7 5 -12 11 -12 15 0 0 87 -24 135 -30 61 -117 156 -157 172 -65 27 -101 79 -69 99 18 11 82 8 122 -5 20 -7 58 -30 84 -51 25 -22 74 -54 107 -71 34 -18 83 -47 110 -66 26 -18 57 -33 67 -33 10 0 36 -16 58 -35 48 -43 61 -45 27 -4 -41 49 -57 86 -72 168 -34 193 -11 301 83 395 76 75 118 103 204 133 63 22 92 26 200 27 129 1 154 -5 261 -60 14 -8 31 -14 38 -14 11 0 -20 28 -104 93 -26 20 -36 36 -36 55 0 51 -48 193 -85 253 -20 33 -34 66 -31 74 13 34 120 167 140 175 13 5 56 10 95 12 l72 3 -6 35 c-4 19 -11 43 -16 52 -11 20 -2 19 -297 9z m-1292 -1038 c0 -25 -40 -63 -67 -63 -37 0 -26 38 17 61 43 23 50 24 50 2z"></path><path id="pWDz6ae8M" d="M2385 2630 c-39 -25 -111 -60 -124 -60 -49 0 -169 -98 -201 -165 -13 -26 -34 -49 -55 -61 -34 -18 -35 -21 -35 -76 0 -55 1 -58 25 -58 13 0 48 -9 77 -21 29 -12 80 -25 113 -29 33 -5 76 -11 95 -14 l35 -6 -35 14 c-19 8 -28 15 -19 15 12 1 16 11 15 44 0 23 8 60 18 82 10 22 23 51 29 65 25 57 91 139 122 154 44 21 91 20 111 -1 73 -83 92 -143 59 -187 -8 -10 -12 -23 -9 -28 7 -12 -87 -137 -103 -138 -29 0 -10 -16 21 -18 44 -3 74 27 119 118 30 60 32 74 36 182 2 95 0 118 -11 118 -7 0 -19 9 -26 20 -20 32 -82 57 -157 64 -59 4 -75 2 -100 -14z"></path><path id="pIBWKzDcx" d="M405 2552 c-28 -5 -43 -14 -50 -29 -5 -13 -16 -23 -24 -23 -21 0 25 -47 74 -75 51 -30 124 -50 250 -70 55 -9 112 -19 128 -22 24 -5 27 -2 27 21 0 14 -4 26 -10 26 -5 0 -10 5 -10 11 0 19 -73 131 -96 145 -24 16 -223 27 -289 16z"></path><path id="pAJUYix2E" d="M4066 1979 c-32 -38 -36 -89 -6 -89 12 0 20 7 20 18 0 9 6 25 14 34 12 16 15 15 44 -10 25 -22 37 -47 62 -132 35 -119 33 -147 -11 -185 -60 -50 -93 2 -104 163 -7 90 -10 102 -26 102 -14 0 -19 -7 -19 -30 0 -59 22 -224 32 -245 38 -74 108 -89 159 -34 46 49 54 94 40 205 -7 52 -19 115 -28 139 -31 93 -125 127 -177 64z"></path><path id="p6QcUJ0ua" d="M3676 1938 c-37 -57 -38 -283 -1 -371 35 -84 122 -101 178 -36 23 29 27 42 27 99 0 107 -18 240 -35 266 -40 61 -140 86 -169 42z m90 -61 c32 -29 36 -39 44 -107 21 -190 22 -179 -7 -206 -32 -30 -41 -30 -75 -1 -24 21 -29 35 -38 114 -8 68 -8 107 0 154 17 94 21 96 76 46z"></path><path id="p1AzZFAO9" d="M1586 1321 c-16 -46 -20 -50 -64 -60 -88 -22 -97 -26 -107 -49 -5 -12 -17 -22 -25 -22 -18 -1 31 -46 105 -96 l50 -34 37 77 c20 43 37 83 37 90 1 7 7 10 14 7 16 -6 37 55 37 105 0 28 -3 31 -33 31 -30 0 -34 -4 -51 -49z"></path><path id="pX38kWiZY" d="M1197 1292 c-27 -30 -56 -105 -63 -164 -8 -69 17 -128 76 -182 35 -31 42 -34 82 -29 23 3 63 16 88 29 25 13 58 24 73 24 62 0 92 49 44 71 -23 10 -41 6 -134 -32 -29 -12 -34 -11 -67 15 -21 16 -33 32 -29 39 3 6 7 37 7 69 1 45 -2 55 -10 43 -6 -8 -21 -15 -32 -15 -18 0 -20 3 -11 32 5 18 19 43 32 55 l22 23 38 -25 37 -26 0 29 c0 21 -8 35 -25 46 -34 22 -107 21 -128 -2z"></path><path id="pnXXjuDj" d="M2291 1297 c-6 -8 -14 -52 -17 -100 -7 -83 -6 -87 17 -107 34 -30 83 -50 121 -50 90 -1 97 -22 42 -133 -32 -65 -36 -80 -35 -147 1 -41 1 -144 1 -229 l-1 -154 33 -34 c31 -33 107 -92 81 -63 -8 9 -9 19 -2 32 5 10 7 23 3 29 -3 6 2 19 12 30 13 15 15 22 6 31 -17 17 -15 38 5 38 9 0 50 -22 92 -48 42 -27 106 -65 144 -85 76 -42 72 -45 68 58 -1 28 5 100 12 160 18 139 8 199 -36 215 -20 6 -35 6 -49 -1 -24 -13 -28 -8 -93 117 -39 74 -47 96 -37 106 10 10 23 9 61 -5 27 -9 60 -17 74 -17 15 0 42 -13 61 -31 27 -23 43 -30 68 -27 28 2 33 7 33 28 0 23 -5 26 -62 35 -47 8 -70 17 -92 39 -17 17 -31 35 -31 42 0 7 -11 25 -25 39 l-26 25 48 1 c41 2 37 3 -25 9 -40 5 -80 11 -90 16 -9 4 -20 8 -24 8 -3 1 -10 4 -14 9 -12 12 -44 8 -44 -5 0 -7 -31 19 -68 59 -37 40 -82 84 -101 98 -38 27 -92 33 -110 12z m409 -569 c27 -54 57 -109 68 -123 11 -14 25 -47 30 -73 13 -58 23 -152 16 -152 -30 0 -178 103 -210 147 -71 96 -79 225 -21 310 l22 32 24 -22 c13 -12 45 -66 71 -119z"></path><path id="p1Aqp6vj0I" d="M3747 1202 c-34 -36 -34 -42 2 -42 44 0 45 -13 5 -61 -20 -24 -49 -70 -66 -103 -17 -33 -43 -73 -59 -89 -16 -16 -29 -39 -29 -51 0 -43 62 -146 107 -179 24 -17 43 -38 43 -48 0 -17 -3 -17 -47 3 -27 11 -55 27 -64 34 -22 19 -120 51 -143 46 -31 -7 248 -162 291 -162 13 0 13 3 -1 25 -14 22 -15 25 -1 25 8 0 15 -4 15 -8 0 -33 232 -50 320 -23 89 27 106 36 158 85 64 60 77 84 86 151 16 116 -81 288 -214 380 l-40 28 -50 -27 c-87 -48 -254 -45 -255 4 -1 18 -13 40 -24 40 -4 0 -19 -13 -34 -28z m291 -124 c68 -39 247 -182 256 -204 19 -49 -22 -123 -91 -164 -21 -13 -54 -34 -75 -47 -58 -39 -142 -35 -238 11 -75 35 -158 102 -179 143 -18 35 -13 74 18 139 44 92 92 142 144 147 98 9 110 7 165 -25z"></path><path id="pNLD8GJLS" d="M2138 1014 c-9 -20 -9 -29 0 -42 7 -9 21 -36 33 -59 26 -52 39 -55 39 -8 0 23 -5 35 -14 35 -9 0 -16 18 -20 50 -7 55 -20 63 -38 24z"></path></g></g><g id="l4C9M8mQl4T9PPeNITvphmY" fill="rgb(182,164,160)" style="transform: none;"><g style="transform: none;"><path id="px9Fvj4LK" d="M4635 3196 c65 -15 138 -42 208 -77 88 -43 121 -54 170 -56 l62 -4 -23 20 c-12 11 -28 21 -35 24 -8 3 -3 11 13 25 l25 21 -35 14 c-58 24 -217 48 -355 52 l-130 5 100 -24z"></path><path id="ppktEnsaF" d="M2584 3160 c-157 -6 -203 -11 -257 -29 -56 -19 -67 -27 -76 -53 -6 -17 -11 -33 -11 -34 0 -2 27 -4 59 -4 43 0 70 -6 95 -21 57 -33 47 -49 -29 -49 -58 0 -65 -2 -65 -20 0 -18 7 -20 73 -20 39 0 78 4 85 8 7 5 16 28 20 53 6 36 12 45 31 47 22 4 23 3 16 -62 l-7 -66 251 0 c216 0 251 2 251 15 0 8 -7 16 -15 16 -8 1 -19 3 -25 4 -5 1 -91 3 -190 4 -166 1 -182 3 -200 21 -24 24 -26 50 -5 50 8 0 15 5 15 11 0 9 82 10 310 4 225 -5 310 -4 310 4 0 6 -14 11 -32 11 -17 0 -29 3 -25 6 11 11 107 -7 107 -21 0 -13 63 -25 136 -25 60 0 144 -19 141 -32 -1 -6 9 -15 23 -19 34 -10 108 -11 113 -1 11 16 -63 83 -124 111 -157 74 -520 107 -975 91z m-14 -60 c-18 -11 -14 -16 30 -28 33 -10 32 -10 -25 -11 -42 0 -56 2 -45 9 11 7 1 10 -35 10 -27 0 -61 3 -73 7 -43 11 -1 23 83 23 53 0 75 -3 65 -10z m596 -25 c-19 -10 -41 -13 -62 -9 -55 10 -39 24 29 24 61 0 62 0 33 -15z m219 5 l20 -9 -20 0 c-11 0 -27 4 -35 9 -13 9 -13 10 0 9 8 0 24 -4 35 -9z"></path><path id="pbyXpb0Ne" d="M1460 3019 c-38 -37 -50 -53 -40 -59 9 -6 8 -9 -6 -13 -39 -12 -556 -66 -729 -77 -208 -12 -235 -16 -235 -36 0 -20 421 -19 632 1 113 11 171 12 208 5 29 -6 105 -10 169 -10 104 0 126 3 206 31 108 36 198 59 243 59 26 0 32 4 32 21 0 21 -3 21 -57 14 -49 -6 -453 -24 -461 -20 -1 1 14 10 33 21 19 10 35 24 35 32 0 7 7 27 16 43 8 17 14 33 11 35 -2 2 -28 -19 -57 -47z"></path><path id="pGTl9vcSz" d="M1998 2963 c-10 -2 -18 -11 -18 -19 0 -11 15 -14 60 -14 53 0 60 2 60 20 0 17 -6 20 -42 19 -24 -1 -51 -3 -60 -6z"></path><path id="pO9UmNOHN" d="M320 2845 c-8 -2 -48 -9 -88 -16 -110 -19 -108 -34 9 -47 49 -6 63 -11 60 -22 -2 -8 -5 -22 -6 -30 -2 -8 -4 -15 -5 -15 -3 0 -12 -40 -15 -68 -4 -38 5 -67 21 -67 10 0 14 16 14 60 0 33 3 60 8 60 12 0 42 60 42 86 0 21 4 24 40 24 33 0 40 3 40 20 0 18 -6 20 -52 19 -29 -1 -60 -3 -68 -4z"></path><path id="pk1MmqgZI" d="M2450 2756 c0 -28 5 -36 30 -46 16 -7 35 -18 41 -26 6 -8 29 -14 50 -14 l39 0 0 44 c0 44 -1 44 -47 60 -26 9 -62 16 -80 16 -31 0 -33 -2 -33 -34z m116 -31 c10 -8 15 -14 9 -14 -5 0 -19 6 -29 14 -11 8 -15 15 -10 15 6 0 19 -7 30 -15z"></path><path id="pFoYMXXTe" d="M2030 2212 c0 -25 6 -31 39 -40 58 -18 91 -16 91 7 0 13 -16 24 -56 40 -71 27 -74 27 -74 -7z"></path><path id="pa2ub7Tit" d="M2190 2172 c0 -8 124 -43 150 -42 14 1 -126 50 -142 50 -5 0 -8 -4 -8 -8z"></path><path id="ptUGbNt62" d="M2406 2132 c-2 -4 11 -6 30 -4 19 2 34 6 34 8 0 8 -59 4 -64 -4z"></path><path id="p1EbynDz8f" d="M2480 2054 c-15 -38 -13 -44 15 -44 22 0 25 4 25 35 0 42 -25 48 -40 9z"></path><path id="pzZMqT2x2" d="M2430 1888 c0 -7 -3 -23 -6 -35 -5 -20 -2 -23 20 -23 23 0 26 4 26 35 0 28 -4 35 -20 35 -11 0 -20 -6 -20 -12z"></path><path id="puE3lCiKw" d="M1720 1625 c0 -33 2 -35 35 -35 33 0 35 2 35 35 0 33 -2 35 -35 35 -33 0 -35 -2 -35 -35z"></path><path id="pXIOVZW8Z" d="M2325 1568 c-12 -40 -35 -128 -35 -137 0 -6 11 -11 24 -11 24 0 36 21 36 68 0 12 5 22 10 22 6 0 10 16 10 35 0 29 -4 35 -20 35 -11 0 -22 -6 -25 -12z"></path><path id="p72tu3QDU" d="M1670 1485 c0 -33 2 -35 35 -35 33 0 35 2 35 35 0 33 -2 35 -35 35 -33 0 -35 -2 -35 -35z"></path><path id="pRexoswpc" d="M2263 1365 c-11 -34 -11 -35 18 -35 26 0 29 3 29 35 0 27 -4 35 -18 35 -13 0 -22 -12 -29 -35z"></path><path id="pJfJiVwUM" d="M2462 1296 c2 -76 7 -100 24 -122 37 -50 69 -67 131 -70 48 -2 55 -1 38 9 -11 6 -22 12 -25 12 -3 1 -19 8 -37 18 -32 17 -43 40 -62 125 l-9 44 36 -37 c43 -43 86 -66 161 -89 71 -21 91 -20 91 2 0 13 -14 21 -52 30 -29 7 -75 26 -101 42 -27 17 -51 30 -55 30 -4 0 -20 23 -37 50 -28 46 -33 50 -68 50 l-39 0 4 -94z"></path><path id="pEgbKUMGY" d="M3167 1343 c-4 -3 -7 -19 -7 -35 0 -23 -4 -28 -25 -28 -14 0 -37 -7 -51 -16 -19 -13 -28 -14 -37 -5 -6 6 -32 11 -59 11 -46 0 -47 -1 -57 -37 -18 -63 -16 -66 29 -59 75 12 153 48 202 94 50 46 63 82 30 82 -10 0 -22 -3 -25 -7z m-159 -126 c2 -12 -3 -17 -17 -17 -12 0 -21 6 -21 13 0 31 32 34 38 4z"></path><path id="prmLwJnVq" d="M1620 1250 c0 -5 17 -18 38 -29 65 -33 352 -130 464 -156 15 -4 29 -14 31 -23 3 -10 5 -1 6 18 1 36 1 36 -63 53 -35 9 -73 17 -84 17 -11 0 -22 4 -24 8 -1 5 -48 23 -103 42 -55 18 -124 43 -154 56 -55 25 -111 32 -111 14z"></path><path id="pkEblpbyp" d="M2216 1233 c-3 -16 -8 -38 -12 -50 -5 -20 -2 -23 19 -23 26 0 37 20 37 73 0 20 -5 27 -19 27 -12 0 -21 -9 -25 -27z"></path><path id="p1EUkUjreG" d="M2830 1186 c0 -16 32 -26 60 -19 37 10 23 33 -20 33 -27 0 -40 -4 -40 -14z"></path></g></g><g id="l4DYJQU0ZC1dIM5BOpwdhSb" fill="rgb(242,110,135)" style="transform: none;"><g style="transform: none;"><path id="pZs3G3670" d="M2650 3090 c0 -6 32 -10 76 -10 47 0 73 4 69 10 -3 6 -37 10 -76 10 -39 0 -69 -4 -69 -10z"></path><path id="pXUYOE2sv" d="M2644 3047 c-7 -23 -5 -25 34 -33 21 -4 32 -3 32 5 0 14 67 15 72 0 2 -5 22 -13 46 -16 38 -5 42 -4 42 16 0 12 -6 21 -15 21 -8 0 -15 6 -15 14 0 12 -18 15 -95 13 -83 -1 -96 -4 -101 -20z"></path><path id="pskVSGHvh" d="M2410 3052 c0 -12 23 -32 37 -32 7 0 13 9 13 20 0 15 -7 20 -25 20 -14 0 -25 -4 -25 -8z"></path><path id="pj3ouIHd3" d="M3070 3045 c0 -9 -9 -15 -25 -15 -31 0 -33 -25 -2 -34 44 -12 97 -7 97 9 0 9 9 15 25 15 31 0 33 25 3 34 -45 12 -98 7 -98 -9z"></path><path id="paXcLoHQB" d="M3490 3014 c0 -20 5 -24 31 -24 16 0 28 -4 25 -9 -6 -9 16 -21 40 -21 24 0 17 47 -8 55 -82 24 -88 24 -88 -1z"></path><path id="p5TVFYife" d="M3460 2917 c0 -9 -14 -17 -37 -22 -21 -4 -53 -13 -71 -21 -33 -13 -33 -14 -30 -71 3 -53 6 -59 37 -80 48 -32 74 -37 140 -27 51 8 64 6 141 -24 47 -18 99 -39 115 -47 l30 -14 -41 0 c-34 -1 -48 -8 -82 -43 -35 -35 -42 -48 -42 -82 0 -51 18 -100 41 -115 11 -6 50 -15 88 -21 90 -13 164 -41 226 -88 l50 -37 -105 -7 c-58 -3 -118 -11 -135 -16 -140 -45 -275 -143 -320 -231 -31 -63 -55 -175 -56 -263 0 -61 -2 -70 -12 -54 -7 10 -34 44 -60 75 -62 72 -70 86 -96 201 -13 52 -29 105 -37 117 -18 29 -69 53 -126 60 -53 6 -66 -9 -23 -29 30 -14 62 -65 71 -115 4 -21 9 -42 13 -48 3 -5 6 -14 6 -20 2 -23 29 -95 36 -95 4 0 10 -9 14 -19 7 -23 190 -211 205 -211 5 0 10 10 10 23 1 15 5 10 15 -18 8 -22 15 -41 15 -42 0 -6 62 -44 66 -41 2 3 -3 25 -12 49 -42 118 -37 304 11 384 64 108 184 192 330 230 106 27 295 15 376 -24 l24 -12 -22 18 c-11 10 -38 31 -58 46 -20 16 -49 50 -65 76 -17 26 -50 66 -75 88 -58 54 -60 64 -10 69 66 5 65 4 43 48 -24 48 -112 180 -144 216 -23 26 -38 80 -22 80 5 0 6 5 3 10 -6 9 21 24 65 38 8 2 60 7 115 11 85 7 68 8 -116 9 -202 2 -217 3 -234 22 -10 11 -14 20 -9 20 5 0 -2 7 -15 17 -14 9 -57 20 -100 24 -42 5 -88 11 -103 15 -21 5 -28 3 -28 -9z m214 -96 c46 -31 81 -75 72 -90 -10 -16 -68 -13 -112 5 -38 16 -114 15 -171 -1 -23 -8 -67 27 -61 48 4 13 76 51 123 66 44 13 104 2 149 -28z"></path><path id="pSxLhbMIo" d="M4255 2830 c28 -12 67 -12 60 0 -3 6 -23 10 -43 9 -30 0 -33 -2 -17 -9z"></path><path id="pkQ3pIbPX" d="M1913 2715 c-8 -23 5 -88 20 -100 11 -8 4 -30 -36 -115 -75 -159 -74 -223 3 -267 47 -27 130 -32 130 -8 0 8 -7 15 -15 15 -11 0 -15 9 -13 29 1 21 11 33 35 46 19 11 41 35 53 60 32 67 152 165 201 165 12 0 80 33 127 61 18 10 31 15 28 10 -4 -5 10 -7 32 -4 46 6 113 -24 138 -62 9 -14 20 -22 25 -19 5 3 9 -4 9 -16 0 -13 5 -20 13 -17 16 5 14 97 -3 138 -7 16 -21 34 -31 40 -11 5 -19 21 -19 34 0 16 -6 25 -15 25 -8 0 -15 -7 -15 -15 0 -18 -12 -19 -28 -3 -9 9 -12 8 -12 -4 0 -30 -168 -39 -427 -23 -98 6 -112 9 -116 26 -7 24 -74 27 -84 4z"></path><path id="p1By4BHaBI" d="M289 2718 c0 -2 -3 -18 -5 -35 -4 -27 -2 -33 13 -33 17 -1 17 -2 -2 -15 -17 -14 -18 -19 -7 -61 14 -52 37 -91 63 -104 14 -8 20 -5 31 17 16 32 27 35 157 35 85 0 108 -4 128 -19 14 -10 26 -22 26 -28 0 -5 8 -18 16 -27 25 -26 58 -85 40 -71 -13 10 -16 10 -16 -1 0 -8 11 -17 24 -21 13 -3 21 -10 18 -15 -3 -6 -4 -10 -1 -10 18 0 289 -50 296 -55 6 -4 10 5 10 18 0 22 -5 25 -86 37 -49 7 -90 18 -97 27 -7 8 -25 29 -42 48 -52 58 -79 97 -105 149 -22 46 -33 55 -100 89 l-75 38 -110 -3 c-60 -2 -118 -8 -127 -12 -15 -7 -18 -3 -18 23 0 21 -5 31 -15 31 -8 0 -15 -1 -16 -2z"></path><path id="p7CKEo29W" d="M2780 2192 c0 -26 3 -28 43 -28 23 0 72 -13 110 -27 l67 -27 0 24 c0 14 -7 26 -17 29 -10 4 -38 18 -63 32 -31 17 -60 25 -92 25 -46 0 -48 -1 -48 -28z"></path><path id="pF46fYEUi" d="M1076 2178 c-10 -38 -7 -48 14 -48 16 0 20 7 20 35 0 40 -24 49 -34 13z"></path><path id="pVpiUeA3y" d="M1032 2043 c-13 -29 -17 -65 -16 -148 0 -92 5 -123 27 -188 33 -95 96 -222 148 -299 l39 -58 -35 -49 c-44 -61 -65 -120 -65 -184 0 -51 27 -124 55 -147 12 -10 11 -6 -1 19 -24 48 -22 146 5 206 26 59 48 85 72 85 9 0 52 -32 95 -71 l79 -72 5 29 c3 17 15 33 30 40 39 19 122 35 153 29 23 -5 27 -2 27 19 0 13 3 26 8 28 11 5 72 190 72 220 0 23 -4 26 -49 30 -27 3 -61 14 -77 25 -67 46 -193 82 -286 83 -77 0 -88 -6 -88 -45 0 -18 -6 -38 -14 -45 -8 -6 -16 -24 -18 -38 -3 -22 -14 -6 -60 87 -86 171 -99 253 -72 439 8 54 -10 56 -34 5z"></path><path id="p18CMUHXDq" d="M3656 1838 c-12 -45 -7 -68 14 -68 17 0 20 7 20 45 0 49 -23 64 -34 23z"></path><path id="pL8VHLMBF" d="M3650 1723 c0 -34 12 -63 26 -63 10 0 14 13 14 40 0 33 -3 40 -20 40 -12 0 -20 -7 -20 -17z"></path><path id="p1AxlEHOXI" d="M3660 1630 c0 -57 44 -116 90 -121 54 -5 110 30 110 71 0 30 -38 27 -46 -5 -4 -16 -14 -25 -28 -26 -53 -3 -71 11 -81 65 -5 26 -12 36 -26 36 -12 0 -19 -7 -19 -20z"></path><path id="p16WvFWl0a" d="M2780 1545 c-7 -8 -22 -15 -35 -15 -15 0 -28 -11 -40 -34 -14 -26 -30 -38 -62 -48 -39 -11 -43 -15 -43 -45 l0 -33 79 0 c44 0 92 5 108 12 l28 12 -40 5 c-31 5 -35 8 -19 12 12 4 29 24 39 47 12 25 31 47 52 59 18 9 33 23 33 30 0 19 -84 17 -100 -2z"></path><path id="p1AijFoLJ4" d="M2870 1380 c0 -17 7 -20 45 -20 49 0 64 23 23 34 -45 12 -68 7 -68 -14z"></path><path id="p8RH4RIfy" d="M2980 1371 c0 -16 6 -21 26 -21 14 0 56 -7 95 -16 59 -13 69 -19 69 -37 0 -21 1 -21 20 3 11 14 20 30 20 37 0 11 -89 35 -182 48 -44 6 -48 4 -48 -14z"></path><path id="p1CdFwWGvL" d="M4110 1203 c0 -4 15 -18 33 -30 17 -12 46 -32 62 -45 l30 -22 -20 23 c-24 28 -105 85 -105 74z"></path><path id="pZ1rafKfF" d="M2270 1126 c0 -34 2 -36 35 -36 40 0 45 12 13 35 -13 8 -22 19 -20 23 2 4 -4 8 -12 10 -12 3 -16 -5 -16 -32z"></path><path id="p1384KY1Be" d="M2550 1117 c0 -31 3 -35 30 -39 26 -4 29 -2 24 14 -5 16 0 17 43 12 l48 -5 -55 21 c-95 36 -90 36 -90 -3z"></path><path id="p17ghBpLmb" d="M3743 1061 c-40 -53 -41 -61 -8 -61 15 0 25 6 25 14 0 8 5 16 11 18 6 2 9 19 7 38 l-3 35 -32 -44z"></path><path id="ptVQIY9zS" d="M1290 1034 c0 -15 -6 -24 -15 -24 -20 0 -19 -10 3 -26 20 -16 52 -18 52 -4 0 6 15 10 34 10 19 0 47 5 62 10 15 6 42 11 60 12 23 1 31 5 27 15 -9 22 -53 27 -104 10 -45 -14 -51 -14 -84 3 l-35 18 0 -24z"></path><path id="pazP138I9" d="M2137 1010 c-5 -21 58 -150 74 -150 15 0 10 57 -8 95 -9 19 -20 35 -25 35 -4 0 -8 9 -8 20 0 26 -26 26 -33 0z"></path><path id="p12vGYHNKE" d="M2406 828 c-8 -18 -19 -69 -25 -113 -6 -44 -17 -100 -24 -123 l-13 -44 -38 82 c-21 46 -43 107 -49 136 -8 41 -15 54 -29 54 -22 0 -22 -7 -3 -88 31 -131 119 -285 216 -377 29 -27 43 -38 32 -23 -18 24 -20 39 -17 130 2 57 4 131 4 164 1 34 -3 71 -9 82 -13 25 -5 97 15 130 14 21 13 22 -16 22 -26 0 -33 -6 -44 -32z"></path></g></g><g id="l7UVfTeMtqHdDSXJH7l1csC" fill="rgb(254,103,122)" style="transform: none;"><g style="transform: none;"><path id="pRuk8JhiM" d="M766 2445 c4 -8 10 -15 14 -15 4 0 11 -7 14 -16 6 -15 4 -15 -10 -3 -15 12 -17 12 -13 0 3 -8 20 -22 39 -32 19 -10 38 -25 42 -33 6 -11 0 -13 -35 -10 -33 3 -37 2 -17 -5 14 -5 38 -9 53 -10 28 -1 28 -1 21 47 -8 57 -40 92 -83 92 -23 0 -29 -4 -25 -15z"></path><path id="prG9hWvZX" d="M1930 2225 l0 -35 48 0 c26 0 74 -9 107 -19 56 -17 135 -18 135 -2 0 13 -175 71 -213 71 -21 0 -47 5 -58 10 -17 10 -19 7 -19 -25z"></path><path id="pQju9SaOd" d="M2671 2197 c-76 -18 -85 -18 -95 -4 -10 13 -15 12 -35 -9 -13 -13 -29 -24 -36 -24 -8 0 -17 -5 -21 -12 -5 -8 -2 -9 9 -5 21 8 20 9 2 -43 -8 -23 -13 -46 -10 -50 3 -5 1 -10 -3 -12 -11 -4 -55 -156 -48 -167 4 -5 2 -11 -3 -13 -4 -1 -27 -63 -50 -137 -23 -74 -46 -140 -52 -147 -6 -8 -12 -31 -12 -53 -1 -21 -6 -36 -11 -33 -5 3 -7 -5 -3 -17 3 -13 3 -20 0 -17 -9 9 -34 -67 -27 -84 3 -8 2 -11 -2 -7 -10 10 -56 -113 -50 -130 3 -7 1 -13 -5 -13 -6 0 -9 -7 -5 -15 3 -8 1 -15 -4 -15 -6 0 -10 -6 -10 -14 0 -8 -6 -17 -12 -19 -7 -3 -2 -6 12 -6 18 -1 29 -11 40 -34 20 -42 99 -94 156 -103 42 -6 74 -25 74 -44 0 -5 -7 -15 -15 -24 -34 -34 -63 -156 -37 -156 13 0 54 59 80 115 22 46 33 137 19 151 -3 3 -34 9 -70 14 -67 8 -95 19 -116 44 -8 9 -17 14 -21 11 -13 -8 0 129 14 143 16 16 72 -25 141 -104 47 -53 197 -174 216 -174 5 0 -9 18 -30 39 -21 21 -42 48 -46 60 -3 12 -12 21 -18 22 -7 0 -4 4 6 8 16 6 13 10 -19 31 -59 39 -78 72 -82 145 -4 63 7 87 22 48 5 -11 10 -14 14 -7 4 6 43 19 87 29 105 23 124 34 60 35 l-50 1 44 15 c46 16 74 37 64 48 -3 3 2 8 11 12 9 3 14 9 12 13 -3 4 5 8 16 8 11 1 28 9 39 18 10 10 24 15 31 13 7 -3 35 6 61 20 28 14 59 22 73 19 36 -7 29 12 -12 29 -61 25 -94 29 -94 10 0 -9 -8 -19 -17 -22 -51 -17 -118 -48 -132 -62 -14 -14 -17 -12 -25 23 -11 48 -1 55 87 55 50 0 67 3 67 14 0 7 -10 16 -22 20 -33 8 -165 7 -216 -3 -54 -11 -83 9 -87 58 -3 40 23 130 53 186 12 22 23 51 26 65 3 14 16 36 28 50 13 13 21 25 18 25 -3 1 6 18 20 37 13 20 28 34 32 32 5 -3 7 -2 6 3 -4 12 28 54 35 46 4 -3 7 -1 7 6 0 8 6 11 16 7 8 -3 12 -2 9 4 -3 6 1 10 10 10 8 0 18 7 21 15 6 16 44 21 44 6 0 -5 8 -8 18 -7 9 0 16 -4 15 -11 -2 -8 4 -10 14 -6 12 5 14 3 8 -7 -5 -8 -3 -11 6 -8 8 3 42 -10 76 -28 35 -18 79 -37 98 -43 33 -9 35 -8 35 15 0 18 -9 27 -36 39 -20 8 -45 15 -55 15 -11 0 -19 4 -19 8 0 10 -85 52 -105 52 -8 0 -15 5 -15 10 0 17 -129 9 -219 -13z"></path><path id="pOrB50oY2" d="M1900 2156 c0 -13 -4 -26 -8 -28 -5 -1 -27 -55 -50 -118 -22 -63 -65 -185 -95 -270 -30 -85 -65 -179 -76 -208 -26 -65 -26 -75 -2 -67 18 6 18 2 -5 -62 -29 -85 -30 -95 -2 -91 15 2 26 16 39 53 9 28 69 198 133 379 64 180 116 337 116 347 0 10 5 19 10 19 6 0 10 16 10 35 0 33 -2 35 -35 35 -30 0 -35 -3 -35 -24z"></path><path id="pQChtJqTo" d="M2230 2161 c0 -6 6 -11 14 -11 8 0 23 -3 33 -6 12 -5 15 -4 8 3 -15 16 -55 26 -55 14z"></path><path id="p1GBsXBHKL" d="M4130 1965 c0 -16 7 -36 16 -46 8 -9 21 -39 29 -65 8 -27 21 -67 29 -89 8 -22 15 -48 16 -57 0 -11 8 -18 20 -18 28 0 25 24 -13 149 -27 86 -37 108 -64 129 l-33 25 0 -28z"></path><path id="pa7Parb4p" d="M3720 1926 c0 -13 7 -26 15 -29 28 -11 55 -86 72 -203 12 -88 14 -119 5 -122 -14 -4 -16 -52 -3 -52 15 0 40 29 47 54 3 12 -1 84 -9 160 -13 127 -16 139 -42 166 -15 16 -41 34 -56 39 -27 9 -29 8 -29 -13z"></path><path id="patx8XQtm" d="M3321 1683 c31 -34 65 -88 50 -79 -6 4 -11 3 -11 -2 0 -5 26 -29 58 -53 31 -23 72 -57 90 -73 l33 -31 -38 65 c-22 36 -65 91 -96 122 -31 31 -57 62 -57 68 0 5 -12 10 -27 10 l-27 0 25 -27z"></path><path id="pG5ovA7es" d="M3303 1661 c24 -30 49 -53 53 -48 2 2 -5 14 -16 27 -11 13 -20 26 -20 30 0 4 -7 7 -15 7 -12 0 -12 -3 -2 -16z"></path><path id="pgoLLaCYt" d="M4203 1631 c-6 -24 -31 -31 -83 -24 -45 6 -53 -7 -18 -31 48 -34 136 -2 151 54 4 16 0 20 -20 20 -16 0 -27 -7 -30 -19z"></path><path id="pBpbd10UZ" d="M1150 1194 c0 -44 18 -42 37 4 13 31 12 32 -12 32 -22 0 -25 -4 -25 -36z"></path><path id="p4Np9XpPR" d="M4020 1105 c0 -22 4 -25 35 -25 28 0 35 -4 35 -20 0 -16 7 -20 36 -20 31 0 35 2 24 15 -11 13 -114 75 -125 75 -3 0 -5 -11 -5 -25z"></path><path id="pDOiNodq9" d="M1241 1096 c-7 -8 -11 -29 -9 -48 7 -69 107 -99 189 -57 23 11 54 21 70 21 28 1 29 2 12 20 -19 22 -64 18 -115 -8 -15 -8 -36 -14 -46 -14 -21 0 -75 39 -55 40 8 0 7 9 -5 30 -19 34 -25 36 -41 16z"></path><path id="pl010WoI8" d="M4260 931 c0 -16 7 -35 16 -42 27 -22 14 -101 -22 -133 -44 -38 -114 -74 -180 -91 -57 -15 -62 -15 -137 7 -52 15 -91 34 -115 55 -20 18 -44 33 -52 33 -9 0 -22 9 -30 20 -15 21 -60 28 -60 9 0 -24 109 -112 180 -146 70 -34 82 -37 167 -36 82 0 96 3 130 25 21 14 55 35 76 48 101 59 133 185 66 256 -29 31 -39 30 -39 -5z"></path><path id="pVtA2eP6B" d="M2774 610 c13 -105 24 -175 31 -198 l8 -23 -59 28 c-33 15 -63 34 -67 41 -4 6 -12 12 -17 12 -18 0 -69 62 -92 110 -14 31 -30 49 -40 50 -31 0 -18 -55 29 -122 43 -63 166 -145 261 -173 19 -5 22 -3 22 19 0 14 -6 26 -12 26 -10 0 -10 2 0 8 10 7 11 27 3 94 -11 94 -28 145 -56 168 -17 14 -18 12 -11 -40z"></path></g></g><g id="l1oDsIZyyVB7Dv07JeFfTVn" fill="rgb(216,176,80)" style="transform: none;"><g style="transform: none;"><path id="pWArJmQRG" d="M1922 2208 c-10 -24 -30 -77 -45 -118 -14 -41 -69 -198 -122 -347 -52 -150 -95 -275 -95 -278 0 -14 29 10 34 28 3 12 8 18 12 15 6 -6 -35 -122 -56 -160 -25 -44 -18 -49 175 -123 217 -84 391 -126 409 -97 2 4 7 25 12 46 6 33 4 38 -9 33 -9 -3 -18 -1 -21 6 -3 7 -3 1 0 -12 4 -16 3 -21 -5 -17 -6 4 -11 0 -11 -10 0 -23 -49 -14 -188 32 -135 46 -182 70 -182 92 0 9 42 141 94 292 167 490 202 563 272 572 27 4 26 5 -16 17 -25 7 -67 20 -94 29 -27 8 -66 15 -87 15 -21 0 -37 4 -36 10 1 5 -4 12 -10 14 -8 3 -20 -13 -31 -39z"></path><path id="peAa4QyTO" d="M2446 1939 c-10 -33 -16 -63 -13 -65 2 -2 11 24 21 57 9 34 15 63 13 66 -2 2 -12 -24 -21 -58z"></path><path id="pwLLUDYcZ" d="M2385 1732 c-21 -70 -43 -136 -50 -147 -6 -11 -19 -51 -29 -88 -10 -38 -34 -109 -52 -159 -32 -84 -41 -118 -29 -107 8 8 174 498 191 563 27 106 9 68 -31 -62z"></path></g></g><g id="l1A5lF6ULLduOlZ5BVd8OGQ" fill="rgb(255,74,120)" style="transform: none;"><g style="transform: none;"><path id="pxptqhNUc" d="M2445 2706 c-29 -8 -41 -18 -43 -34 -3 -21 -1 -22 80 -20 46 0 93 -2 106 -6 35 -12 54 -61 60 -156 6 -109 -13 -176 -73 -265 -25 -36 -41 -65 -36 -65 5 0 12 -9 16 -20 6 -17 9 -18 28 -6 12 7 51 19 87 26 36 7 74 14 85 17 76 17 95 14 173 -25 42 -22 93 -45 112 -52 19 -8 47 -22 62 -32 35 -24 38 -23 38 12 0 25 -4 30 -25 30 -14 0 -25 3 -25 8 0 4 -21 18 -47 32 -27 14 -57 33 -68 43 -11 10 -40 29 -65 42 -26 13 -56 39 -70 61 -21 33 -31 39 -65 42 -31 2 -50 -4 -79 -23 -21 -14 -41 -24 -44 -20 -3 3 0 5 5 5 17 0 36 137 29 210 -8 89 -22 134 -52 170 -26 30 -54 40 -54 18 0 -6 -7 -4 -18 5 -21 20 -60 21 -117 3z"></path><path id="p32bmi0dc" d="M4071 1979 c-27 -30 -33 -72 -21 -180 5 -52 10 -97 10 -101 0 -5 12 -8 27 -8 l26 0 -6 125 c-3 69 -2 125 2 125 16 0 42 -75 57 -163 9 -50 23 -104 31 -120 8 -16 13 -30 11 -31 -2 -1 -17 -8 -35 -15 -28 -11 -33 -11 -52 8 -12 12 -21 30 -21 41 0 13 -7 20 -20 20 -23 0 -25 -13 -9 -59 11 -31 52 -61 83 -61 30 0 67 24 88 58 24 38 21 95 -7 172 -9 25 -23 68 -30 95 -10 33 -26 61 -49 83 -42 37 -58 40 -85 11z"></path><path id="pvwr0p13A" d="M3669 1908 c-13 -49 -17 -225 -6 -280 8 -37 37 -55 37 -23 0 9 7 27 16 40 14 22 15 37 4 130 -7 59 -9 109 -6 113 4 3 16 -3 27 -15 15 -15 25 -46 35 -119 8 -55 19 -119 25 -143 5 -24 8 -46 5 -48 -3 -3 -33 -5 -68 -5 l-63 1 28 -24 c36 -32 87 -33 120 -2 36 33 39 52 23 141 -8 44 -17 99 -19 121 -8 83 -67 155 -126 155 -15 0 -23 -10 -32 -42z"></path><path id="pxufkI1UF" d="M2758 1633 c-31 -8 -21 -33 12 -33 28 0 30 -3 30 -36 0 -30 3 -35 18 -31 9 3 38 12 64 20 26 8 68 14 94 12 60 -4 46 10 -42 39 -73 25 -148 37 -176 29z"></path><path id="p1CpCNDNn8" d="M3871 1136 c-67 -10 -76 -14 -107 -50 -58 -67 -94 -151 -94 -219 0 -74 19 -108 77 -138 24 -12 43 -25 43 -29 0 -12 50 -41 78 -46 15 -3 40 -11 55 -19 41 -20 159 -13 230 15 73 28 137 76 160 120 22 42 16 121 -12 156 -28 36 -178 151 -247 189 -67 37 -70 38 -183 21z m310 -175 c75 -68 97 -103 91 -139 -6 -36 -105 -109 -179 -132 -81 -25 -79 -25 -165 5 -79 28 -144 63 -171 93 -18 19 -18 20 1 33 10 8 29 33 41 57 12 23 27 42 33 42 18 0 48 31 48 51 0 11 12 22 34 29 40 13 61 35 70 72 l6 28 61 -38 c34 -20 92 -66 130 -101z"></path><path id="pQ3iTaES6" d="M1238 1075 c-14 -32 9 -69 58 -92 37 -18 45 -17 162 24 48 17 52 20 37 33 -14 12 -24 12 -63 0 -92 -26 -95 -25 -135 19 -20 23 -39 41 -42 41 -3 0 -10 -11 -17 -25z"></path><path id="p1OvDl7Si" d="M2447 1003 c-18 -122 -19 -143 -9 -143 6 0 17 10 23 23 7 12 20 29 31 38 28 25 19 88 -16 111 -19 13 -24 9 -29 -29z"></path><path id="pnENOSmYJ" d="M2570 888 c-42 -46 -55 -90 -55 -188 0 -73 4 -93 28 -142 36 -73 101 -131 197 -175 41 -19 83 -39 93 -44 15 -8 17 -4 17 31 0 22 -6 57 -14 77 -8 21 -17 67 -20 102 -3 35 -13 76 -23 90 -9 14 -37 67 -61 116 -42 87 -78 137 -115 156 -14 8 -24 3 -47 -23z m57 -277 c12 -6 44 -11 72 -11 49 0 49 0 65 -42 14 -42 28 -148 18 -148 -2 0 -27 12 -55 27 -89 49 -148 121 -173 213 l-6 25 28 -26 c16 -15 39 -32 51 -38z"></path></g></g><g id="l2c417TmMLSMIqvGnuTpiB3" fill="rgb(222,96,119)" style="transform: none;"><g style="transform: none;"><path id="pwGwhO7Ck" d="M3190 3071 c0 -5 8 -12 18 -14 16 -4 16 -5 0 -6 -10 0 -18 -5 -18 -11 0 -5 -13 -10 -30 -10 -16 0 -30 4 -30 10 0 11 -38 17 -142 24 -63 4 -78 2 -78 -10 0 -10 -13 -14 -50 -14 -36 0 -50 -4 -50 -14 0 -7 10 -16 23 -20 35 -9 97 -7 97 4 0 15 127 13 132 -2 3 -9 41 -14 126 -16 99 -3 124 -1 137 11 22 22 19 45 -7 50 l-23 4 23 2 c12 0 22 6 22 11 0 6 -32 10 -75 10 -41 0 -75 -4 -75 -9z"></path><path id="pkIXTHGIF" d="M2445 3061 c-11 -5 -23 -7 -27 -4 -21 12 -4 -19 23 -41 24 -20 41 -26 79 -26 40 0 48 3 44 15 -4 9 0 15 10 15 9 0 16 8 16 20 0 15 -7 20 -27 20 -16 0 -44 2 -63 5 -19 2 -44 1 -55 -4z"></path><path id="paptIR8na" d="M2650 3036 c0 -14 29 -26 68 -26 15 0 22 6 22 20 0 17 -7 20 -45 20 -32 0 -45 -4 -45 -14z"></path><path id="p1Be7ob7XF" d="M3350 3024 c0 -26 31 -34 132 -34 40 0 67 -4 63 -9 -7 -12 31 -25 45 -16 20 13 10 43 -17 51 -49 14 -56 15 -141 22 -79 7 -82 6 -82 -14z"></path><path id="pTjYApzg3" d="M3200 2918 c0 -24 -9 -28 -180 -90 -79 -28 -143 -107 -155 -192 -11 -72 -2 -86 56 -86 45 0 85 12 99 29 8 10 121 76 179 106 48 24 61 26 120 20 36 -3 106 -8 154 -10 66 -3 96 -9 119 -24 l32 -19 -37 -7 c-33 -7 -37 -10 -37 -39 0 -20 -8 -38 -21 -50 -21 -17 -22 -24 -16 -125 6 -97 8 -108 32 -128 14 -12 25 -26 25 -31 0 -5 -39 -50 -87 -100 -95 -97 -122 -111 -181 -94 -50 15 -231 36 -239 28 -8 -8 29 -36 39 -30 5 3 8 0 8 -6 0 -6 11 -15 24 -20 36 -13 51 -44 77 -150 26 -114 35 -132 91 -196 24 -27 54 -65 66 -84 19 -31 93 -102 130 -124 7 -4 -1 21 -19 55 -41 82 -48 158 -24 265 9 44 28 100 40 125 52 101 219 211 365 240 60 12 238 8 275 -5 25 -9 -26 37 -115 105 -76 57 -144 85 -241 99 -85 12 -104 23 -119 71 -12 34 -11 40 11 67 51 61 65 67 133 51 68 -16 92 -15 100 7 9 24 -43 51 -244 130 -91 35 -97 36 -153 26 -52 -10 -64 -9 -96 8 -48 24 -63 43 -59 72 4 33 89 60 200 64 l86 4 84 -60 c74 -53 83 -58 90 -40 4 10 20 26 35 34 27 15 27 15 -40 16 -73 0 -112 13 -103 35 3 8 -8 19 -27 28 -44 21 -235 41 -329 34 -44 -3 -78 -1 -78 4 0 5 -16 9 -35 9 -30 0 -35 -3 -35 -22z"></path><path id="pilBfIWRS" d="M1793 2827 c-98 -29 -106 -46 -111 -222 -3 -114 -1 -137 17 -186 31 -83 74 -135 147 -182 35 -22 64 -47 64 -55 0 -18 -52 -64 -60 -54 -3 5 -32 25 -65 45 -69 43 -191 82 -286 92 -82 8 -230 -16 -302 -50 l-52 -24 -3 48 c-2 40 -7 50 -32 64 -15 10 -49 20 -74 23 l-46 7 -1 56 c0 31 -5 72 -12 91 -10 29 -18 36 -50 41 -50 8 -102 59 -123 121 -9 27 -30 63 -47 82 -60 62 -219 100 -334 78 -43 -7 -53 -7 -53 4 0 9 -12 14 -37 14 -32 0 -35 -2 -20 -12 16 -12 16 -16 -5 -57 -12 -24 -23 -58 -25 -75 -5 -38 6 -116 15 -116 4 0 16 14 26 31 24 41 71 59 154 59 59 0 78 -5 142 -37 65 -33 78 -44 97 -83 29 -59 56 -100 66 -100 10 0 52 -39 52 -48 1 -4 6 -17 13 -28 6 -12 9 -24 6 -27 -6 -6 62 -21 141 -32 28 -4 58 -12 68 -17 27 -14 22 -91 -14 -194 -59 -171 -41 -316 66 -529 73 -145 105 -192 124 -180 13 7 12 22 -4 101 -5 21 -2 34 9 43 9 8 16 29 16 47 0 28 4 35 26 40 34 9 139 -10 199 -36 25 -11 46 -18 48 -17 1 1 16 -8 34 -21 17 -12 35 -22 39 -22 5 0 17 -12 29 -26 21 -27 55 -25 55 2 0 8 6 17 14 20 8 3 12 12 9 20 -3 8 0 14 6 14 6 0 10 3 9 8 -4 13 24 102 33 102 5 0 6 7 3 15 -4 8 -1 15 5 15 6 0 10 3 10 8 -1 4 0 10 1 15 1 4 4 12 5 17 1 6 4 12 5 15 1 3 3 8 4 13 1 4 6 22 10 40 4 17 12 32 17 32 6 0 8 4 4 9 -3 5 -1 12 4 16 6 3 8 12 4 20 -3 8 0 15 6 15 6 0 10 3 10 8 -1 4 0 10 1 15 1 4 4 12 5 17 1 6 4 12 5 15 1 3 3 8 4 13 1 4 6 22 10 40 4 17 12 32 17 32 6 0 8 4 5 8 -3 5 1 21 9 35 8 15 14 30 15 32 2 11 13 42 27 73 27 61 25 70 -17 94 -44 26 -64 60 -54 92 21 67 105 226 127 241 14 9 28 27 31 41 6 23 10 25 44 20 20 -3 98 -8 173 -12 127 -6 139 -4 185 16 29 14 67 23 94 22 37 0 49 -6 72 -31 15 -17 30 -31 33 -31 3 0 5 15 5 34 0 54 -67 107 -187 146 -53 18 -109 30 -124 28 -16 -3 -64 1 -106 8 -43 7 -141 13 -218 13 -114 -1 -154 -5 -212 -22z m740 -83 c36 -12 47 -21 47 -37 l0 -20 -22 20 c-13 11 -36 28 -53 36 -39 21 -30 21 28 1z m-558 -83 c5 -17 4 -22 -6 -19 -8 3 -14 9 -14 14 0 5 -3 14 -7 20 -9 13 3 28 13 17 4 -5 10 -19 14 -32z"></path><path id="pQlnEwLZm" d="M4208 2833 c18 -2 45 -2 60 0 15 2 0 4 -33 4 -33 0 -45 -2 -27 -4z"></path><path id="p1DMnvcKt" d="M2640 2588 c0 -30 13 -58 26 -58 9 0 14 12 14 35 0 28 -4 35 -20 35 -11 0 -20 -6 -20 -12z"></path><path id="pvCDGrmnP" d="M2750 2321 c0 -12 7 -18 17 -17 10 0 28 -16 42 -38 15 -22 45 -48 71 -61 25 -13 54 -32 65 -42 11 -11 28 -22 38 -26 30 -11 20 33 -15 68 -18 17 -53 55 -76 83 -42 50 -46 52 -93 52 -41 0 -49 -3 -49 -19z"></path><path id="pFMTYf2Gf" d="M4200 1670 c0 -24 -7 -35 -30 -48 -57 -33 -28 -69 33 -41 36 16 48 48 31 87 -17 40 -34 41 -34 2z"></path><path id="pWR0RVOFP" d="M2645 1616 c-60 -19 -133 -64 -159 -100 -50 -66 -70 -182 -45 -257 13 -37 93 -150 133 -188 31 -30 33 -23 5 25 l-20 36 25 -6 c15 -3 26 -5 26 -3 0 2 -22 18 -49 35 -72 47 -82 83 -69 249 3 35 11 48 52 85 55 48 61 53 95 63 21 6 23 5 19 -13 -3 -12 -2 -22 4 -24 6 -2 6 -13 0 -29 -6 -16 -7 -31 -1 -42 7 -11 6 -17 -1 -18 -25 -3 -29 -4 -36 -11 -4 -5 2 -8 14 -8 20 0 62 35 62 51 0 8 30 26 96 58 34 16 42 24 42 47 0 15 7 33 16 39 14 11 12 13 -15 19 -50 10 -150 6 -194 -8z"></path><path id="pDfaVl6KL" d="M3783 1573 c-33 -35 -41 -53 -24 -53 5 0 17 -3 27 -7 12 -4 15 -3 10 5 -4 7 -2 10 7 7 22 -9 49 29 41 59 -8 34 -22 31 -61 -11z"></path><path id="pBgO07pxF" d="M3677 1573 c17 -49 43 -56 43 -13 0 25 -4 30 -25 30 -19 0 -23 -4 -18 -17z"></path><path id="pI9SOsc5d" d="M2578 1393 c-10 -2 -18 -11 -18 -19 0 -10 13 -14 50 -14 28 0 50 4 50 8 0 5 12 13 28 19 24 10 20 11 -33 11 -33 0 -68 -2 -77 -5z"></path><path id="pkZ1ScHV9" d="M2840 1380 c0 -17 7 -20 45 -20 49 0 64 23 23 34 -45 12 -68 7 -68 -14z"></path><path id="pofK7cP6Y" d="M2960 1373 c0 -17 9 -21 53 -27 28 -3 73 -9 100 -12 39 -5 47 -4 47 9 0 16 -43 28 -152 43 -43 6 -48 4 -48 -13z"></path><path id="plqn9pafS" d="M2504 1364 c3 -9 6 -18 6 -20 0 -2 7 -4 15 -4 8 0 15 9 15 20 0 14 -7 20 -21 20 -15 0 -19 -4 -15 -16z"></path><path id="p1Ggp8Tjhg" d="M1250 1365 c-1 -5 -2 -13 -1 -17 0 -4 -7 -9 -17 -12 -39 -13 -103 -146 -101 -214 0 -20 4 -46 8 -57 6 -14 9 -8 14 29 9 61 61 172 90 188 19 11 21 19 16 53 -3 22 -7 36 -9 30z"></path><path id="p7LEPnPTO" d="M3170 1329 c0 -14 5 -19 17 -17 26 5 29 38 4 38 -15 0 -21 -6 -21 -21z"></path><path id="pwUxR7DDK" d="M1630 1301 c-16 -31 -12 -51 10 -51 16 0 20 7 20 35 0 39 -14 46 -30 16z"></path><path id="paOpaYT2d" d="M2215 1180 c-9 -16 -20 -30 -25 -30 -13 0 -13 -28 1 -43 5 -7 18 -26 29 -43 22 -38 90 -73 159 -81 28 -3 51 -8 51 -10 0 -2 -14 -24 -30 -49 -21 -29 -38 -44 -53 -44 -12 -1 -33 -7 -47 -15 -35 -20 -47 -18 -53 8 -8 33 -36 109 -47 129 -6 10 -10 27 -10 38 0 13 -7 20 -20 20 -34 0 -38 -62 -6 -119 14 -27 37 -97 51 -157 27 -113 102 -285 147 -334 13 -14 20 -21 16 -15 -14 22 36 296 82 454 24 81 30 118 23 129 -5 9 -32 21 -61 27 -85 20 -147 67 -162 127 -13 46 -24 48 -45 8z"></path><path id="px4mTTGLg" d="M1270 1051 c0 -24 5 -34 20 -38 11 -3 20 -9 20 -14 0 -16 72 -9 132 13 41 15 56 24 48 32 -7 7 -24 6 -58 -4 -69 -20 -99 -17 -132 15 l-30 29 0 -33z"></path></g></g><g id="l4iSAm3KeaANmMlSIuonUkh" fill="rgb(164,131,129)" style="transform: none;"><g style="transform: none;"><path id="piCfjDIhr" d="M4630 3213 c0 -9 139 -58 220 -77 30 -7 68 -18 83 -24 36 -15 37 -15 67 7 l24 19 -39 10 c-205 50 -355 78 -355 65z"></path><path id="pTcfzQxfE" d="M2575 3090 c3 -5 35 -10 71 -10 36 0 64 4 64 10 0 6 -30 10 -71 10 -44 0 -68 -4 -64 -10z"></path><path id="p1HdUbTZ0A" d="M2760 3090 c0 -5 9 -10 21 -10 11 0 17 5 14 10 -3 6 -13 10 -21 10 -8 0 -14 -4 -14 -10z"></path><path id="phULrNOK7" d="M3185 3071 c9 -15 64 -23 111 -16 71 10 50 25 -37 25 -46 0 -78 -4 -74 -9z"></path><path id="pspoWiI3P" d="M2471 3059 c6 -3 -3 -8 -20 -11 -17 -2 -33 0 -35 6 -3 8 -5 8 -5 0 -1 -6 8 -19 18 -28 20 -18 18 -44 -3 -58 -6 -4 -67 -5 -136 -2 -142 7 -416 -10 -505 -31 -33 -7 -100 -27 -150 -44 -93 -32 -189 -40 -301 -24 -43 6 -46 8 -24 15 27 8 -52 3 -250 -16 -69 -7 -237 -13 -375 -15 -137 -1 -281 -6 -320 -11 -38 -5 -76 -10 -82 -10 -24 0 -13 -20 11 -20 31 0 53 -25 31 -34 -9 -3 -14 -10 -11 -15 4 -5 1 -11 -5 -13 -7 -2 -6 -8 4 -17 17 -13 23 -9 76 54 l24 28 266 -9 c349 -11 677 -11 934 1 l209 10 35 39 c19 21 49 43 67 48 17 6 124 13 239 15 190 5 207 4 207 -12 0 -15 8 -16 63 -11 34 3 67 5 72 5 6 0 35 -1 65 -2 30 -1 151 -1 268 1 205 2 212 3 212 22 0 19 -7 20 -202 22 -112 1 -225 1 -253 1 -27 0 -42 2 -32 4 20 5 21 13 6 47 -7 15 -22 27 -38 29 -14 2 -5 3 21 0 35 -3 47 0 44 9 -1 7 -1 10 1 6 3 -5 29 -8 59 -8 41 0 54 4 54 15 0 8 -6 15 -12 16 -77 5 -236 4 -227 -2z"></path><path id="p1GaWWnuVw" d="M2787 3063 c-23 -4 -25 -6 -13 -19 17 -17 206 -21 206 -4 0 6 -9 10 -21 10 -11 0 -17 5 -14 10 6 10 -98 12 -158 3z"></path><path id="pJXWTAc87" d="M1466 3010 c-24 -26 -32 -40 -23 -40 14 0 37 26 61 68 13 21 1 13 -38 -28z"></path><path id="p7Y6ukSZz" d="M3159 3037 c12 -12 217 -34 228 -24 19 20 -24 31 -127 32 -78 2 -108 -1 -101 -8z"></path><path id="pAi73UzIj" d="M3458 3033 c-10 -2 -18 -11 -18 -20 0 -12 12 -14 65 -11 36 1 65 1 65 -1 0 -2 -8 -10 -17 -17 -17 -11 -16 -13 8 -19 14 -3 48 -5 75 -3 l49 3 -36 22 c-19 12 -50 23 -67 25 -18 1 -32 6 -32 10 0 5 -11 6 -25 2 -15 -4 -25 -2 -25 5 0 11 -11 12 -42 4z"></path><path id="p185YZzQdb" d="M3210 2918 c0 -16 9 -18 85 -18 67 0 85 3 85 14 0 18 -40 27 -113 25 -48 -2 -57 -5 -57 -21z"></path><path id="pgiEksKy" d="M3540 2912 c0 -4 28 -13 63 -20 34 -7 73 -15 87 -18 24 -5 24 -4 5 9 -11 8 -29 17 -40 20 -36 11 -115 17 -115 9z"></path><path id="pYVz5ooS3" d="M2310 2811 c0 -24 5 -31 29 -36 16 -3 31 -12 34 -19 9 -22 167 -58 167 -37 0 6 -3 10 -7 9 -10 -3 -56 22 -51 28 10 9 98 -29 98 -42 0 -8 5 -14 10 -14 6 0 10 16 10 35 l0 34 -112 36 c-61 19 -126 35 -145 35 -30 0 -33 -3 -33 -29z"></path><path id="psmO5jTeB" d="M1914 2193 c-4 -21 -10 -40 -15 -43 -4 -3 -10 -17 -14 -32 -7 -26 -6 -27 18 -15 14 6 24 14 22 16 -3 2 1 13 7 25 7 11 13 24 14 29 1 4 3 10 4 15 1 4 2 10 1 15 0 4 5 7 12 7 8 0 7 4 -3 10 -27 18 -39 10 -46 -27z"></path><path id="pAc9fBiiM" d="M2471 1363 c1 -22 3 -29 6 -18 3 11 9 24 14 30 14 14 11 25 -6 25 -11 0 -15 -10 -14 -37z"></path><path id="pjzIy5OBI" d="M2507 1374 c-8 -8 17 -56 37 -73 14 -12 16 -10 16 17 0 17 -3 37 -6 46 -6 16 -35 22 -47 10z"></path><path id="pGP82S42J" d="M1641 1328 c-10 -28 2 -38 47 -38 41 0 40 9 -3 38 l-35 22 -9 -22z"></path><path id="pIjEzEqn3" d="M1740 1275 c0 -20 5 -25 25 -25 14 0 25 -4 25 -10 0 -5 16 -10 35 -10 19 0 35 4 35 9 0 12 -5 15 -68 40 l-52 21 0 -25z"></path><path id="pf6aWvarp" d="M1622 1259 c2 -12 13 -26 26 -30 21 -8 23 -6 20 19 -2 20 -9 28 -26 30 -19 3 -23 0 -20 -19z"></path><path id="p7Wj3TavM" d="M2462 1248 c2 -21 9 -34 19 -36 12 -2 16 4 14 22 -4 30 -13 46 -26 46 -6 0 -9 -15 -7 -32z"></path><path id="pzycPUOf3" d="M1722 1208 c3 -7 26 -21 51 -30 l47 -18 0 24 c0 25 -21 36 -73 36 -19 0 -27 -4 -25 -12z"></path><path id="peGkrExoS" d="M2700 1206 c0 -13 28 -26 58 -26 6 0 12 9 12 20 0 16 -7 20 -35 20 -23 0 -35 -5 -35 -14z"></path><path id="pzo1zOHUe" d="M1830 1170 c0 -12 33 -30 54 -30 9 0 16 9 16 20 0 16 -7 20 -35 20 -19 0 -35 -4 -35 -10z"></path><path id="pxJMKoZL6" d="M1990 1116 c0 -8 12 -17 28 -21 97 -23 130 -37 135 -55 3 -11 12 -20 21 -20 12 0 16 10 16 35 0 31 -3 35 -37 44 -21 6 -50 11 -65 11 -16 0 -28 5 -28 10 0 6 -16 10 -35 10 -23 0 -35 -5 -35 -14z"></path></g></g><g id="l7ICiyKnvtxRogtAQdMCkI6" fill="rgb(212,80,105)" style="transform: none;"><g style="transform: none;"><path id="p4Pbwra69" d="M2638 3083 c28 -2 76 -2 105 0 28 2 5 3 -53 3 -58 0 -81 -1 -52 -3z"></path><path id="p1EK0bOsTl" d="M3210 3070 c14 -4 45 -8 70 -8 l45 1 -45 8 c-25 4 -56 7 -70 7 l-25 0 25 -8z"></path><path id="p10PQB8G1x" d="M2455 3051 l-30 -7 30 -7 c84 -17 347 -29 605 -27 100 1 182 -2 209 -10 49 -13 298 -3 284 11 -13 13 -190 29 -408 37 -272 10 -655 11 -690 3z"></path><path id="pdqZxxvzK" d="M3160 2924 c0 -7 -18 -18 -42 -24 -24 -6 -87 -24 -142 -42 -78 -25 -106 -39 -135 -68 -52 -54 -113 -132 -138 -181 -13 -23 -23 -35 -23 -26 0 30 -32 97 -46 97 -8 0 -14 10 -14 25 0 18 -5 25 -20 25 -28 0 -26 -31 5 -76 14 -20 29 -53 34 -73 29 -116 29 -129 -6 -245 -8 -26 -12 -51 -9 -54 3 -2 34 1 68 7 136 26 121 29 169 -31 24 -29 64 -71 89 -92 l45 -39 3 28 c3 20 -5 37 -31 64 -42 44 -67 91 -67 127 0 35 54 87 143 139 37 22 69 47 73 57 7 25 89 82 176 123 67 32 77 34 107 24 19 -7 55 -9 83 -6 37 5 61 2 86 -10 l35 -17 -54 -18 c-30 -9 -54 -18 -55 -18 0 0 1 -80 4 -178 l5 -178 -58 -52 c-32 -29 -81 -65 -109 -80 -46 -24 -60 -27 -148 -25 -75 1 -98 -2 -98 -12 0 -17 14 -22 86 -29 32 -4 82 -14 111 -23 83 -27 119 -10 224 98 48 50 93 104 100 120 12 30 11 33 -24 63 -34 29 -37 35 -43 107 -6 74 -6 77 21 101 20 19 26 33 23 51 -4 23 0 25 48 36 30 7 56 16 59 21 3 5 -20 26 -51 47 -55 36 -61 38 -143 39 -47 1 -108 6 -136 13 -63 14 -137 5 -200 -27 -54 -26 -167 -93 -175 -103 -21 -26 -89 -38 -91 -16 -3 33 5 62 26 95 45 70 63 87 101 100 22 8 71 27 110 42 90 37 254 80 308 81 31 0 36 2 21 8 -11 5 -84 11 -162 14 -117 4 -143 3 -143 -9z"></path><path id="p1sJkf8Ha" d="M3505 2911 c11 -5 34 -10 51 -10 17 -1 52 -7 77 -15 26 -8 47 -10 47 -5 0 11 -62 27 -135 34 -42 4 -54 2 -40 -4z"></path><path id="pUGhsEfKz" d="M1810 2854 c-67 -14 -100 -39 -100 -75 0 -10 -4 -19 -9 -19 -11 0 -31 -111 -31 -177 0 -71 16 -148 45 -210 21 -47 27 -53 54 -53 l31 0 -30 46 c-50 79 -63 134 -58 242 3 63 10 109 21 132 15 32 25 37 95 58 95 27 231 29 372 7 126 -20 154 -30 198 -71 20 -19 43 -32 50 -29 8 3 32 5 55 5 38 0 40 1 21 15 -10 8 -56 26 -101 41 -46 14 -83 29 -83 35 0 12 -8 14 116 -26 59 -18 110 -32 112 -31 8 9 -94 48 -198 75 -198 51 -420 65 -560 35z"></path><path id="pFMwOnfQb" d="M367 2826 c-27 -27 -59 -85 -52 -96 4 -6 26 1 58 17 43 22 65 26 127 26 141 -1 241 -59 275 -162 20 -62 81 -121 125 -121 42 0 57 -36 59 -141 l1 -46 46 -7 c86 -11 127 -54 89 -92 -8 -9 -15 -23 -15 -33 0 -10 -9 -43 -19 -73 -17 -50 -18 -56 -3 -54 9 2 31 25 50 52 43 62 132 106 253 127 95 16 165 11 268 -22 60 -19 169 -78 199 -108 33 -33 84 2 113 77 l19 50 -33 16 c-17 9 -51 30 -74 46 -24 16 -43 24 -43 18 0 -22 -51 -1 -150 61 l-65 41 -110 -4 c-96 -4 -119 -8 -182 -35 -48 -21 -75 -28 -79 -21 -4 6 -29 9 -65 5 -38 -3 -61 -1 -67 6 -6 7 -21 50 -36 97 -29 97 -51 124 -114 138 -63 15 -89 36 -122 101 -53 106 -120 136 -305 136 -66 0 -123 4 -126 8 -3 5 -13 2 -22 -7z"></path><path id="prRumyC8z" d="M3010 2130 c0 -8 51 -40 65 -40 3 0 5 11 5 25 0 22 -4 25 -35 25 -19 0 -35 -4 -35 -10z"></path><path id="pMAI0w2MG" d="M3750 1745 c0 -31 -4 -45 -14 -45 -7 0 -25 -9 -40 -21 -30 -24 -35 -72 -11 -118 24 -47 83 -56 129 -20 28 22 31 42 16 98 -5 20 -12 62 -15 94 -6 55 -7 57 -36 57 -28 0 -29 -2 -29 -45z m30 -133 c0 -16 -39 -44 -51 -37 -8 6 -5 13 12 26 26 20 39 24 39 11z"></path><path id="pcs5LAOCL" d="M4145 1771 c-3 -11 -15 -23 -26 -26 -14 -5 -19 -15 -19 -41 0 -32 2 -34 35 -34 l35 0 -16 -25 c-9 -14 -21 -25 -28 -25 -6 0 -17 -4 -25 -9 -12 -8 -12 -12 -2 -25 17 -20 53 -20 91 -1 48 25 54 47 31 116 -12 32 -21 66 -21 74 0 23 -47 19 -55 -4z"></path><path id="p17GNOKYC4" d="M2805 1620 c11 -5 29 -9 40 -9 l20 0 -20 9 c-11 5 -29 9 -40 9 l-20 0 20 -9z"></path><path id="pjBEpJB6s" d="M2639 1605 c-26 -9 -70 -36 -105 -66 -80 -70 -80 -70 -88 -169 -6 -74 10 -144 41 -181 31 -37 40 -32 18 10 -24 48 -30 149 -11 186 9 17 16 35 16 41 0 19 103 122 130 129 14 4 37 21 53 36 32 34 21 36 -54 14z"></path><path id="p1BUxPx4Hi" d="M2618 1393 c-33 -8 -20 -33 17 -33 28 0 35 4 35 20 0 20 -14 23 -52 13z"></path><path id="p8PaChiJG" d="M2820 1380 c0 -17 7 -20 40 -20 45 0 57 23 18 34 -42 11 -58 7 -58 -14z"></path><path id="p1AyVSPZMC" d="M2528 1383 c-33 -8 -20 -33 17 -33 28 0 35 4 35 20 0 20 -14 23 -52 13z"></path><path id="pt5hJu1jO" d="M2950 1370 c0 -16 7 -20 35 -20 40 0 49 24 13 34 -38 10 -48 7 -48 -14z"></path><path id="pNmzvcymE" d="M3030 1360 c0 -16 7 -20 35 -20 40 0 49 24 13 34 -38 10 -48 7 -48 -14z"></path><path id="pjOLd8RE7" d="M3130 1340 c0 -16 7 -20 35 -20 40 0 49 24 13 34 -38 10 -48 7 -48 -14z"></path><path id="p1Gqfebk5a" d="M1210 1315 c-9 -10 -10 -19 -3 -26 14 -14 45 0 41 19 -4 22 -23 25 -38 7z"></path><path id="pk3HWefsB" d="M2190 1152 c-20 -7 -30 -22 -30 -49 0 -17 -6 -23 -22 -23 -22 -1 -23 -1 -3 -13 12 -7 21 -25 23 -47 2 -19 7 -39 12 -45 4 -5 13 -26 18 -45 19 -63 38 -110 50 -122 8 -8 26 -4 67 16 30 14 64 26 75 26 25 0 82 83 84 123 1 30 0 31 -54 39 -73 11 -139 44 -159 80 -25 46 -45 65 -61 60z m97 -205 c-6 -18 -23 -9 -41 23 l-20 33 32 -23 c18 -13 31 -28 29 -33z"></path><path id="pkk6pQLSL" d="M2540 1112 c0 -5 7 -15 15 -22 8 -7 15 -8 15 -2 0 5 -7 15 -15 22 -8 7 -15 8 -15 2z"></path><path id="p16942slF2" d="M1270 1053 c0 -22 8 -38 26 -52 35 -27 52 -26 137 7 68 26 70 27 37 30 -19 2 -51 -2 -72 -9 -43 -14 -89 0 -113 35 -15 20 -15 19 -15 -11z"></path><path id="pJkm5uugq" d="M4220 935 c0 -22 6 -38 15 -41 10 -4 15 -20 15 -45 0 -37 2 -39 30 -39 27 0 30 3 30 31 0 36 -13 64 -48 102 -34 36 -42 34 -42 -8z"></path><path id="p48Qjy7Ms" d="M4197 773 c-11 -10 -8 -73 3 -73 21 0 70 44 70 62 0 14 -8 18 -33 18 -19 0 -37 -3 -40 -7z"></path><path id="pn9WXFPx1" d="M2673 611 c-15 -12 -23 -30 -23 -50 0 -29 2 -31 38 -31 47 0 72 24 72 68 0 29 -3 32 -32 32 -18 -1 -43 -9 -55 -19z"></path><path id="pxxbQepbm" d="M2596 488 c5 -14 86 -78 97 -78 4 0 7 14 7 30 0 23 -4 30 -20 30 -11 0 -20 7 -20 15 0 10 -11 15 -35 15 -23 0 -33 -4 -29 -12z"></path></g></g><g id="l2oSs1w0ORuKVpiUq8PLFCg" fill="rgb(253,46,96)" style="transform: none;"><g style="transform: none;"><path id="pManVzKCH" d="M2465 3040 c44 -11 75 -11 75 0 0 6 -23 9 -52 9 -45 -1 -49 -2 -23 -9z"></path><path id="p9rPcUklV" d="M2659 2448 c-1 -7 -3 -24 -4 -38 -5 -61 -59 -174 -108 -227 -11 -13 -18 -23 -15 -23 23 0 104 48 143 85 26 24 56 47 66 50 11 4 19 11 19 16 0 17 -31 22 -74 12 l-42 -9 14 43 c8 24 18 43 23 43 5 0 9 14 9 30 0 20 -5 30 -15 30 -8 0 -16 -6 -16 -12z"></path><path id="p1Gm2LwGbp" d="M3450 2285 c0 -33 2 -35 35 -35 33 0 35 2 35 35 0 33 -2 35 -35 35 -33 0 -35 -2 -35 -35z"></path><path id="pxgttA7TX" d="M2962 2160 c15 -24 119 -79 159 -84 23 -3 29 1 29 15 0 13 -13 22 -42 31 -24 7 -49 18 -56 25 -7 7 -20 13 -28 13 -8 0 -14 5 -14 10 0 6 -14 10 -30 10 -27 0 -29 -2 -18 -20z"></path><path id="p16fwusBED" d="M4075 1973 c-14 -13 -16 -26 -10 -62 3 -25 9 -79 12 -120 5 -59 3 -72 -7 -66 -10 6 -12 -4 -7 -50 7 -69 38 -111 68 -94 25 13 24 29 -1 29 -31 0 -25 37 10 55 38 19 39 19 50 -7 8 -21 9 -20 9 9 1 39 -8 65 -20 57 -15 -9 -10 14 8 31 14 15 15 24 4 81 -15 82 -37 129 -68 143 -30 14 -28 14 -48 -6z"></path><path id="pY4Z0hOak" d="M3684 1913 c-4 -15 -3 -71 2 -126 7 -78 6 -104 -4 -118 -23 -33 -4 -39 48 -16 50 22 57 34 51 92 -3 40 17 -1 24 -46 7 -45 6 -46 -17 -42 -32 6 -128 -44 -103 -53 9 -4 33 1 52 10 20 9 37 16 38 14 11 -14 25 -51 21 -55 -3 -3 -28 -8 -56 -11 -48 -4 -50 -6 -34 -23 13 -14 21 -16 42 -8 44 17 62 39 62 78 0 27 3 32 10 21 5 -8 10 -28 11 -45 0 -16 3 -24 6 -16 3 7 1 37 -5 65 -6 28 -18 96 -26 151 -13 90 -18 102 -45 127 -40 36 -69 36 -77 1z"></path><path id="p1D1LUNZ2w" d="M2761 1626 c2 -2 29 -6 59 -9 36 -4 46 -3 30 3 -25 8 -97 13 -89 6z"></path><path id="pgbDQDCOf" d="M2620 1581 c-19 -11 -46 -31 -59 -45 -14 -14 -30 -26 -38 -26 -7 0 -13 -5 -13 -11 0 -6 -7 -9 -15 -6 -8 4 -17 1 -21 -5 -4 -6 -3 -8 3 -5 6 4 8 -17 5 -55 -5 -62 9 -75 22 -22 10 38 102 141 134 149 15 4 35 15 45 26 17 18 17 19 -5 19 -13 -1 -39 -9 -58 -19z"></path><path id="p9Z7diOOr" d="M2510 1365 c0 -8 5 -15 10 -15 6 0 10 7 10 15 0 8 -4 15 -10 15 -5 0 -10 -7 -10 -15z"></path><path id="p7S9QvKDi" d="M3953 1109 c-3 -40 -26 -65 -72 -80 -44 -14 -57 -24 -41 -34 14 -9 -16 -45 -37 -45 -7 0 -23 -20 -35 -44 -12 -26 -34 -51 -54 -63 l-33 -19 18 -31 c11 -17 35 -43 55 -58 51 -39 172 -86 237 -92 83 -8 181 24 252 82 49 39 57 51 63 90 7 48 -7 95 -34 117 -13 11 -14 11 -7 -1 5 -10 4 -12 -4 -7 -6 4 -9 11 -6 15 15 25 -227 201 -275 201 -21 0 -25 -5 -27 -31z m245 -177 c68 -63 71 -97 14 -152 -94 -89 -221 -103 -367 -40 l-50 22 24 19 c13 10 31 19 40 19 9 0 42 27 73 60 32 33 69 67 83 76 19 12 92 38 125 43 3 1 29 -21 58 -47z"></path><path id="pRSiaUyc0" d="M1270 1054 c0 -19 8 -38 22 -50 l21 -19 -17 27 c-10 15 -15 31 -13 36 3 4 2 14 -4 22 -6 11 -9 7 -9 -16z"></path><path id="p1CGviZZbi" d="M2733 685 c2 -49 1 -50 -28 -53 -30 -2 -54 10 -118 61 -22 18 -40 25 -52 21 -38 -15 -4 -154 54 -221 11 -13 23 -23 28 -23 4 0 14 -9 21 -20 7 -12 17 -18 22 -15 6 3 10 1 10 -5 0 -14 98 -60 129 -60 l23 0 -7 92 c-7 86 -32 177 -70 247 -13 25 -13 24 -12 -24z m27 -196 l0 -59 -37 20 c-112 60 -132 87 -60 82 26 -2 50 2 62 11 29 22 35 13 35 -54z"></path></g></g><g id="l5lswMrJ4744LSHRXCFh46I" fill="rgb(195,79,98)" style="transform: none;"><g style="transform: none;"><path id="p4VKRbxz5" d="M3008 2934 c-10 -3 -18 -9 -18 -14 0 -4 -30 -15 -67 -25 -109 -27 -128 -40 -205 -143 -59 -79 -73 -92 -79 -76 -19 60 -22 64 -45 64 -22 0 -22 -2 -12 -32 6 -18 19 -44 30 -57 20 -26 48 -112 48 -148 0 -32 40 -33 41 0 1 43 84 169 169 256 40 41 120 71 315 121 99 25 139 30 235 30 63 0 146 -7 184 -15 75 -16 103 -13 40 4 -81 21 -586 49 -636 35z"></path><path id="pPTtbQkSS" d="M1836 2893 c-25 -28 -51 -45 -72 -49 -19 -3 -34 -11 -34 -16 0 -5 -7 -16 -15 -24 -8 -9 -15 -28 -15 -44 0 -16 -4 -30 -10 -32 -5 -1 -13 -31 -16 -65 -6 -54 -4 -63 9 -63 11 0 18 12 22 38 13 72 25 109 48 142 20 30 30 35 92 46 124 22 311 12 434 -22 41 -12 56 -13 61 -3 4 6 13 8 19 5 6 -4 11 -1 11 6 0 28 -218 71 -367 72 l-122 1 -3 25 c-3 24 -4 24 -42 -17z"></path><path id="p787HDfCt" d="M375 2833 c-5 -5 -16 -19 -24 -32 l-13 -24 58 9 c142 21 275 3 339 -48 14 -11 39 -46 55 -79 33 -65 59 -86 122 -101 63 -14 85 -41 114 -138 15 -48 36 -95 49 -109 l24 -25 41 19 c42 19 42 19 59 -3 l16 -22 95 42 c80 35 108 42 176 46 73 4 85 2 120 -20 21 -14 53 -33 69 -44 17 -10 58 -31 92 -45 34 -15 74 -36 90 -47 16 -11 41 -24 56 -27 24 -6 27 -4 27 17 0 19 -9 29 -40 43 -60 27 -143 119 -168 188 -12 32 -22 65 -22 75 0 33 -12 62 -26 62 -8 0 -14 -6 -14 -14 0 -12 -19 -14 -92 -13 -84 2 -100 -1 -158 -28 -36 -16 -86 -44 -112 -62 -32 -22 -59 -33 -84 -33 -19 0 -44 -5 -55 -11 -28 -14 -41 5 -74 105 -41 127 -69 155 -165 165 -52 6 -57 9 -93 58 -64 85 -100 97 -292 101 -88 1 -164 -1 -170 -5z"></path><path id="p51kKYlw5" d="M3261 2695 c-88 -43 -168 -99 -176 -124 -3 -10 -17 -24 -30 -31 -14 -7 -25 -17 -25 -22 0 -18 67 -6 106 20 23 15 67 44 99 65 99 66 159 88 221 81 50 -6 54 -5 54 14 0 18 -6 21 -37 21 -21 0 -60 2 -88 6 -44 6 -59 2 -124 -30z"></path><path id="pULBaIFb9" d="M3520 2702 c0 -11 12 -22 31 -29 28 -11 30 -14 16 -28 -9 -8 -27 -15 -41 -15 -23 0 -26 -4 -26 -35 0 -25 4 -35 16 -35 10 0 14 6 11 14 -6 15 23 31 77 41 47 9 60 25 41 52 -30 43 -125 70 -125 35z"></path><path id="pDs8uwmiG" d="M3493 2313 c-10 -41 -33 -74 -79 -115 -43 -39 -131 -88 -158 -88 -10 0 -16 -8 -16 -21 0 -20 4 -21 41 -15 22 4 62 17 88 31 66 33 158 119 166 154 14 63 -26 114 -42 54z"></path><path id="p1ZzWwSKJ" d="M2628 1393 c-10 -2 -18 -11 -18 -19 0 -10 13 -14 50 -14 43 0 50 3 50 20 0 16 -6 20 -32 19 -18 -1 -41 -3 -50 -6z"></path><path id="p1Gml6Aejh" d="M2790 1380 c0 -17 7 -20 45 -20 49 0 64 23 23 34 -45 12 -68 7 -68 -14z"></path><path id="p1GevTcwMK" d="M2538 1383 c-33 -8 -20 -33 17 -33 28 0 35 4 35 20 0 20 -14 23 -52 13z"></path><path id="pZUf3sfCB" d="M2940 1370 c0 -16 7 -20 35 -20 40 0 49 24 13 34 -38 10 -48 7 -48 -14z"></path><path id="pjom7rBf7" d="M3080 1350 c0 -16 7 -20 35 -20 40 0 49 24 13 34 -38 10 -48 7 -48 -14z"></path><path id="p3OaTXIbw" d="M3160 1330 c0 -16 5 -21 23 -18 12 2 22 10 22 18 0 8 -10 16 -22 18 -18 3 -23 -2 -23 -18z"></path><path id="p9ItoVAUu" d="M1633 1305 c-11 -33 -10 -35 12 -35 39 0 43 69 4 70 -3 0 -10 -16 -16 -35z"></path><path id="p12Ex3Mu9x" d="M2185 1153 c-23 -4 -55 -85 -36 -91 5 -2 26 -37 45 -77 19 -41 44 -79 55 -84 27 -15 63 0 81 34 14 27 13 28 -25 61 -22 19 -45 34 -51 34 -6 0 -19 16 -30 35 -13 24 -21 31 -27 22 -8 -11 -6 2 9 53 3 11 4 19 2 19 -2 -1 -12 -4 -23 -6z"></path></g></g><g id="l4z7HWBkBZwoOPxew4RTrKH" fill="rgb(175,66,85)" style="transform: none;"><g style="transform: none;"><path id="pROKKkROS" d="M1955 2943 c-58 -8 -105 -24 -105 -35 0 -7 -11 -23 -25 -38 l-24 -25 107 7 c114 7 274 -10 353 -37 55 -20 109 -16 109 8 0 11 -8 17 -24 17 -14 0 -61 13 -105 30 -44 16 -103 32 -131 36 -40 5 -50 10 -50 25 0 20 -27 23 -105 12z"></path><path id="p11WD19ia" d="M2756 2909 c-139 -40 -190 -73 -210 -136 -5 -16 -2 -25 13 -32 11 -6 23 -21 27 -33 4 -13 17 -40 30 -60 13 -20 26 -49 30 -65 l8 -28 8 33 c13 50 152 227 193 247 75 35 299 74 515 88 25 2 -88 4 -250 5 -265 0 -302 -1 -364 -19z"></path><path id="padsbklpe" d="M3635 2890 c28 -12 37 -12 30 0 -3 6 -16 10 -28 9 -21 0 -21 -1 -2 -9z"></path><path id="p1Crok8lQX" d="M372 2833 c-6 -2 -9 -9 -6 -14 3 -6 50 -7 118 -3 100 6 122 4 185 -15 53 -16 79 -31 104 -57 102 -111 95 -107 130 -101 43 6 89 -14 115 -50 12 -17 32 -64 46 -106 41 -126 70 -151 131 -111 29 19 55 12 55 -13 0 -13 9 -9 37 18 88 80 202 134 282 132 49 -2 119 -25 131 -44 3 -4 3 30 2 75 -5 102 17 194 58 254 28 39 28 42 9 42 -35 0 -57 -18 -74 -63 -16 -42 -19 -44 -93 -67 -42 -13 -96 -36 -120 -52 -37 -24 -53 -28 -117 -28 l-75 0 -54 49 c-73 66 -238 130 -337 131 -20 0 -53 7 -72 15 -29 12 -80 15 -239 14 -112 0 -209 -3 -216 -6z"></path><path id="pcV69J84L" d="M3314 2695 c-71 -32 -194 -114 -194 -129 0 -21 74 1 166 50 91 49 115 57 174 62 51 3 73 1 90 -11 22 -15 22 -16 -19 -28 -37 -11 -41 -15 -41 -46 0 -27 4 -33 20 -33 14 0 20 6 18 17 -2 13 12 21 60 36 61 18 63 20 49 40 -34 51 -62 61 -170 63 -88 2 -109 -1 -153 -21z"></path><path id="pXX9UpJDg" d="M3489 2305 c-1 -3 -3 -9 -4 -15 -1 -5 -3 -18 -4 -29 0 -10 -10 -21 -21 -24 -15 -4 -20 -14 -20 -36 0 -28 -3 -31 -30 -31 -16 0 -50 -10 -75 -22 -34 -17 -45 -28 -45 -45 0 -29 1 -29 63 3 86 43 163 123 173 181 3 18 0 23 -16 23 -11 0 -21 -2 -21 -5z"></path><path id="pRmfC1ND3" d="M2668 1393 c-10 -2 -18 -11 -18 -19 0 -11 20 -14 100 -14 78 0 100 3 100 14 0 7 -10 16 -22 20 -26 6 -134 6 -160 -1z"></path><path id="pz9SCcoWu" d="M2538 1383 c-26 -4 -38 -26 -20 -37 4 -2 27 -2 50 1 32 4 42 10 42 24 0 19 -11 21 -72 12z"></path><path id="pGCRSxDTE" d="M2920 1370 c0 -17 7 -20 40 -20 45 0 57 23 18 34 -42 11 -58 7 -58 -14z"></path><path id="pIPhETyx1" d="M3010 1361 c0 -15 6 -21 21 -21 12 0 52 -8 90 -17 55 -13 72 -14 82 -4 16 16 -2 27 -65 41 -115 24 -128 24 -128 1z"></path><path id="p9wjWPFfl" d="M1630 1289 c-14 -25 -6 -49 15 -49 11 0 15 10 15 35 0 39 -14 46 -30 14z"></path><path id="p30Ktwn04" d="M2149 1118 c-7 -18 -14 -36 -16 -40 -3 -4 5 -12 16 -17 23 -13 34 0 46 57 6 28 4 32 -13 32 -13 0 -24 -11 -33 -32z"></path></g></g><g id="l7Sr6mJ8A83IuviJuLxYTmV" fill="rgb(224,0,80)" style="transform: none;"><g style="transform: none;"><path id="p09CXjcUS" d="M2608 3083 c12 -2 30 -2 40 0 9 3 -1 5 -23 4 -22 0 -30 -2 -17 -4z"></path><path id="pAeqX46GN" d="M2728 3083 c12 -2 32 -2 45 0 12 2 2 4 -23 4 -25 0 -35 -2 -22 -4z"></path><path id="p1ESSZ3jB4" d="M3248 3063 c12 -2 32 -2 45 0 12 2 2 4 -23 4 -25 0 -35 -2 -22 -4z"></path><path id="pRD6nRMmx" d="M2530 3050 l-65 -6 45 -7 c104 -18 297 -28 648 -34 204 -3 372 -3 372 0 0 17 -102 27 -380 37 -387 14 -538 16 -620 10z"></path><path id="pcihNepnU" d="M3480 2588 c0 -41 -29 -104 -72 -162 -18 -24 -40 -57 -49 -73 -20 -37 -135 -83 -206 -83 -74 0 -154 -18 -185 -40 l-28 -21 0 25 c0 14 -6 31 -13 38 -24 23 -29 79 -11 107 10 14 23 30 31 34 7 4 13 15 13 22 0 8 9 15 20 15 11 0 20 7 20 15 0 8 9 15 19 15 35 0 51 12 51 36 0 30 -3 30 -59 -2 -82 -48 -130 -92 -140 -132 -26 -97 54 -218 184 -279 51 -24 73 -28 145 -28 78 0 92 3 150 34 82 43 137 94 162 151 16 36 20 69 20 170 1 69 -2 135 -6 148 -6 16 -3 22 8 22 9 0 16 5 16 10 0 6 -16 10 -35 10 -33 0 -35 -2 -35 -32z"></path><path id="plFCbc1q3" d="M2660 2473 c0 -38 -7 -92 -15 -119 -12 -43 -12 -47 0 -30 8 11 15 28 15 37 0 10 6 24 14 32 20 19 35 79 26 103 -4 11 -15 26 -24 33 -14 12 -16 7 -16 -56z"></path><path id="pZgoiBYmo" d="M4128 1702 c-50 -22 -58 -29 -58 -52 0 -15 8 -38 18 -50 38 -47 112 1 112 72 0 54 -9 57 -72 30z"></path><path id="pCRTzv7uE" d="M3714 1636 c-36 -20 -39 -25 -33 -50 16 -59 55 -73 103 -35 23 18 27 28 24 63 -3 36 -6 41 -28 43 -14 1 -43 -8 -66 -21z"></path><path id="p4OTx2ceD" d="M4077 1000 c-82 -22 -101 -34 -175 -110 -31 -33 -63 -60 -71 -60 -7 0 -29 -9 -48 -21 -18 -12 -43 -19 -53 -16 -62 16 30 -62 109 -93 71 -27 229 -39 287 -20 58 18 143 87 152 122 16 65 3 104 -54 163 -30 30 -60 55 -67 54 -6 0 -42 -9 -80 -19z"></path><path id="pbMr47p0u" d="M2750 643 c0 -12 -12 -36 -27 -53 -22 -27 -31 -31 -57 -26 -16 4 -39 15 -51 25 -11 11 -32 23 -47 26 -25 6 -28 4 -28 -17 0 -58 91 -152 192 -198 76 -35 74 -41 52 176 -6 56 -33 110 -34 67z"></path></g></g><g id="l4j4q8iUQsd7pgjAySWCxoZ" fill="rgb(206,0,71)" style="transform: none;"><g style="transform: none;"><path id="p11mSryMWA" d="M2705 3040 c8 -13 85 -13 105 0 11 7 -4 10 -48 10 -40 0 -61 -4 -57 -10z"></path><path id="pc0eSnY0W" d="M2863 3033 c9 -2 25 -2 35 0 9 3 1 5 -18 5 -19 0 -27 -2 -17 -5z"></path><path id="psQW2ETk5" d="M2955 3029 c-82 -11 7 -20 120 -11 l110 8 -95 5 c-52 2 -113 1 -135 -2z"></path><path id="p1AQKlCkTb" d="M3206 3021 c-5 -8 11 -11 51 -12 32 0 77 -3 101 -5 24 -2 51 0 60 6 12 7 -4 10 -58 10 -41 0 -91 3 -111 6 -22 4 -39 2 -43 -5z"></path><path id="pffXMEd1w" d="M3450 2668 c-1 -30 -33 -122 -50 -143 -16 -20 -112 -84 -159 -108 -18 -9 -71 -23 -118 -32 -93 -18 -124 -30 -171 -70 -30 -25 -31 -25 -37 -4 -9 26 3 89 15 89 6 0 10 9 10 20 0 15 7 20 25 20 14 0 25 4 25 9 0 5 11 12 25 15 14 4 25 13 25 21 0 9 9 15 21 15 33 0 139 63 139 83 0 12 8 17 30 17 46 0 80 20 80 47 0 12 -3 23 -6 23 -8 0 -161 -83 -269 -146 -100 -58 -152 -104 -161 -141 -19 -76 38 -197 111 -235 19 -11 19 -10 2 9 -16 19 -16 20 0 36 29 26 68 36 161 43 112 8 219 46 241 87 9 16 31 49 49 73 44 58 72 121 72 162 0 25 5 35 20 39 24 6 25 13 3 58 -14 30 -22 35 -50 35 -27 0 -33 -4 -33 -22z"></path><path id="pT4vI3lZ4" d="M3472 2240 c-43 -49 -211 -150 -249 -150 -10 0 -25 -5 -33 -11 -11 -8 1 -9 45 -6 101 9 238 97 272 176 8 18 13 34 11 36 -2 1 -22 -19 -46 -45z"></path><path id="pBjreH9iD" d="M4077 1633 c17 -49 45 -55 88 -21 26 20 26 22 9 29 -10 4 -38 8 -61 8 -36 1 -41 -2 -36 -16z"></path><path id="p1G8TKiG5i" d="M3710 1599 c-33 -13 -33 -14 -20 -38 13 -26 56 -28 82 -5 17 16 17 18 -4 35 -24 21 -24 21 -58 8z"></path><path id="p10444kelc" d="M2747 592 c-9 -28 -17 -61 -17 -75 0 -28 37 -107 49 -107 10 0 2 183 -9 214 -5 15 -10 8 -23 -32z"></path></g></g><g id="l2t3xlayPw2fp0v0xXwxVK6" fill="rgb(95,88,87)" style="transform: none;"><g style="transform: none;"><path id="pUioJnjjs" d="M4590 3216 c0 -3 26 -10 58 -16 31 -7 91 -28 132 -47 41 -18 102 -38 135 -43 52 -7 63 -6 79 10 18 17 17 18 -40 30 -33 7 -95 21 -139 32 -124 32 -225 47 -225 34z"></path><path id="p1AgIb5TyS" d="M2580 3090 c20 -13 80 -13 80 0 0 6 -21 10 -47 10 -35 0 -44 -3 -33 -10z"></path><path id="pyRgywbA6" d="M2740 3090 c0 -5 11 -10 25 -10 14 0 25 5 25 10 0 6 -11 10 -25 10 -14 0 -25 -4 -25 -10z"></path><path id="p12y8GCE2p" d="M3210 3070 c36 -12 108 -12 115 0 4 6 -20 10 -67 9 -52 -1 -66 -3 -48 -9z"></path><path id="p161Kn4cXT" d="M1467 3005 c-15 -19 -22 -32 -15 -29 15 6 52 54 46 59 -2 2 -16 -11 -31 -30z"></path><path id="pBR3MxZq7" d="M2425 2960 c-38 -4 -105 -8 -147 -9 -71 -1 -78 -3 -78 -21 0 -17 7 -20 48 -20 26 0 53 -5 58 -10 6 -6 34 -13 63 -17 40 -4 51 -9 47 -20 -4 -8 -6 -17 -6 -19 0 -2 -18 -4 -40 -4 -75 0 -44 -24 80 -63 133 -41 145 -43 137 -22 -4 8 -1 17 5 21 7 4 8 26 4 60 l-6 54 90 0 c85 0 90 1 90 21 0 21 -3 21 -106 17 -101 -5 -108 -4 -132 19 -14 12 -28 22 -31 21 -3 0 -37 -4 -76 -8z m45 -19 c0 -11 -25 -21 -53 -21 -35 0 -1 22 46 29 4 0 7 -3 7 -8z"></path><path id="pZmq8gb3Y" d="M2018 2943 c-33 -8 -20 -33 17 -33 28 0 35 4 35 20 0 20 -14 23 -52 13z"></path><path id="pkiLXyXIB" d="M1425 2830 c-38 -4 -132 -8 -207 -9 -127 -1 -138 -2 -138 -19 0 -17 14 -19 178 -25 166 -6 396 4 470 19 18 4 37 15 43 25 9 18 3 19 -133 17 -79 0 -174 -4 -213 -8z"></path><path id="p17tGRSXVR" d="M860 2810 c0 -18 7 -20 75 -20 57 0 75 3 75 14 0 17 -31 26 -97 26 -46 0 -53 -3 -53 -20z"></path><path id="plV0P71eV" d="M1646 1332 c-20 -19 0 -40 62 -66 37 -16 72 -33 77 -38 6 -5 -15 1 -45 13 -98 40 -159 35 -94 -7 48 -32 470 -174 515 -174 9 0 18 18 33 66 6 19 2 23 -31 29 -57 10 -323 101 -423 144 -49 22 -91 36 -94 33z"></path><path id="pTZgqb7sa" d="M3127 1300 c-14 -16 -30 -30 -36 -30 -6 0 -11 -4 -11 -10 0 -15 -19 -12 -36 5 -19 19 -81 19 -100 1 -8 -8 -14 -24 -14 -35 0 -12 -6 -21 -15 -21 -8 0 -15 -9 -15 -20 0 -21 9 -24 59 -14 27 6 29 8 16 18 -20 15 -9 46 15 46 25 0 35 -18 20 -35 -18 -21 5 -19 58 5 59 27 97 55 122 90 l21 30 -29 0 c-21 0 -38 -9 -55 -30z"></path><path id="prP4ZiqTe" d="M2548 1293 c24 -34 115 -90 160 -99 27 -6 32 -4 32 13 0 13 -14 24 -50 38 -27 11 -50 23 -50 27 0 4 -6 8 -13 8 -7 0 -18 9 -25 20 -8 13 -23 20 -43 20 l-30 0 19 -27z"></path><path id="p159I8NCJ1" d="M2750 1196 c0 -7 10 -16 23 -20 41 -11 57 -7 57 14 0 17 -7 20 -40 20 -27 0 -40 -4 -40 -14z"></path></g></g><g id="l3hIi1gvea499CdNzoTdbwE" fill="rgb(190,0,60)" style="transform: none;"><g style="transform: none;"><path id="p8l6Tv3zE" d="M3375 2703 c-35 -8 -405 -217 -445 -251 -62 -52 -72 -115 -32 -199 l15 -31 39 36 c71 66 105 82 203 97 77 11 118 28 203 84 71 47 82 61 102 120 8 25 21 45 27 44 9 -2 10 4 2 23 -14 38 -4 41 11 4 16 -38 40 -40 40 -2 1 27 1 27 18 6 14 -17 23 -19 51 -12 33 9 33 9 15 31 -44 52 -55 57 -144 56 -47 -1 -94 -3 -105 -6z"></path><path id="pwi1FT9ic" d="M3448 2206 c-25 -24 -82 -61 -125 -84 -96 -51 -66 -57 35 -7 64 32 142 101 142 125 0 14 0 14 -52 -34z"></path><path id="pwnB2BeEn" d="M2770 517 l5 -52 3 44 c2 24 0 47 -5 52 -4 4 -6 -15 -3 -44z"></path></g></g><g id="l5jmt56QjLH1OjiyQN2RHe7" fill="rgb(72,67,65)" style="transform: none;"><g style="transform: none;"><path id="pnxDO60Je" d="M4683 3195 c27 -7 72 -25 101 -39 61 -30 157 -50 188 -40 32 10 7 20 -97 39 -49 10 -111 26 -138 36 -26 10 -60 19 -75 18 -20 -1 -15 -4 21 -14z"></path><path id="phesHp6A1" d="M2605 3090 c45 -12 165 -12 165 0 0 6 -38 10 -97 9 -67 -1 -88 -4 -68 -9z"></path><path id="pcolspZ9E" d="M3273 3073 c9 -2 25 -2 35 0 9 3 1 5 -18 5 -19 0 -27 -2 -17 -5z"></path><path id="p1CjaOrrvo" d="M2470 2935 c-16 -17 -32 -24 -54 -22 -24 2 -34 -4 -50 -30 -12 -18 -27 -32 -33 -33 -7 0 -13 -10 -13 -22 0 -19 5 -23 33 -23 17 0 44 -4 60 -8 22 -6 27 -4 27 11 0 23 55 111 75 118 12 5 13 9 4 20 -16 19 -22 18 -49 -11z"></path><path id="pktCBJq6n" d="M2558 2914 c-12 -11 5 -45 21 -42 24 5 27 48 3 48 -10 0 -21 -3 -24 -6z"></path><path id="pzicgcXMQ" d="M1650 2818 c-25 -3 -72 -7 -106 -7 -108 -2 -154 -11 -154 -33 0 -18 7 -19 153 -12 83 4 153 8 155 9 2 2 2 14 0 27 -3 22 -6 23 -48 16z"></path><path id="pfFvfhn8" d="M1250 2790 c0 -18 6 -20 61 -20 52 0 60 2 57 18 -2 13 -15 18 -61 20 -52 3 -57 1 -57 -18z"></path><path id="p1BsKiZENo" d="M2590 1370 c0 -17 7 -20 40 -20 33 0 40 3 40 20 0 17 -7 20 -40 20 -33 0 -40 -3 -40 -20z"></path><path id="pupdm6Xhq" d="M2850 1370 c0 -16 7 -20 35 -20 28 0 35 4 35 20 0 16 -7 20 -35 20 -28 0 -35 -4 -35 -20z"></path><path id="p7m5QRqxd" d="M2515 1370 c-8 -12 17 -60 44 -84 21 -19 21 -19 21 13 0 53 -45 103 -65 71z"></path><path id="p1EVaikIP" d="M1640 1314 c-25 -64 -23 -66 90 -111 111 -45 135 -51 105 -30 -17 13 -17 16 -3 44 l15 31 -86 37 c-47 21 -92 42 -98 47 -9 7 -16 3 -23 -18z"></path><path id="pgEppHueu" d="M2937 1273 c-4 -3 -7 -19 -7 -35 0 -21 -5 -28 -20 -28 -14 0 -20 -7 -20 -21 0 -19 4 -21 31 -15 17 3 38 6 45 6 12 0 12 4 2 20 -10 16 -10 22 3 35 22 22 52 9 47 -20 -4 -18 -1 -21 14 -17 14 3 18 11 14 26 -3 11 -6 29 -6 39 0 14 -9 17 -48 17 -27 0 -52 -3 -55 -7z"></path><path id="psQenUkKn" d="M3090 1270 c0 -5 -7 -10 -15 -10 -9 0 -15 -9 -15 -24 0 -31 24 -26 71 14 l34 29 -37 1 c-21 0 -38 -4 -38 -10z"></path><path id="plLI4fhGN" d="M2590 1262 c0 -8 52 -42 64 -42 3 0 6 11 6 25 0 22 -4 25 -35 25 -19 0 -35 -4 -35 -8z"></path><path id="p1HoFl9Srb" d="M2710 1206 c0 -14 11 -18 93 -32 32 -5 37 -4 37 14 0 15 -9 21 -46 26 -69 9 -84 8 -84 -8z"></path></g></g><g id="l3MJBlDTOzH0Z30SBWbI0XA" fill="rgb(106,36,48)" style="transform: none;"><g style="transform: none;"><path id="pB6i6LRUQ" d="M1979 2940 c-113 -16 -160 -44 -79 -47 120 -5 234 -25 323 -57 83 -31 99 -34 126 -23 17 6 31 15 31 18 0 4 12 21 26 38 31 37 26 49 -21 49 -20 0 -42 5 -50 12 -18 15 -267 22 -356 10z"></path><path id="pC6fRScDc" d="M2655 2921 l-90 -6 3 -80 c1 -43 7 -84 13 -90 9 -7 10 -6 6 6 -3 10 6 28 22 46 51 57 230 107 431 121 124 9 124 9 -85 9 -115 -1 -250 -3 -300 -6z"></path><path id="p1532hu2Gd" d="M650 2830 c42 -5 96 -16 120 -25 25 -10 76 -21 113 -25 128 -16 258 -70 328 -135 l48 -45 82 0 c76 0 81 -1 76 -20 -6 -23 5 -26 23 -5 26 32 119 83 192 105 70 22 79 28 88 56 6 17 22 46 35 64 14 19 23 35 22 37 -8 7 -100 -16 -107 -27 -5 -8 -37 -10 -103 -8 -52 2 -93 0 -90 -4 2 -5 -3 -8 -12 -8 -9 0 -13 5 -9 11 5 8 1 8 -13 0 -11 -6 -23 -8 -25 -5 -3 3 -50 7 -104 9 -55 3 -189 10 -299 15 -110 6 -254 13 -320 15 -108 4 -112 3 -45 -5z"></path><path id="pb3uOdCuE" d="M3484 2688 c2 -7 10 -30 17 -51 14 -42 24 -44 92 -18 l28 11 -32 35 c-26 29 -39 35 -71 35 -28 0 -38 -4 -34 -12z"></path><path id="pTfu5VgAU" d="M2555 1383 c-39 -6 -48 -15 -32 -37 10 -14 17 -15 40 -7 16 6 42 11 58 11 21 0 29 5 29 18 0 18 -33 23 -95 15z"></path><path id="py3uWRk6V" d="M2860 1370 c0 -17 7 -20 39 -20 42 0 100 -11 206 -39 63 -16 72 -17 88 -3 9 8 17 18 17 22 0 17 -151 47 -272 55 -73 5 -78 4 -78 -15z"></path></g></g><g id="l2frCtetfd2emqc0Vs0uKD3" fill="rgb(38,35,34)" style="transform: none;"><g style="transform: none;"><path id="p10LSToQ1D" d="M4802 3150 c21 -11 65 -23 100 -26 78 -7 60 10 -28 25 -32 6 -70 13 -84 16 -18 4 -15 0 12 -15z"></path><path id="pdodJHSkz" d="M2638 3093 c23 -2 59 -2 80 0 20 2 1 4 -43 4 -44 0 -61 -2 -37 -4z"></path><path id="pzxcEsuaJ" d="M3238 3073 c12 -2 30 -2 40 0 9 3 -1 5 -23 4 -22 0 -30 -2 -17 -4z"></path><path id="p72BWSF8F" d="M1677 2804 c-3 -3 -124 -6 -269 -6 -200 -1 -252 -3 -218 -11 25 -5 142 -10 261 -9 176 0 222 3 245 16 25 13 26 15 8 16 -11 0 -23 -3 -27 -6z"></path><path id="pGHJuKpd4" d="M2615 1384 c-110 -16 -112 -18 -66 -81 38 -52 122 -100 208 -118 88 -19 93 -19 93 5 0 16 -7 20 -32 21 l-33 1 30 8 c45 11 105 11 105 0 0 -5 -9 -10 -20 -10 -14 0 -20 -7 -20 -21 0 -19 4 -21 31 -15 17 3 37 6 43 6 6 0 11 15 11 33 0 28 3 32 25 32 18 0 26 -6 28 -22 2 -13 9 -23 15 -23 34 0 182 110 166 123 -4 4 -117 33 -184 48 -45 10 -353 20 -400 13z"></path></g></g><g id="l1coK5EVeC75ckbooFthkPn" fill="rgb(0,0,0)" style="transform: none;"><g style="transform: none;"><path id="pYRn5SE97" d="M2740 1249 c-108 -13 -110 -14 -60 -37 61 -28 164 -45 225 -37 50 6 50 6 50 43 l0 37 -70 1 c-39 1 -104 -2 -145 -7z"></path><path id="p017Ungc9" d="M3028 1225 c-6 -30 -6 -30 34 -9 24 12 28 18 17 25 -26 16 -47 10 -51 -16z"></path></g></g></svg>