<svg class="img-fluid" id="outputsvg" xmlns="http://www.w3.org/2000/svg" style="transform: none; transform-origin: 50% 50%; cursor: move;" width="558" height="454" viewBox="0 0 5580 4540"><g id="l6mqCqiNcECiZlMDgAZVWLb" fill="rgb(255,255,253)" style="transform: none;"><g style="transform: none;"><path id="pSyHBdYBa" d="M3440 2555 c0 -30 3 -35 24 -35 23 0 24 2 13 35 -6 19 -16 35 -24 35 -8 0 -13 -13 -13 -35z"></path><path id="pe1you4pO" d="M3450 2480 c0 -28 2 -29 20 -18 11 7 20 21 20 30 0 11 -8 18 -20 18 -16 0 -20 -7 -20 -30z"></path><path id="pykq0JASx" d="M3340 2440 c0 -21 10 -24 48 -14 36 10 27 34 -13 34 -28 0 -35 -4 -35 -20z"></path><path id="pHc5odlGz" d="M3330 2346 c0 -20 5 -36 10 -36 6 0 10 -7 10 -15 0 -10 10 -15 30 -15 l31 0 -31 44 c-41 60 -50 64 -50 22z"></path><path id="pO8EpLZ8b" d="M3430 2208 c0 -34 3 -38 25 -38 21 0 25 -5 25 -30 0 -27 3 -30 31 -30 l30 0 -20 28 c-11 15 -36 45 -55 67 l-35 40 -1 -37z"></path><path id="pkgPxbm2Y" d="M3530 2065 c0 -31 3 -35 26 -35 14 0 24 3 22 8 -35 73 -48 80 -48 27z"></path><path id="prFmcgswt" d="M3690 1755 c0 -31 3 -35 25 -35 30 0 30 3 8 41 -23 38 -33 37 -33 -6z"></path><path id="prFTaDJIa" d="M2148 1665 c-113 -42 -176 -127 -186 -250 l-5 -65 29 0 c16 0 68 10 115 22 l87 22 6 55 c4 31 20 79 37 111 19 36 29 68 27 86 -3 25 -7 29 -38 31 -19 1 -52 -4 -72 -12z"></path></g></g><g id="l4s8q96BO36APBNAnRWq9LF" fill="rgb(241,234,217)" style="transform: none;"><g style="transform: none;"><path id="pcGfat9rV" d="M2895 3194 c-262 -21 -441 -34 -600 -43 -108 -6 -158 -13 -180 -24 -22 -13 -57 -17 -136 -17 -120 0 -119 0 -119 -75 0 -63 12 -69 128 -62 159 9 387 26 547 42 183 18 654 49 713 46 26 -1 49 4 57 13 18 17 51 10 60 -12 11 -27 416 -1205 484 -1405 20 -60 47 -122 61 -138 24 -28 30 -30 145 -39 312 -25 305 -25 305 -3 0 22 -18 25 -270 39 -113 7 -116 8 -145 39 -19 20 -40 62 -57 116 -15 46 -66 197 -113 334 -48 138 -126 367 -174 510 -213 632 -210 625 -241 625 -16 0 -20 7 -20 35 l0 35 -142 -1 c-79 -1 -215 -8 -303 -15z"></path><path id="p14C7RyxpA" d="M3280 3015 c0 -28 4 -35 20 -35 22 0 26 20 10 51 -16 30 -30 23 -30 -16z"></path><path id="pcpxkis07" d="M3310 2935 c0 -14 6 -43 12 -65 10 -30 18 -40 34 -40 21 0 22 1 9 44 -25 82 -55 115 -55 61z"></path><path id="p1CQgy1USj" d="M2830 2850 l0 -40 50 0 50 0 0 40 0 40 -50 0 -50 0 0 -40z"></path><path id="p1BnIyR778" d="M4550 2856 c0 -19 41 -153 91 -298 50 -145 137 -400 194 -568 57 -168 122 -357 144 -420 22 -63 38 -116 36 -118 -4 -4 -261 13 -434 29 -154 13 -211 12 -211 -6 0 -18 27 -22 205 -35 77 -6 207 -15 288 -21 171 -13 197 -9 197 26 0 24 -138 435 -299 895 -85 241 -171 498 -171 511 0 4 16 5 35 2 31 -5 35 -3 35 16 0 19 -6 21 -55 21 l-55 0 0 -34z"></path><path id="p37I1K0Pe" d="M3360 2788 c0 -36 20 -98 32 -98 4 0 8 -7 8 -17 0 -26 33 -123 42 -123 4 0 8 -13 8 -30 0 -23 4 -30 20 -30 11 0 20 6 20 13 0 14 -94 289 -105 306 -12 21 -25 11 -25 -21z"></path><path id="p19tGq0Aff" d="M3270 2405 c0 -32 2 -35 30 -35 30 0 41 14 18 24 -9 3 -8 8 5 16 27 17 20 30 -18 30 -33 0 -35 -2 -35 -35z"></path><path id="psbhi3QqB" d="M3370 2287 c0 -33 3 -37 25 -37 22 0 25 -4 25 -35 0 -32 2 -35 31 -35 l31 0 -38 53 c-20 28 -46 61 -56 72 -18 19 -18 19 -18 -18z"></path><path id="pNiRquaPl" d="M2184 1649 c-3 -6 1 -10 12 -9 33 4 36 1 20 -22 -23 -32 -20 -40 12 -36 23 3 27 8 30 41 3 36 3 37 -32 37 -19 0 -38 -5 -42 -11z"></path><path id="px24UhmOh" d="M2180 1551 c-16 -31 -12 -51 10 -51 16 0 20 7 20 35 0 39 -14 46 -30 16z"></path></g></g><g id="l1gUcJNA7gmUwExXOWn3Kcq" fill="rgb(246,234,194)" style="transform: none;"><g style="transform: none;"><path id="poSVnDqQ6" d="M2499 4176 c-2 -2 -82 -6 -176 -10 -341 -13 -563 -42 -963 -126 -31 -6 -104 -31 -250 -85 -59 -22 -212 -97 -275 -136 -125 -77 -289 -241 -353 -351 -47 -84 -93 -208 -99 -272 -7 -78 -20 -73 227 -86 197 -11 220 -14 220 -34 0 -16 510 -21 660 -6 58 6 169 14 248 17 l142 6 0 -24 c1 -22 2 -23 14 -7 11 15 30 18 117 18 76 0 112 4 134 16 30 16 64 20 265 29 58 2 112 5 120 6 8 0 65 5 125 10 61 5 144 12 185 15 41 3 91 7 110 9 19 3 108 7 198 11 138 6 162 5 162 -7 0 -13 48 -15 328 -16 180 0 384 -6 452 -13 179 -17 407 -49 465 -64 l49 -13 -37 -7 c-36 -7 -37 -8 -37 -48 0 -34 6 -49 32 -75 18 -18 27 -33 20 -33 -7 0 -12 -14 -12 -32 0 -18 4 -28 8 -22 8 12 264 4 487 -15 181 -16 255 -14 255 4 0 31 -160 313 -244 430 -314 440 -545 651 -811 743 -219 76 -677 142 -1120 161 -232 11 -637 15 -646 7z"></path></g></g><g id="l5jyHYdnebUFbcbngIpVj9T" fill="rgb(255,221,180)" style="transform: none;"><g style="transform: none;"><path id="pvMmjbfJN" d="M1598 3115 c-11 -11 -205 -20 -463 -20 l-300 0 -3 -32 c-3 -27 0 -33 17 -33 10 0 21 5 23 11 3 8 113 6 408 -10 223 -12 441 -21 485 -21 69 0 82 -3 93 -20 8 -14 23 -20 47 -20 39 0 50 24 15 33 -29 7 -35 34 -17 73 10 19 12 36 7 39 -10 6 -306 6 -312 0z"></path><path id="p1GaGtgk7O" d="M2820 2850 c0 -39 1 -40 35 -40 24 0 35 5 35 15 0 8 -7 15 -15 15 -8 0 -15 5 -15 10 0 6 7 10 15 10 8 0 15 7 15 15 0 10 -11 15 -35 15 -34 0 -35 -1 -35 -40z"></path><path id="p1ERrjWFO1" d="M3343 2824 c3 -27 10 -50 16 -52 6 -2 11 -17 11 -33 0 -16 5 -29 10 -29 6 0 10 -11 10 -25 0 -20 5 -25 25 -25 l25 0 -21 52 c-11 29 -28 75 -37 102 -24 69 -47 75 -39 10z"></path></g></g><g id="l7LbEnjis6cV2UBaeM22MxK" fill="rgb(235,220,175)" style="transform: none;"><g style="transform: none;"><path id="pI6aL52pZ" d="M3315 3182 c-3 -3 -5 -11 -5 -19 0 -9 15 -13 53 -13 28 0 176 -18 327 -40 151 -22 372 -54 490 -70 266 -37 250 -34 287 -67 17 -16 46 -37 64 -48 19 -11 38 -30 43 -41 8 -17 19 -21 58 -23 44 -1 48 0 39 16 -5 10 -32 40 -60 68 -28 27 -51 55 -51 61 0 6 19 17 43 23 65 17 74 25 49 47 -12 10 -43 24 -69 31 -56 14 -286 46 -463 63 -124 13 -794 22 -805 12z"></path></g></g><g id="lVGmvs2Fjqdoi1sOMmMpES" fill="rgb(219,214,196)" style="transform: none;"><g style="transform: none;"><path id="p4dloK6Zz" d="M3310 3151 c0 -40 -20 -52 -87 -55 -81 -4 -232 -16 -270 -22 -22 -3 -33 -11 -33 -21 0 -14 14 -15 113 -9 61 3 137 9 168 12 l57 6 7 -31 c5 -24 12 -31 30 -31 22 0 23 2 13 30 -12 36 -6 55 21 70 30 16 22 36 242 -615 48 -143 126 -372 174 -510 47 -137 98 -287 113 -333 15 -46 39 -98 53 -115 l26 -31 169 -13 c93 -7 230 -17 304 -23 596 -45 635 -47 643 -26 4 9 -13 75 -39 149 -25 73 -92 269 -149 437 -57 168 -144 424 -194 569 -90 259 -91 264 -71 278 27 19 25 34 -8 66 l-28 27 -22 -45 c-12 -25 -22 -57 -22 -70 0 -14 -3 -25 -7 -25 -5 0 -23 -13 -42 -29 -36 -31 -63 -39 -148 -48 -29 -3 -53 -9 -53 -14 0 -14 -308 -11 -347 3 -18 7 -33 16 -33 20 0 4 -7 8 -15 8 -8 0 -24 5 -35 10 -11 6 -29 15 -40 20 -11 6 -25 10 -32 10 -7 0 -24 9 -38 20 -14 11 -33 20 -42 20 -10 0 -18 5 -18 10 0 6 -9 10 -20 10 -11 0 -20 5 -20 10 0 6 -9 10 -19 10 -11 0 -23 9 -26 20 -3 11 -13 20 -22 20 -16 0 -53 36 -53 52 0 5 -18 26 -40 48 -36 35 -40 44 -40 90 l0 50 -35 0 c-19 0 -35 5 -35 10 0 6 -11 10 -25 10 -21 0 -25 -5 -25 -29z"></path><path id="p3JDxSAwn" d="M2670 3060 c-69 -4 -142 -10 -162 -14 -21 -3 -54 -8 -73 -11 -23 -4 -35 -11 -35 -22 0 -13 11 -14 73 -9 56 5 235 16 385 25 6 1 12 10 12 21 0 22 14 22 -200 10z"></path><path id="pzpeAmIm6" d="M2238 3023 c-10 -2 -18 -11 -18 -19 0 -11 15 -14 65 -14 58 0 65 2 65 20 0 17 -6 20 -47 19 -27 -1 -56 -3 -65 -6z"></path><path id="pg0BAp7Ih" d="M2108 3013 c-10 -2 -18 -11 -18 -19 0 -10 14 -14 55 -14 48 0 55 2 55 20 0 17 -6 20 -37 19 -21 -1 -46 -3 -55 -6z"></path><path id="pHhZ8w5sQ" d="M3300 2945 c0 -30 3 -35 24 -35 23 0 24 2 13 35 -6 19 -16 35 -24 35 -8 0 -13 -13 -13 -35z"></path></g></g><g id="l52rjKXI37100JxGzrM3DsT" fill="rgb(255,172,194)" style="transform: none;"><g style="transform: none;"><path id="p1GFGjcrny" d="M841 3069 c-19 -44 -31 -167 -31 -304 0 -461 172 -881 516 -1258 265 -291 299 -346 308 -499 13 -205 82 -391 188 -504 70 -75 120 -104 177 -104 61 0 89 30 107 115 20 95 66 192 99 207 19 9 44 9 103 0 42 -7 115 -12 160 -12 59 0 95 -5 120 -17 21 -10 89 -67 152 -128 136 -131 186 -167 293 -212 150 -63 284 -67 371 -11 89 57 131 234 88 375 -23 73 -77 170 -119 215 -15 15 -25 29 -22 31 2 2 24 18 49 34 59 40 101 86 137 148 19 32 44 58 73 75 56 33 105 96 126 163 9 30 18 105 21 179 l6 126 -32 55 c-17 30 -52 74 -78 98 -43 40 -48 48 -55 105 -8 74 -49 160 -105 224 -22 25 -61 77 -87 115 -27 39 -62 82 -78 96 l-29 27 71 17 c40 10 84 28 98 40 l27 23 -32 94 c-77 227 -109 308 -120 308 -23 0 -14 -50 36 -204 27 -83 52 -158 56 -167 7 -18 -39 -42 -120 -62 -48 -11 -50 -14 -53 -48 -2 -29 2 -39 22 -52 14 -10 44 -45 67 -79 23 -35 68 -95 99 -134 71 -90 98 -145 111 -229 10 -60 15 -69 60 -111 75 -71 99 -119 99 -201 -1 -132 -37 -242 -99 -298 -13 -11 -46 -31 -74 -45 -40 -19 -53 -31 -55 -50 -4 -37 -34 -89 -60 -106 -21 -13 -24 -13 -47 10 -17 17 -25 36 -25 59 0 20 -9 46 -21 61 -17 21 -29 26 -67 26 -60 0 -92 9 -92 25 0 15 -51 61 -78 69 -41 13 -56 63 -62 211 l-5 140 -44 0 -45 0 -13 -70 c-15 -75 -11 -156 11 -228 l13 -43 -35 17 c-50 26 -70 47 -83 88 -16 52 -40 103 -57 123 -8 10 -15 44 -16 85 -4 101 -46 192 -123 267 -75 74 -75 73 -157 98 l-76 22 -107 -24 c-108 -24 -126 -30 -174 -63 -14 -9 -52 -21 -85 -27 -117 -19 -123 -21 -161 -65 -54 -60 -155 -193 -172 -224 -21 -39 -61 -207 -61 -258 0 -48 35 -164 53 -175 18 -12 113 -9 163 3 37 10 49 19 70 55 15 26 36 47 49 50 49 12 58 2 83 -81 30 -103 31 -105 78 -132 90 -53 105 -57 214 -57 96 -1 108 1 142 24 42 29 58 57 58 104 0 43 -28 135 -51 167 l-19 26 60 7 c55 6 60 9 60 31 0 30 15 31 58 5 36 -22 41 -51 21 -125 -13 -51 -61 -155 -71 -155 -4 0 -8 -9 -8 -20 0 -11 -4 -20 -8 -20 -4 0 -16 -14 -26 -31 -41 -69 -146 -159 -202 -173 -33 -9 -60 -34 -66 -62 -3 -18 -55 -49 -126 -75 -46 -17 -91 -106 -117 -232 -7 -36 -18 -29 -69 52 -55 87 -82 140 -91 179 -6 30 -9 32 -49 32 -29 0 -52 -7 -70 -21 -14 -11 -30 -17 -36 -14 -34 21 -80 204 -80 317 0 99 -61 204 -216 370 -53 57 -108 119 -123 138 -14 19 -28 37 -31 40 -67 65 -193 257 -265 405 -153 313 -212 626 -174 916 6 46 14 87 18 91 3 4 71 0 151 -7 201 -20 430 -20 430 0 0 19 -25 22 -294 35 -126 6 -248 13 -272 17 -39 5 -44 3 -53 -18z m1385 -1445 c-7 -18 36 -19 63 -2 36 22 129 -18 229 -99 23 -19 42 -38 42 -42 0 -5 -75 -11 -167 -15 -188 -7 -233 -13 -233 -30 0 -7 -33 -20 -72 -30 -40 -10 -79 -20 -87 -23 -20 -8 -7 58 25 125 27 56 82 102 152 126 41 15 56 11 48 -10z m864 -414 c25 0 42 -6 79 -27 2 -2 -8 -12 -22 -24 -23 -18 -27 -28 -27 -74 0 -43 5 -59 24 -79 27 -30 84 -56 122 -56 30 0 63 -32 118 -115 103 -157 107 -326 8 -391 -40 -27 -144 -44 -195 -32 -63 14 -128 37 -167 60 -52 30 -159 160 -200 242 -34 70 -36 71 -77 74 -27 2 -60 -5 -93 -19 -65 -28 -74 -19 -18 17 49 32 120 115 141 165 8 19 27 45 43 59 65 57 144 146 144 162 0 10 4 18 10 18 5 0 12 22 16 50 l7 50 28 -40 c23 -31 36 -40 59 -40z"></path><path id="p1FDftsuG" d="M1480 3030 c0 -18 7 -20 85 -20 66 0 85 3 85 14 0 18 -31 26 -107 26 -56 0 -63 -2 -63 -20z"></path><path id="paXj7LMcM" d="M1860 3005 c0 -33 2 -35 35 -35 24 0 35 5 35 15 0 8 -7 15 -15 15 -8 0 -20 9 -27 20 -19 29 -28 24 -28 -15z"></path><path id="pI9NCore1" d="M1940 2980 c0 -17 7 -20 40 -20 33 0 40 3 40 20 0 17 -7 20 -40 20 -33 0 -40 -3 -40 -20z"></path><path id="pt4PjhlzZ" d="M2870 2880 c0 -5 -9 -10 -20 -10 -16 0 -20 -7 -20 -35 0 -33 2 -35 34 -35 63 0 86 15 86 55 0 34 -1 35 -40 35 -22 0 -40 -4 -40 -10z m30 -30 c0 -5 -11 -10 -25 -10 -14 0 -25 5 -25 10 0 6 11 10 25 10 14 0 25 -4 25 -10z"></path><path id="pqYfZe6zE" d="M2353 2731 c-65 -40 -119 -51 -271 -54 -146 -2 -148 -2 -212 -36 -36 -19 -82 -45 -102 -58 -37 -23 -38 -24 -38 -86 0 -36 5 -68 12 -75 15 -15 102 -16 131 -1 12 7 40 27 63 45 75 61 193 99 280 90 146 -15 282 -18 303 -7 18 10 21 20 21 86 0 68 -2 75 -26 94 -35 28 -117 29 -161 2z"></path><path id="p12FVrpECh" d="M1240 2593 c-23 -9 -70 -55 -70 -70 0 -8 -9 -32 -21 -54 -18 -36 -20 -54 -16 -167 3 -122 18 -206 38 -226 5 -6 9 -20 9 -33 0 -18 7 -23 38 -29 20 -4 43 -11 50 -17 17 -14 98 -3 117 16 22 23 27 109 16 292 -9 145 -13 185 -26 252 -7 32 -86 54 -135 36z"></path></g></g><g id="l6ygzVJZaXAcwDkhdYDHZBB" fill="rgb(255,157,180)" style="transform: none;"><g style="transform: none;"><path id="p1HVMFcF0Y" d="M845 3068 c-12 -37 -25 -185 -25 -295 0 -268 57 -506 185 -768 72 -148 198 -340 265 -405 3 -3 17 -21 31 -40 15 -19 70 -81 123 -138 155 -166 216 -271 216 -370 0 -74 26 -214 49 -265 32 -71 80 -87 125 -42 34 34 53 32 61 -7 12 -55 96 -197 159 -272 33 -40 51 -24 65 56 6 34 26 94 45 133 26 57 40 74 65 83 17 7 44 17 60 23 43 16 95 56 79 61 -19 7 21 45 56 54 39 10 89 44 137 95 21 23 39 38 39 33 0 -5 9 10 21 34 12 23 25 42 30 42 5 0 9 9 9 20 0 11 4 20 8 20 10 0 58 104 71 155 6 22 11 68 11 103 0 60 -1 63 -33 82 -17 11 -44 20 -58 20 -18 0 -35 11 -53 34 -52 69 -215 156 -290 156 -19 0 -76 -43 -76 -57 0 -3 26 -3 58 1 53 6 64 4 128 -28 63 -32 155 -109 143 -121 -3 -2 -37 -9 -75 -14 l-69 -8 90 -3 c65 -2 82 -5 60 -10 -16 -4 -48 -8 -70 -9 -57 -2 -72 -13 -48 -37 36 -35 61 -79 77 -135 20 -68 12 -93 -42 -129 -31 -21 -48 -25 -112 -25 -56 1 -85 6 -115 22 -22 11 -55 28 -72 37 -32 17 -46 31 -49 51 -1 6 -14 46 -28 90 -14 43 -24 80 -23 82 2 1 14 6 27 12 43 17 -5 13 -57 -5 -42 -15 -49 -15 -57 -1 -8 13 -14 11 -36 -12 -14 -14 -36 -43 -48 -63 -19 -31 -31 -39 -76 -49 -85 -19 -100 -11 -125 69 -23 70 -23 81 4 187 9 33 17 68 19 77 8 29 29 63 91 143 131 169 123 163 260 185 33 6 71 18 85 28 14 9 36 23 50 29 31 14 164 46 194 46 28 0 125 -32 143 -47 49 -39 121 -118 135 -147 48 -98 57 -134 44 -180 -8 -27 -3 -38 43 -114 10 -16 25 -53 35 -81 17 -52 53 -96 83 -100 8 -2 31 -17 50 -36 28 -27 33 -37 27 -63 -4 -16 -10 -31 -15 -33 -5 -2 -9 -11 -9 -21 0 -15 -80 -105 -144 -161 -16 -14 -36 -41 -44 -60 -14 -33 -88 -131 -105 -138 -4 -2 -30 -22 -57 -43 -52 -41 -63 -66 -32 -75 9 -3 34 -14 55 -25 l37 -20 0 21 c0 15 13 27 46 41 25 11 52 18 60 15 8 -3 30 -37 47 -74 37 -79 144 -210 199 -241 92 -53 212 -77 311 -61 116 19 153 51 177 148 23 99 -7 233 -76 337 -55 83 -88 115 -118 115 -64 0 -146 58 -146 103 0 13 15 37 35 56 19 18 35 40 35 50 0 23 20 41 46 41 31 0 64 -45 64 -87 0 -68 84 -109 136 -65 29 24 52 64 56 98 2 24 12 34 55 54 28 14 61 34 74 45 66 60 99 166 99 328 0 87 -3 103 -25 142 -14 23 -48 63 -74 89 -45 42 -50 51 -60 111 -13 84 -40 139 -111 229 -31 39 -76 99 -99 134 -23 34 -53 69 -66 78 -33 21 -25 30 35 43 53 11 130 46 130 59 0 4 -21 73 -47 155 -28 89 -52 147 -60 147 -18 0 -16 -44 3 -105 9 -27 24 -78 33 -112 l18 -63 -23 -15 c-12 -8 -50 -22 -83 -31 -59 -17 -61 -18 -61 -51 0 -18 4 -33 9 -33 5 0 11 -9 14 -20 3 -11 12 -20 21 -20 9 0 16 -7 16 -15 0 -8 5 -15 10 -15 6 0 10 -7 10 -15 0 -8 5 -15 10 -15 6 0 10 -7 10 -15 0 -8 5 -15 10 -15 6 0 10 -7 10 -15 0 -8 4 -15 9 -15 5 0 11 -9 14 -20 3 -12 14 -20 26 -20 16 0 21 -6 21 -26 0 -17 6 -28 20 -31 11 -3 20 -14 20 -24 0 -11 7 -19 15 -19 8 0 15 -8 15 -17 1 -10 9 -43 20 -73 11 -30 19 -72 20 -92 0 -21 5 -38 10 -38 22 0 8 -30 -20 -45 -24 -13 -30 -22 -30 -50 0 -22 7 -39 20 -48 40 -28 60 -94 60 -201 0 -109 -16 -152 -66 -174 -55 -26 -71 16 -82 226 -11 195 -28 250 -90 285 -81 47 -213 25 -220 -36 -3 -28 -4 -28 -23 -11 -23 21 -118 15 -168 -11 -31 -16 -33 -15 -46 2 -14 19 -31 69 -65 190 -15 53 -28 78 -51 98 -73 60 -181 89 -399 103 -124 8 -126 8 -227 59 -63 33 -121 55 -154 59 -35 5 -61 15 -81 33 l-29 26 46 52 c62 71 118 88 254 79 284 -19 301 -19 347 -1 69 26 94 67 94 151 l0 68 -62 60 c-119 113 -157 121 -277 54 -76 -42 -76 -42 -168 -39 -115 3 -220 -12 -331 -50 -114 -38 -146 -37 -190 7 -18 19 -52 95 -52 119 0 12 -5 26 -11 32 -17 17 -3 60 25 78 31 21 276 35 276 17 0 -7 9 -12 20 -12 11 0 20 -4 20 -10 0 -5 25 -10 55 -10 47 0 55 3 55 19 0 10 -6 19 -13 18 -76 -3 -95 3 -105 33 -10 28 -13 29 -39 19 -41 -16 -646 -1 -843 21 -114 13 -150 12 -155 -2z m1639 -369 c35 -27 38 -102 5 -120 -24 -12 -124 -8 -253 11 -73 10 -86 9 -150 -11 -113 -35 -122 -39 -182 -85 -92 -72 -139 -71 -139 2 0 38 2 40 80 86 96 55 165 73 258 64 90 -8 189 9 257 44 66 35 89 36 124 9z m-1150 -160 c-3 -5 -1 -9 3 -9 5 0 10 -16 11 -35 2 -53 5 -65 11 -65 4 0 7 -20 7 -45 0 -25 -4 -45 -9 -45 -4 0 -4 -8 1 -17 14 -26 22 -202 12 -243 -4 -19 -8 -29 -9 -22 -1 7 -6 10 -12 7 -6 -4 -8 -14 -4 -23 3 -9 3 -13 -1 -9 -4 4 -13 2 -21 -5 -10 -8 -17 -8 -25 0 -7 7 -22 12 -35 12 -13 0 -23 5 -23 11 0 6 -7 9 -15 5 -11 -4 -15 1 -15 17 0 13 -4 27 -9 33 -18 18 -34 99 -38 196 -4 83 -1 102 16 137 12 22 21 46 21 54 0 15 47 62 70 69 20 7 71 -12 64 -23z m1861 -783 c20 -9 41 -28 51 -47 34 -66 1 -315 -45 -343 -15 -10 -52 75 -59 131 -2 24 1 85 8 137 9 70 9 98 1 115 -14 25 -5 27 44 7z m-188 -127 c1 -24 4 -87 6 -140 4 -101 23 -153 59 -165 27 -8 78 -54 78 -70 0 -9 -11 -14 -30 -14 -24 0 -37 10 -68 53 -54 73 -71 109 -87 184 -13 61 -9 126 11 191 9 29 29 3 31 -39z m-948 -510 c-5 -3 -14 -30 -21 -60 -9 -45 -8 -71 6 -149 9 -52 21 -99 26 -105 4 -5 17 -27 29 -48 20 -35 20 -40 6 -67 -8 -16 -21 -52 -28 -80 -7 -28 -17 -51 -23 -52 -13 -1 -107 139 -127 190 -9 23 -17 54 -17 68 0 13 -8 41 -19 62 -10 20 -22 53 -26 72 -12 59 -31 80 -72 80 -24 0 -45 -8 -59 -21 l-23 -21 -12 41 c-7 23 -10 42 -8 44 46 34 123 73 185 93 44 15 90 32 103 39 23 12 26 10 56 -34 18 -25 28 -49 24 -52z m981 -161 l0 -31 48 6 c36 4 55 1 75 -12 44 -29 160 -146 199 -203 21 -29 49 -66 63 -82 14 -16 25 -36 25 -45 0 -29 -44 -94 -75 -112 -43 -25 -143 -40 -194 -28 -52 12 -156 63 -186 92 -47 46 -125 159 -134 195 -23 94 -23 107 6 134 50 46 158 126 166 121 4 -2 7 -18 7 -35z"></path><path id="p1B3lsSKyn" d="M2810 2845 l0 -35 70 0 70 0 0 35 0 35 -70 0 -70 0 0 -35z m104 5 c-15 -15 -56 -17 -61 -2 -3 8 7 12 33 12 25 0 35 -3 28 -10z"></path><path id="pPM6XNFPQ" d="M2280 1450 c0 -21 16 -25 58 -14 39 11 27 34 -18 34 -33 0 -40 -3 -40 -20z"></path><path id="pJSd4oQ11" d="M2177 1453 c-21 -6 -18 -39 3 -36 62 7 90 16 90 28 0 15 -50 19 -93 8z"></path></g></g><g id="l3BskaUbFK4oTckbO6C417k" fill="rgb(207,201,183)" style="transform: none;"><g style="transform: none;"><path id="pT37p0k39" d="M3354 3183 c-14 -3 -27 -18 -37 -44 -10 -24 -24 -43 -37 -46 -14 -4 -20 -14 -20 -32 0 -32 31 -121 42 -121 4 0 8 -11 8 -24 0 -38 10 -56 32 -56 24 0 23 10 -20 126 -16 45 -27 86 -23 91 12 17 69 53 85 53 13 0 14 -3 4 -19 -9 -15 -7 -27 10 -63 11 -25 31 -52 45 -61 13 -8 30 -29 37 -46 7 -17 17 -31 22 -31 5 0 6 -4 3 -10 -4 -6 5 -10 21 -10 15 0 25 -3 21 -6 -9 -10 19 -34 40 -34 15 0 16 -2 3 -10 -11 -7 -7 -10 18 -10 20 0 31 -4 27 -10 -3 -6 4 -10 17 -10 13 0 34 -9 48 -20 14 -11 31 -20 38 -20 7 0 22 -5 35 -12 47 -24 57 -28 72 -28 8 0 15 -4 15 -8 0 -4 15 -13 33 -20 42 -15 421 -17 412 -2 -3 6 -1 10 4 10 6 0 11 -4 11 -10 0 -13 37 -13 42 0 2 6 17 11 35 13 17 1 29 5 26 10 -2 4 6 7 19 7 13 0 37 12 53 26 17 14 36 29 44 34 8 4 15 18 16 31 2 37 15 70 25 64 5 -3 12 0 16 6 4 8 3 9 -4 5 -7 -4 -12 -2 -12 3 0 6 5 11 10 11 22 0 -11 40 -48 59 -20 11 -45 29 -54 40 -21 25 -16 24 -278 61 -118 16 -341 48 -495 70 -344 49 -335 48 -361 43z"></path><path id="pem5eEgYs" d="M3138 3084 c-4 -3 -84 -10 -180 -16 -434 -25 -890 -57 -935 -64 -22 -3 -33 -11 -33 -21 0 -14 20 -15 194 -9 106 4 231 12 277 18 83 10 185 17 509 37 217 13 250 18 250 42 0 15 -8 19 -38 19 -21 0 -41 -3 -44 -6z"></path><path id="pSmNqEv6s" d="M2250 1644 c-22 -6 -59 -65 -76 -120 -19 -63 -18 -74 6 -74 16 0 20 7 20 31 0 17 7 37 15 46 9 8 19 28 22 44 3 16 12 29 19 29 8 0 14 10 14 25 0 14 -1 24 -2 24 -2 -1 -10 -3 -18 -5z"></path></g></g><g id="l2GoL59XS6O3QSgLjigW6N0" fill="rgb(255,137,162)" style="transform: none;"><g style="transform: none;"><path id="plYvzmFZs" d="M1708 3029 c-75 -4 -146 -13 -157 -19 -23 -12 -51 -60 -51 -87 0 -10 7 -31 15 -47 8 -15 15 -36 15 -45 1 -22 36 -98 54 -117 9 -8 32 -22 52 -30 44 -18 72 -15 199 26 124 40 213 53 317 45 l87 -6 86 46 c104 57 108 56 214 -43 64 -61 71 -71 71 -105 0 -107 -120 -159 -291 -127 -83 16 -246 13 -306 -5 -42 -13 -62 -27 -107 -79 -31 -35 -56 -68 -56 -73 0 -14 77 -83 93 -83 52 -2 105 -19 192 -63 99 -51 101 -51 225 -59 218 -14 326 -43 399 -103 23 -20 36 -45 51 -98 37 -134 52 -175 74 -202 l22 -27 50 25 c71 36 117 43 135 21 28 -34 36 -67 26 -124 -15 -98 -5 -218 23 -275 39 -78 84 -74 122 13 15 33 21 75 24 185 7 168 -3 194 -77 219 l-44 15 29 19 c57 37 149 13 186 -49 29 -46 40 -116 41 -257 2 -193 39 -255 129 -215 67 30 80 63 82 206 1 107 -1 130 -20 172 -12 27 -32 57 -44 67 l-23 18 38 18 37 18 30 -29 c30 -29 30 -29 30 -146 0 -68 4 -120 10 -124 6 -3 10 -2 10 3 0 5 8 19 19 31 23 26 35 114 22 158 -13 44 -64 115 -108 152 -32 26 -37 37 -45 92 -11 81 -43 150 -104 224 -28 33 -70 89 -94 125 -23 36 -56 75 -71 88 -16 13 -29 27 -29 32 0 4 21 13 48 19 54 14 132 51 132 63 0 4 -11 45 -24 90 -82 278 -89 298 -104 298 -11 0 -13 -9 -9 -42 3 -24 9 -52 12 -64 6 -19 2 -22 -37 -27 -58 -8 -78 -34 -78 -102 0 -93 29 -138 97 -153 l38 -9 -42 -13 c-24 -7 -43 -17 -43 -22 0 -4 -7 -8 -16 -8 -12 0 -14 -9 -12 -37 2 -30 8 -39 24 -41 12 -2 24 -12 27 -23 3 -11 14 -19 26 -19 17 0 21 -6 21 -30 0 -16 5 -30 10 -30 6 0 10 -7 10 -15 0 -8 5 -15 10 -15 6 0 10 -7 10 -15 0 -8 9 -15 20 -15 15 0 20 -7 20 -26 0 -17 6 -28 20 -31 11 -3 20 -12 20 -20 0 -8 9 -27 20 -43 28 -39 56 -108 64 -157 l7 -40 -53 14 c-32 8 -110 15 -193 16 -130 2 -145 0 -217 -26 -83 -29 -107 -27 -143 13 -17 18 -21 39 -24 124 -2 61 -7 104 -15 108 -43 28 -351 115 -448 128 -37 4 -84 16 -105 27 -35 17 -38 22 -43 68 l-5 50 -85 -1 c-47 -1 -122 -5 -166 -9 -52 -5 -84 -4 -88 3 -3 5 10 24 29 41 34 30 40 31 122 31 48 0 126 -5 174 -11 l88 -11 3 -37 c3 -33 6 -36 43 -42 22 -4 90 -23 151 -43 62 -20 131 -36 157 -36 47 0 47 0 47 34 0 32 -3 35 -80 70 -44 20 -94 39 -110 43 -17 3 -30 8 -30 12 0 3 21 15 46 25 26 10 61 34 80 53 32 32 34 38 34 103 0 63 -3 72 -30 104 -27 30 -185 142 -247 175 -28 14 -118 14 -146 0 -12 -7 -35 -23 -50 -35 -26 -22 -38 -24 -126 -24 -71 0 -134 -8 -234 -30 -76 -16 -151 -30 -168 -30 -32 0 -48 22 -31 43 5 6 12 24 16 40 8 34 73 103 105 110 14 4 29 0 38 -9 19 -19 93 -19 93 0 0 8 -14 17 -31 21 -19 4 -33 15 -36 26 -3 10 -13 18 -22 18 -9 -1 -78 -5 -153 -10z m1528 -1356 c10 -53 -12 -233 -31 -252 -15 -15 -18 -14 -36 8 -13 16 -19 39 -19 73 0 57 18 182 31 217 9 23 10 23 29 6 11 -10 22 -33 26 -52z m320 -25 c12 -36 18 -84 19 -145 0 -83 -2 -95 -23 -115 -26 -26 -49 -18 -68 23 -15 33 1 235 21 266 23 34 31 29 51 -29z"></path><path id="pdVflvExq" d="M2820 2835 l0 -35 50 0 c44 0 50 2 50 21 0 18 -4 21 -28 16 -32 -6 -67 8 -42 17 8 3 29 7 45 9 18 2 9 5 -22 6 l-53 1 0 -35z"></path><path id="pNtvjsr8o" d="M2258 1647 c-26 -21 -22 -27 16 -27 40 0 136 -29 154 -47 7 -7 19 -13 27 -13 7 0 15 -7 19 -15 3 -10 19 -15 42 -15 l37 0 -24 26 c-13 14 -55 41 -94 60 -81 39 -151 52 -177 31z"></path><path id="pf0Sy1zbb" d="M2860 1526 c0 -18 45 -83 87 -126 l34 -35 -16 45 c-19 54 -41 89 -69 112 -26 21 -36 22 -36 4z"></path><path id="pQyn9qXoE" d="M2558 1481 c-3 -37 -1 -41 19 -41 12 0 25 -4 28 -10 3 -5 -1 -10 -9 -10 -20 0 -21 -32 -2 -68 7 -15 17 -51 21 -79 7 -56 18 -66 34 -34 38 69 15 183 -47 244 l-40 39 -4 -41z"></path><path id="pkzwl0u2k" d="M2260 1450 c0 -21 16 -25 58 -14 39 11 27 34 -18 34 -33 0 -40 -3 -40 -20z"></path><path id="pa3vGZQqI" d="M2180 1440 c0 -21 10 -24 48 -14 36 10 27 34 -13 34 -28 0 -35 -4 -35 -20z"></path><path id="pqQ8h9dmT" d="M1980 1308 c0 -67 -3 -69 -135 -112 -44 -14 -100 -39 -125 -56 -25 -16 -51 -30 -59 -30 -13 0 -13 -6 3 -108 4 -21 35 -52 53 -52 9 0 30 12 46 28 l29 27 18 -22 c10 -12 21 -39 25 -60 4 -20 15 -54 26 -75 10 -20 19 -49 19 -62 0 -39 29 -104 78 -176 64 -94 108 -144 119 -137 6 4 14 28 18 54 4 27 18 75 31 109 13 33 24 72 24 87 0 23 -27 83 -50 112 -5 6 -15 46 -24 91 -16 85 -7 164 19 164 7 0 33 -9 59 -21 26 -11 56 -19 68 -17 17 2 9 11 -40 41 -74 46 -118 98 -166 197 l-35 75 -1 -57z m13 -202 c-4 -39 0 -70 16 -117 36 -108 70 -372 52 -399 -5 -8 -12 -12 -14 -10 -131 167 -132 168 -132 337 0 134 -1 143 -22 163 -13 11 -23 23 -23 25 0 10 92 50 122 54 4 1 4 -23 1 -53z"></path><path id="p1F6pZtAxl" d="M3002 1030 c-77 -54 -165 -125 -183 -150 -18 -24 -18 -29 -4 -100 22 -106 21 -104 77 -178 70 -92 88 -108 169 -147 85 -41 151 -50 244 -35 86 14 123 35 152 86 26 44 31 125 10 146 -42 43 -115 151 -110 164 5 13 8 13 23 -1 9 -8 20 -15 25 -15 4 0 13 -7 20 -17 7 -9 14 -12 18 -6 10 16 -41 110 -83 154 -35 37 -37 38 -73 27 -20 -6 -37 -14 -37 -17 0 -3 21 -26 46 -51 69 -68 33 -60 -41 9 -75 70 -163 104 -179 69 -3 -7 -3 -3 0 10 3 14 0 30 -9 40 -8 9 -16 22 -18 29 -3 7 -19 1 -47 -17z m164 -119 c81 -49 244 -263 244 -319 0 -103 -162 -144 -297 -76 -62 32 -171 119 -197 158 -17 27 -17 29 8 80 14 28 38 64 53 78 26 25 140 98 152 98 3 0 20 -8 37 -19z"></path></g></g><g id="l2BR3us1OxJP7q5fSgQjTvM" fill="rgb(255,120,146)" style="transform: none;"><g style="transform: none;"><path id="p6CkOQuag" d="M1815 3018 c-55 -10 -107 -52 -126 -103 -6 -16 -21 -49 -33 -73 l-21 -43 29 -26 c35 -30 54 -29 266 18 101 22 158 29 228 28 75 -1 97 2 118 17 107 76 100 77 266 -33 122 -81 158 -120 158 -172 0 -50 -38 -92 -116 -128 -62 -28 -62 -28 -387 -4 -155 11 -191 4 -239 -48 -43 -46 -47 -65 -16 -82 28 -15 141 -15 214 0 32 7 75 11 94 9 34 -3 35 -4 40 -53 5 -46 8 -51 43 -68 21 -11 68 -23 105 -27 100 -13 405 -100 451 -129 11 -7 13 -23 8 -67 -18 -175 59 -237 223 -180 103 35 140 39 251 28 153 -16 232 -44 297 -105 70 -66 53 -26 -23 53 -47 49 -53 61 -60 110 -9 72 -51 159 -121 245 -31 39 -67 89 -81 113 -14 23 -43 57 -65 76 -44 38 -43 40 35 65 38 13 62 42 54 65 -3 7 -24 16 -47 19 -50 6 -86 42 -96 93 -13 70 36 116 104 96 36 -11 37 -10 21 52 l-10 42 -92 -4 c-81 -3 -95 -7 -117 -28 -22 -22 -25 -34 -29 -111 -2 -63 1 -96 12 -118 8 -16 19 -42 25 -57 7 -16 19 -28 30 -28 26 0 42 -20 42 -52 0 -15 5 -28 10 -28 6 0 10 -7 10 -15 0 -9 9 -15 25 -15 19 0 25 -5 25 -23 0 -13 9 -33 20 -45 11 -12 20 -26 20 -32 0 -5 5 -10 10 -10 6 0 10 -7 10 -15 0 -8 5 -15 10 -15 6 0 10 -7 10 -15 0 -8 9 -20 20 -27 11 -7 20 -18 20 -25 0 -7 9 -18 20 -25 11 -7 20 -18 20 -25 0 -7 3 -13 8 -13 4 0 17 -26 29 -57 21 -55 36 -113 31 -113 -2 0 -28 7 -58 15 -30 8 -126 18 -213 21 l-157 7 -35 34 c-19 19 -35 38 -35 44 0 24 73 40 169 37 l96 -3 3 37 c3 37 3 37 -50 53 -29 8 -98 22 -153 31 -105 16 -203 36 -244 52 -16 6 22 7 108 4 l132 -5 -3 38 c-3 38 -4 39 -68 57 -36 10 -112 27 -170 37 -58 11 -143 33 -189 49 l-83 30 55 27 c89 42 137 112 137 200 0 55 -15 70 -154 156 -50 31 -115 71 -144 89 -41 26 -67 35 -112 38 -54 4 -61 2 -105 -31 -44 -34 -49 -35 -98 -29 -70 9 -150 9 -217 -2 l-55 -8 29 31 c23 24 38 31 68 31 34 0 38 3 38 25 0 25 0 25 -68 19 -60 -6 -71 -4 -88 13 -16 17 -26 18 -69 11z m403 -563 c-2 -1 -43 -5 -93 -8 -78 -4 -85 -4 -53 6 30 10 157 12 146 2z m374 -56 c77 -26 179 -78 154 -79 -10 0 -75 18 -143 40 -69 22 -136 40 -149 40 -12 0 -26 5 -29 10 -11 18 103 11 167 -11z"></path><path id="pk2GyFkCC" d="M2800 2845 c0 -33 2 -35 35 -35 37 0 47 13 18 25 -17 6 -17 7 0 19 25 19 21 26 -18 26 -33 0 -35 -2 -35 -35z"></path><path id="p1C24u02u0" d="M3161 1766 c-17 -20 -42 -165 -44 -256 -2 -58 2 -82 16 -103 22 -34 60 -44 91 -23 31 20 40 69 40 228 1 110 0 118 -23 142 -27 29 -62 34 -80 12z m55 -195 c-4 -86 -9 -119 -21 -130 -15 -15 -18 -14 -31 3 -8 11 -14 31 -14 45 0 29 26 182 36 214 6 20 7 20 21 1 12 -15 14 -41 9 -133z"></path><path id="pC5p5tjgE" d="M3486 1717 c-26 -26 -36 -90 -39 -254 -2 -73 0 -84 22 -107 31 -33 71 -34 108 -2 27 24 28 27 30 138 2 94 -2 124 -20 178 -19 57 -25 65 -49 68 -19 2 -35 -5 -52 -21z m62 -152 c5 -119 -2 -171 -23 -179 -9 -3 -21 4 -31 19 -14 21 -14 37 -4 130 6 59 15 118 21 132 18 49 33 9 37 -102z"></path><path id="pk1gmtphf" d="M2268 1649 c-31 -17 -20 -25 57 -38 41 -8 75 -18 75 -22 0 -5 11 -9 25 -9 16 0 25 -6 25 -15 0 -8 8 -15 19 -15 10 0 21 -9 24 -20 3 -14 14 -20 31 -20 16 0 26 -6 26 -15 0 -12 -16 -15 -85 -15 -77 0 -85 -2 -85 -19 0 -18 9 -20 123 -23 67 -2 124 -2 126 -1 11 6 -95 115 -142 146 -75 50 -188 84 -219 66z"></path><path id="puc2scDAT" d="M2250 1450 c0 -21 10 -24 48 -14 36 10 27 34 -13 34 -28 0 -35 -4 -35 -20z"></path><path id="pzjehHudy" d="M1918 1176 c-91 -33 -111 -71 -61 -120 26 -26 26 -29 27 -169 1 -160 3 -167 84 -272 61 -78 94 -115 103 -115 18 0 39 145 28 200 -5 25 -15 92 -24 150 -8 58 -24 133 -36 167 -17 51 -18 68 -9 101 5 22 7 47 4 56 -8 20 -63 21 -116 2z m90 -203 c24 -60 36 -176 32 -308 l-1 -50 -38 43 c-50 54 -81 121 -81 173 0 39 54 169 71 169 3 0 11 -12 17 -27z"></path><path id="p6X8EQjRT" d="M3064 940 c-33 -16 -78 -45 -101 -65 -50 -43 -93 -125 -93 -178 0 -33 7 -46 54 -92 64 -64 153 -123 215 -142 59 -18 161 -17 220 3 38 12 53 24 71 55 43 77 2 177 -133 324 -115 125 -147 138 -233 95z m102 -35 c10 -8 31 -15 47 -15 23 0 27 -4 27 -27 0 -34 36 -73 67 -73 19 0 23 -5 23 -30 0 -16 6 -33 13 -37 17 -11 57 -99 57 -126 0 -29 -54 -81 -99 -96 -70 -23 -135 -10 -225 44 -32 19 -65 35 -72 35 -8 0 -14 6 -14 13 0 7 -15 28 -34 46 -19 18 -36 41 -39 52 -9 36 80 179 112 179 5 0 11 3 13 8 4 10 70 41 89 41 8 1 24 -6 35 -14z"></path></g></g><g id="l3KTarSo0kPlez11eEOiowY" fill="rgb(164,152,156)" style="transform: none;"><g style="transform: none;"><path id="pe4lf6idP" d="M3342 3155 c-30 -38 -27 -49 7 -29 28 17 38 16 248 -15 477 -70 832 -121 842 -121 6 0 11 8 11 18 0 15 -24 20 -168 40 -92 13 -315 46 -497 73 -467 70 -418 66 -443 34z"></path><path id="p1B5J1qjJ6" d="M3155 3079 c-22 -5 -116 -14 -210 -20 -344 -21 -432 -27 -510 -37 -44 -5 -156 -13 -250 -17 -194 -7 -225 -11 -225 -30 0 -29 208 -31 450 -5 156 16 742 34 805 24 57 -9 60 -10 74 -49 8 -22 19 -41 23 -43 4 -2 8 -15 8 -28 0 -18 5 -24 21 -24 26 0 25 5 -22 142 l-34 97 -45 0 c-25 -1 -63 -5 -85 -10z"></path><path id="p1FU2iRrM5" d="M2823 2893 c-7 -2 -13 -20 -13 -39 0 -33 1 -34 38 -33 l37 1 -29 10 c-21 8 -25 13 -15 19 19 12 79 11 79 -1 0 -5 -7 -10 -15 -10 -8 0 -15 -4 -15 -10 0 -5 16 -10 35 -10 33 0 35 2 35 34 0 31 -3 34 -37 40 -44 7 -83 7 -100 -1z"></path><path id="pkCbhA5t1" d="M2242 1634 c-30 -21 -69 -99 -77 -157 -7 -43 -5 -47 13 -47 15 0 21 9 26 35 3 19 9 51 12 70 3 19 12 35 19 35 18 0 45 34 45 58 0 26 -8 27 -38 6z"></path></g></g><g id="l2cXbuejAafuqF38nHThZyz" fill="rgb(255,77,131)" style="transform: none;"><g style="transform: none;"><path id="p1E70wp4kc" d="M2330 2955 c0 -9 -9 -15 -25 -15 -21 0 -25 -5 -25 -31 l0 -31 36 27 c46 35 79 29 176 -33 40 -26 105 -67 143 -90 108 -65 129 -87 121 -125 -4 -17 -18 -49 -31 -69 l-25 -38 30 0 c27 0 30 3 30 30 0 19 5 30 14 30 14 0 26 42 26 91 0 32 -50 77 -145 130 -33 18 -85 50 -115 70 -84 56 -115 69 -165 69 -33 0 -45 -4 -45 -15z"></path><path id="p1HiDHaE00" d="M3142 2834 c-21 -41 -72 -220 -72 -256 0 -33 5 -41 53 -77 82 -61 123 -78 180 -73 9 1 17 6 17 11 0 12 -66 51 -86 51 -8 0 -19 12 -25 28 -6 15 -17 38 -24 52 -8 15 -12 51 -11 87 2 51 7 68 27 89 23 24 28 26 102 22 83 -5 85 -3 71 49 -4 15 -14 22 -28 22 -11 0 -60 3 -107 7 -79 6 -88 5 -97 -12z"></path><path id="pmz33qy4f" d="M2573 2485 c-75 -23 -83 -46 -24 -63 52 -16 61 -15 61 8 0 10 7 23 16 28 9 5 14 18 12 28 -3 19 -4 19 -65 -1z"></path><path id="p17ZTmxA4l" d="M2050 2489 c-44 -14 -60 -27 -60 -50 0 -24 27 -25 52 -2 13 12 42 19 89 21 50 3 69 8 69 18 0 8 -1 14 -2 14 -50 8 -121 7 -148 -1z"></path><path id="p1055ebMuv" d="M2230 2472 c0 -18 8 -21 78 -27 42 -3 94 -8 115 -11 32 -5 37 -3 37 14 0 17 -10 20 -82 26 -46 4 -98 9 -115 13 -28 4 -33 2 -33 -15z"></path><path id="pc7ufNL18" d="M2632 2408 c3 -7 19 -18 36 -25 31 -13 32 -12 32 12 0 22 -4 25 -36 25 -23 0 -34 -4 -32 -12z"></path><path id="plXyRTdoy" d="M2720 2376 c0 -14 75 -36 119 -36 28 0 225 -51 236 -61 5 -5 -7 -9 -32 -9 -36 0 -41 -2 -36 -20 5 -17 14 -20 67 -20 92 0 106 6 106 45 0 37 -1 38 -98 61 -67 15 -311 54 -344 54 -10 0 -18 -6 -18 -14z"></path><path id="pYOxreHQU" d="M2447 2373 c-30 -8 -13 -28 26 -31 28 -2 37 1 37 12 0 9 -4 16 -9 16 -5 0 -15 2 -23 4 -7 2 -21 2 -31 -1z"></path><path id="pN1m8e7Go" d="M3310 2346 c0 -29 4 -36 20 -36 16 0 20 -7 20 -30 0 -16 5 -30 10 -30 6 0 10 -7 10 -15 0 -10 10 -15 30 -15 l31 0 -51 74 c-61 91 -70 98 -70 52z"></path><path id="pcxLErg8Z" d="M3430 2178 c0 -31 4 -38 20 -38 14 0 20 -7 20 -24 0 -13 3 -26 8 -28 12 -5 50 -93 58 -133 7 -38 7 -38 -22 -30 -49 12 -147 25 -196 25 -34 0 -48 -4 -48 -14 0 -17 31 -26 90 -26 75 0 199 -39 263 -83 15 -10 27 -14 27 -8 0 6 -11 18 -24 26 -30 20 -35 31 -52 118 -15 77 -48 142 -104 207 l-39 45 -1 -37z"></path><path id="piL8oF3zs" d="M2990 2186 c0 -15 18 -20 103 -32 42 -6 47 -4 47 13 0 17 -9 21 -52 27 -79 9 -98 8 -98 -8z"></path><path id="pL5EZVgVP" d="M3170 2157 c0 -8 25 -21 60 -31 67 -18 73 -40 9 -30 -35 6 -39 4 -39 -15 0 -20 5 -21 85 -21 l85 0 0 34 c0 27 -5 36 -27 44 -83 33 -173 42 -173 19z"></path><path id="p1hxrXXmF" d="M3161 1743 c-12 -30 -41 -184 -41 -220 0 -16 6 -23 19 -23 16 0 21 15 36 97 15 83 19 94 27 73 6 -14 7 -71 3 -132 l-7 -108 -34 0 c-36 0 -42 -8 -22 -28 18 -18 63 -14 82 7 27 30 36 283 12 329 -22 42 -59 44 -75 5z"></path><path id="p16i9g7x6V" d="M3491 1717 c-15 -18 -28 -91 -36 -204 -7 -90 -7 -93 13 -93 17 0 22 8 27 48 10 85 28 151 38 145 10 -6 3 -210 -8 -221 -3 -3 -11 0 -17 6 -13 13 -58 16 -58 4 0 -4 7 -18 16 -30 16 -23 66 -30 93 -13 27 17 34 245 11 331 -9 35 -14 40 -39 40 -16 0 -34 -6 -40 -13z"></path><path id="pvRG8c6VB" d="M2370 1615 c0 -22 4 -25 36 -25 44 0 42 18 -4 37 -31 13 -32 12 -32 -12z"></path><path id="p1GDmhmW6t" d="M2510 1533 c0 -34 30 -63 65 -63 25 0 25 1 9 25 -9 14 -30 35 -45 46 l-29 20 0 -28z"></path><path id="pbiVgZxen" d="M1973 1058 c-6 -7 -27 -44 -46 -83 -32 -63 -41 -102 -38 -157 1 -25 29 -23 33 2 3 17 11 12 61 -35 51 -48 57 -58 57 -95 0 -48 25 -56 35 -12 14 64 -18 294 -49 348 -24 42 -38 51 -53 32z"></path><path id="pLeKVn8eW" d="M3050 929 c-111 -61 -178 -159 -167 -243 5 -34 16 -51 64 -96 64 -60 157 -114 216 -125 33 -6 37 -5 37 13 0 21 -24 32 -72 32 -18 0 -28 5 -28 15 0 8 -11 17 -25 21 -14 3 -25 10 -25 15 0 5 -7 9 -15 9 -20 0 -20 46 1 54 9 3 31 6 50 6 20 0 57 9 84 21 l48 21 41 -21 c23 -12 59 -21 86 -21 25 0 45 -4 45 -10 0 -5 9 -10 20 -10 50 0 3 100 -103 219 -80 90 -136 131 -177 131 -14 0 -50 -14 -80 -31z"></path><path id="prxkCfBf3" d="M2027 583 c-8 -7 21 -43 35 -43 4 0 8 11 8 25 0 18 -5 25 -18 25 -10 0 -22 -3 -25 -7z"></path><path id="pqWW5XOlq" d="M3390 550 c0 -24 -4 -30 -21 -30 -45 0 -99 -23 -99 -42 0 -21 14 -22 61 -7 69 23 131 109 79 109 -16 0 -20 -7 -20 -30z"></path></g></g><g id="l6xKZOK47MKj0FLHwnQr5AH" fill="rgb(255,62,117)" style="transform: none;"><g style="transform: none;"><path id="p1FzqNkNqS" d="M1905 2949 c-22 -22 -61 -54 -87 -71 -76 -48 -61 -67 34 -42 129 33 213 43 280 34 105 -16 119 -13 177 30 29 22 60 40 68 40 19 0 66 -25 133 -69 30 -20 82 -52 115 -70 33 -18 79 -49 103 -68 48 -39 48 -54 7 -130 l-24 -43 29 0 c23 0 30 7 44 40 9 22 16 67 16 99 0 75 -19 100 -108 142 -37 18 -107 56 -155 86 -79 48 -94 53 -146 53 -49 0 -64 -5 -101 -32 -43 -32 -44 -32 -149 -30 -73 2 -125 -2 -169 -13 -34 -9 -70 -14 -80 -12 -10 3 -7 5 10 6 15 1 35 11 46 26 11 14 27 25 36 25 9 0 16 8 16 20 0 36 -51 26 -95 -21z"></path><path id="pbf0huvl9" d="M3161 2891 c-18 -5 -41 -35 -82 -106 -34 -59 -65 -102 -79 -107 -17 -6 -21 -14 -18 -45 3 -33 11 -43 78 -95 41 -32 99 -70 127 -85 45 -24 53 -32 53 -56 0 -20 6 -30 20 -34 11 -3 20 -9 20 -14 0 -16 -13 -13 -165 37 -34 11 -107 19 -225 24 -122 5 -192 13 -230 25 -50 16 -53 19 -29 25 51 15 69 30 69 60 l0 29 -56 -34 c-71 -43 -118 -50 -263 -40 -169 11 -252 15 -290 15 -63 0 -124 -48 -91 -71 16 -11 176 -5 295 12 113 16 224 3 355 -41 63 -21 156 -43 205 -50 97 -12 261 -47 284 -60 29 -16 -47 -21 -155 -10 -128 13 -265 41 -365 75 -72 25 -189 35 -189 16 0 -18 29 -32 76 -36 26 -3 55 -12 64 -20 26 -24 315 -114 420 -131 184 -30 304 -55 329 -70 23 -13 13 -14 -104 -8 -113 5 -134 3 -165 -13 -41 -21 -48 -46 -25 -89 35 -66 55 -72 236 -78 166 -4 218 -14 312 -55 l47 -20 -19 27 c-10 15 -24 56 -31 92 -15 81 -37 125 -110 220 -31 41 -70 95 -85 120 -16 25 -44 60 -64 78 -34 32 -35 34 -17 47 20 15 14 35 -12 35 -21 0 -106 49 -151 87 l-34 30 39 119 39 119 55 -2 c30 -1 75 -9 99 -18 24 -8 46 -14 47 -12 2 2 -1 19 -7 39 -9 33 -15 38 -71 57 -63 21 -94 24 -137 12z m229 -682 c0 -11 7 -19 15 -19 8 0 15 -9 15 -20 0 -12 7 -20 17 -20 9 0 14 -3 10 -6 -3 -3 -32 2 -64 11 -32 9 -110 27 -173 40 l-115 22 95 7 c52 3 111 7 130 9 51 3 70 -3 70 -24z m110 -217 c0 -45 -3 -53 -16 -48 -9 3 -48 11 -87 17 -95 14 -202 46 -217 64 -11 13 4 15 123 15 146 0 167 3 167 29 1 14 3 13 15 -3 9 -12 15 -42 15 -74z"></path><path id="pRn8jDbgl" d="M3182 1751 c-14 -9 -62 -227 -62 -283 0 -62 51 -97 93 -65 22 16 36 244 18 299 -14 42 -32 60 -49 49z"></path><path id="pTmaEIRlI" d="M3506 1711 c-3 -5 -8 -22 -10 -38 -1 -15 -8 -50 -14 -78 -6 -27 -17 -83 -23 -123 -12 -72 -12 -73 13 -99 20 -20 32 -24 55 -19 28 6 31 11 37 59 9 82 6 218 -8 262 -11 38 -37 57 -50 36z"></path><path id="pRCLJgMtZ" d="M3207 904 c35 -44 185 -190 163 -159 -33 46 -143 165 -168 181 -26 17 -26 16 5 -22z"></path><path id="pVaBmsS5h" d="M1896 904 c-15 -38 -6 -145 16 -191 27 -58 130 -169 146 -159 7 4 12 31 12 62 0 47 -2 54 -20 54 -12 0 -20 -7 -20 -17 0 -14 -2 -14 -20 2 -13 12 -20 31 -20 56 0 36 1 37 25 26 14 -7 25 -20 25 -29 0 -10 7 -18 15 -18 15 0 19 16 15 53 -1 13 -155 177 -166 177 -1 0 -5 -7 -8 -16z"></path><path id="pr7QeyWO6" d="M3135 679 c-22 -10 -59 -19 -82 -19 -44 0 -79 -23 -66 -43 4 -7 -9 0 -28 14 -52 39 -59 42 -59 25 0 -41 147 -154 237 -181 145 -44 293 14 293 115 0 43 -20 102 -27 83 -7 -20 -69 -15 -113 7 -48 25 -102 24 -155 -1z"></path></g></g><g id="l2mD5In2zF44gJKfYvhCzRz" fill="rgb(152,137,141)" style="transform: none;"><g style="transform: none;"><path id="pvuj0dE8" d="M3420 3156 c0 -13 28 -26 58 -26 6 0 12 9 12 20 0 16 -7 20 -35 20 -23 0 -35 -5 -35 -14z"></path><path id="pwL2AKQH1" d="M2795 3024 c-347 -15 -385 -18 -385 -38 0 -10 69 -14 323 -19 177 -4 374 -10 438 -13 l116 -7 18 -53 c13 -39 23 -54 37 -54 25 0 23 15 -12 107 -27 71 -32 78 -57 78 -16 1 -57 3 -93 7 -36 3 -209 0 -385 -8z"></path><path id="p8st5mE2i" d="M2295 2993 c-76 -9 -95 -15 -95 -28 0 -17 32 -19 118 -9 42 6 52 10 52 25 0 19 -7 21 -75 12z"></path><path id="pPgwvLVHy" d="M1980 2969 c0 -16 7 -19 45 -19 33 0 45 4 45 15 0 8 -6 16 -12 16 -70 8 -78 7 -78 -12z"></path><path id="ppUm5qmxk" d="M2820 2865 c0 -27 4 -35 18 -35 13 0 14 2 3 9 -21 13 17 31 52 24 22 -4 27 -2 27 16 0 19 -6 21 -50 21 l-50 0 0 -35z"></path><path id="pZcxUCc8E" d="M2218 1603 c-18 -20 -48 -89 -48 -109 0 -8 9 -14 20 -14 16 0 20 7 20 35 0 24 5 35 15 35 10 0 15 11 15 35 0 40 -1 41 -22 18z"></path><path id="poTxQvPYZ" d="M2160 1440 c0 -13 7 -20 20 -20 13 0 20 7 20 20 0 13 -7 20 -20 20 -13 0 -20 -7 -20 -20z"></path></g></g><g id="l1zMJiuJEpSXysGvNHtmK8K" fill="rgb(143,127,130)" style="transform: none;"><g style="transform: none;"><path id="pC8gvhous" d="M2300 2989 c-25 -4 -93 -8 -152 -8 -101 -1 -108 -2 -108 -21 0 -18 7 -20 88 -20 48 0 133 5 190 12 88 10 102 14 102 30 0 20 -36 22 -120 7z"></path><path id="pwvS5d0od" d="M2490 2982 c0 -15 19 -20 120 -36 l120 -18 0 -39 c0 -36 2 -39 35 -45 19 -3 35 -10 35 -15 0 -5 17 -9 38 -9 35 1 36 1 14 14 -21 11 -22 14 -8 25 12 10 25 11 53 3 34 -9 36 -11 16 -17 -37 -12 -28 -35 12 -35 25 0 38 5 42 18 9 24 23 32 62 32 18 0 61 7 95 16 43 11 81 14 127 10 96 -10 101 -7 76 60 -11 30 -23 50 -27 44 -5 -8 -77 -8 -266 -1 -142 6 -323 11 -401 11 -130 0 -143 -2 -143 -18z"></path><path id="piLeo6NKh" d="M2219 1600 c-40 -54 -43 -70 -14 -70 15 0 25 6 25 14 0 8 5 16 11 18 6 2 9 19 7 38 l-3 35 -26 -35z"></path><path id="p1BXGHCCwb" d="M2166 1465 c-8 -30 -1 -45 20 -45 9 0 14 11 14 35 0 42 -24 49 -34 10z"></path></g></g><g id="l7UpdKBGuo8kJrPBNhuO7JZ" fill="rgb(195,61,84)" style="transform: none;"><g style="transform: none;"><path id="pZLlb58E8" d="M2361 2990 c-18 -4 -47 -18 -63 -30 -29 -21 -34 -22 -84 -11 -30 7 -78 11 -108 10 -36 -2 -61 2 -72 12 -9 7 -34 13 -55 13 -46 -2 -90 -44 -86 -84 2 -24 4 -25 67 -22 36 1 121 4 190 5 124 2 126 2 170 35 24 18 56 32 71 32 16 0 66 -23 116 -53 48 -30 118 -68 155 -86 76 -36 108 -70 108 -115 -1 -79 -86 -180 -176 -209 -84 -27 -146 -29 -294 -12 -147 18 -242 17 -262 -3 -7 -7 -9 -14 -7 -17 3 -3 111 -8 240 -11 238 -6 260 -8 384 -43 53 -15 102 -20 206 -20 141 -1 151 -3 342 -62 61 -19 73 -20 108 -9 21 7 39 17 39 21 0 4 -19 24 -42 43 -40 35 -41 37 -22 50 22 17 25 14 -46 47 -53 26 -212 138 -225 159 -3 6 3 14 15 18 14 5 45 48 79 107 42 73 64 101 82 105 28 8 122 -22 161 -50 15 -11 26 -15 23 -8 -2 7 -11 36 -20 64 l-16 52 -94 1 c-110 2 -142 -4 -150 -27 -3 -10 -22 -37 -43 -61 l-37 -43 -43 11 c-27 8 -42 17 -42 27 0 13 -7 15 -34 10 -39 -8 -66 1 -66 20 0 8 -9 14 -20 14 -12 0 -20 -7 -20 -17 0 -15 -2 -15 -19 1 -26 23 -184 104 -250 127 -56 20 -103 22 -160 9z m521 -326 c15 -8 51 -33 80 -57 82 -65 126 -97 135 -97 4 0 14 -9 21 -20 10 -16 10 -20 -2 -20 -8 0 -16 -4 -18 -9 -2 -4 -28 -5 -58 0 -82 11 -222 10 -301 -2 -38 -7 -73 -8 -77 -4 -4 4 -1 10 7 13 24 8 91 74 91 88 0 8 4 14 8 14 12 0 29 40 38 84 7 40 15 41 76 10z"></path><path id="p1GmUTLGQz" d="M2570 2343 c0 -36 249 -113 525 -163 170 -31 311 -65 337 -81 29 -20 -21 -29 -158 -29 -124 0 -143 -2 -148 -17 -18 -46 82 -101 214 -118 72 -9 167 -33 203 -51 45 -24 50 -12 17 39 -27 40 -31 52 -25 87 5 32 2 48 -15 78 -38 63 -144 202 -155 202 -6 0 -21 -7 -33 -16 -18 -12 -54 -16 -185 -16 -182 0 -292 15 -460 62 -119 33 -117 33 -117 23z"></path><path id="pQsOut2YR" d="M2246 1631 l-19 -21 47 0 c51 0 176 -44 189 -66 4 -8 21 -14 37 -14 28 0 30 -2 30 -39 0 -32 4 -40 23 -45 32 -8 67 -7 67 2 0 5 -28 36 -62 71 -73 72 -163 120 -241 128 -44 4 -55 2 -71 -16z"></path><path id="p1GzpKPvZH" d="M3120 1469 c0 -39 28 -71 58 -67 31 3 45 38 16 38 -10 0 -31 12 -46 27 l-28 27 0 -25z"></path><path id="pyOpHxEWs" d="M2340 1460 c0 -15 7 -20 28 -20 42 0 72 11 72 26 0 10 -14 14 -50 14 -43 0 -50 -3 -50 -20z"></path><path id="pDu5jKCch" d="M2208 1463 c-30 -3 -38 -8 -38 -24 0 -19 4 -20 43 -14 83 12 97 17 97 31 0 14 -19 15 -102 7z"></path><path id="pNxV79uTO" d="M3455 1408 c9 -30 35 -50 59 -46 34 5 28 26 -13 47 -50 26 -54 26 -46 -1z"></path></g></g><g id="l7BfyXFySqTExhg2JETPcTg" fill="rgb(255,0,72)" style="transform: none;"><g style="transform: none;"><path id="pVbKNjZjX" d="M1890 2933 c-25 -24 -57 -52 -72 -61 -34 -20 -38 -47 -5 -39 144 34 223 50 282 54 104 9 43 22 -71 15 -102 -5 -121 4 -85 42 12 12 21 25 21 29 0 17 -29 1 -70 -40z"></path><path id="pPgbLVYz4" d="M2025 2930 c-7 -12 34 -12 90 -1 38 8 37 9 -22 10 -34 0 -65 -3 -68 -9z"></path><path id="p5CsClTlq" d="M2240 2909 c28 -5 48 -5 54 1 7 7 -9 10 -44 9 l-55 -1 45 -9z"></path><path id="p7GItFYq1" d="M2082 2473 c8 -10 4 -13 -16 -13 -19 0 -25 4 -20 13 5 9 4 9 -6 0 -30 -28 6 -31 158 -18 41 4 71 10 67 13 -3 4 -48 9 -100 12 -74 4 -91 2 -83 -7z"></path><path id="p1Fg9BoxU" d="M2308 2443 c18 -2 45 -2 60 0 15 2 0 4 -33 4 -33 0 -45 -2 -27 -4z"></path><path id="pNFHx0tO3" d="M2570 2441 c0 -5 16 -11 35 -13 24 -3 35 0 35 9 0 8 -13 13 -35 13 -19 0 -35 -4 -35 -9z"></path><path id="pxoik7GBS" d="M2494 2351 c4 -6 19 -11 34 -11 15 0 38 -7 52 -15 47 -27 85 -43 120 -48 l35 -6 -35 12 c-54 19 -81 37 -74 49 5 7 2 8 -6 3 -7 -4 -16 -2 -20 5 -4 7 -32 15 -60 18 -38 3 -51 2 -46 -7z"></path><path id="pbbxCz7nc" d="M3148 1460 c17 -20 32 -42 32 -49 0 -18 24 -8 28 12 2 11 -3 17 -14 17 -10 0 -32 12 -48 27 -31 28 -31 27 2 -7z"></path><path id="pgB8CGgCK" d="M3479 1418 c-7 -23 -3 -45 8 -41 9 4 10 9 3 18 -5 6 -7 15 -3 18 3 4 3 7 0 7 -4 0 -7 -1 -8 -2z"></path><path id="p1HaoxVmeR" d="M3524 1392 c5 -7 -1 -16 -16 -21 -23 -10 -23 -10 -1 -10 27 -1 40 17 23 32 -10 9 -11 9 -6 -1z"></path><path id="p1DnynZXR2" d="M1897 873 c-10 -10 -8 -59 5 -111 13 -53 48 -110 104 -165 47 -47 53 -40 61 78 4 61 3 85 -5 85 -7 0 -40 23 -74 51 -58 46 -63 48 -66 28 -2 -12 1 -26 7 -32 6 -6 11 -25 11 -41 0 -24 3 -27 10 -16 7 12 10 8 10 -14 l0 -29 -25 29 c-24 28 -28 44 -28 112 0 35 0 35 -10 25z"></path><path id="pGei307F5" d="M2945 600 c32 -37 146 -105 198 -118 123 -31 267 7 267 70 0 23 -3 23 -56 -8 -34 -20 -65 -28 -137 -34 -104 -9 -125 -3 -212 60 -70 51 -84 58 -60 30z"></path></g></g><g id="l4VZhVKkzPHGnIzJRi7ef08" fill="rgb(122,109,95)" style="transform: none;"><g style="transform: none;"><path id="psnne9qyH" d="M3341 3153 c-26 -32 -20 -41 14 -19 14 9 34 15 43 12 16 -5 469 -73 876 -131 169 -24 217 -24 184 2 -11 9 -1034 163 -1080 163 -9 0 -26 -12 -37 -27z"></path><path id="phCRFCkeK" d="M2610 2964 c0 -16 16 -23 83 -41 77 -20 94 -20 203 -11 142 12 182 27 74 28 -68 0 -234 19 -324 36 -31 5 -36 4 -36 -12z"></path><path id="pWdhJlpI7" d="M3078 2903 c-33 -8 -20 -33 17 -33 28 0 35 4 35 20 0 20 -14 23 -52 13z"></path><path id="pBuCTG69q" d="M2947 2883 c-28 -7 -14 -28 21 -31 27 -3 32 0 32 17 0 21 -13 24 -53 14z"></path><path id="p7Nw25ROq" d="M2248 1631 c-55 -44 -106 -201 -68 -209 12 -2 19 13 29 58 7 33 17 60 22 60 5 0 9 5 9 11 0 6 9 18 21 28 14 11 20 25 17 45 l-3 28 -27 -21z"></path></g></g><g id="ldedBJWnGJU09ibfwiDzKs" fill="rgb(154,54,69)" style="transform: none;"><g style="transform: none;"><path id="p8aaVM1l2" d="M2300 2984 c-120 -20 -119 -20 -217 -10 -78 7 -83 6 -83 -12 0 -33 25 -45 80 -38 32 4 78 1 126 -9 l76 -16 46 31 c60 40 85 45 135 31 68 -20 242 -108 287 -146 37 -31 49 -35 98 -35 31 0 82 -7 114 -16 57 -16 60 -16 86 3 14 11 44 45 65 76 38 56 40 57 85 56 85 -1 121 -12 143 -44 l20 -30 -6 35 c-10 47 -24 72 -37 64 -6 -4 -45 -6 -87 -5 -43 1 -102 -5 -136 -14 -33 -8 -105 -18 -160 -22 -99 -7 -100 -7 -47 -16 57 -9 60 -23 8 -33 -42 -7 -77 2 -70 20 4 9 -7 16 -30 20 -48 9 -45 22 7 30 57 10 38 20 -111 57 -144 37 -263 43 -392 23z"></path><path id="p16ii7qSAP" d="M2776 2689 c-18 -112 -101 -192 -234 -223 -63 -15 -63 -14 53 -37 76 -16 116 -15 190 0 72 16 232 8 295 -14 57 -20 77 -20 60 0 -20 25 -4 29 54 15 55 -13 92 -8 81 10 -4 6 -28 21 -54 35 -27 13 -82 49 -122 80 -168 129 -193 145 -242 160 -71 21 -74 20 -81 -26z m97 -30 c23 -12 61 -37 84 -55 23 -19 44 -34 47 -34 3 0 17 -11 32 -25 15 -14 24 -25 20 -25 -3 0 -34 11 -68 25 -70 28 -152 33 -182 10 -37 -28 -44 -16 -20 32 13 25 24 57 24 70 0 28 9 29 63 2z"></path><path id="pGaQnrF9S" d="M2085 2470 c3 -6 47 -10 98 -9 61 0 85 3 72 9 -29 12 -178 12 -170 0z"></path><path id="pSyee92sb" d="M3316 2239 c-23 -18 -35 -20 -84 -15 -206 22 -279 14 -132 -13 36 -7 87 -17 113 -22 83 -16 113 -12 137 18 35 45 11 68 -34 32z"></path><path id="pNPompwRl" d="M2265 1642 c-5 -4 -16 -15 -23 -24 -13 -16 -10 -17 41 -16 44 1 69 -5 124 -32 37 -18 72 -39 76 -47 4 -7 22 -13 38 -13 29 0 30 -2 24 -29 -6 -28 -4 -30 30 -37 20 -3 38 -4 41 -1 9 9 -84 104 -134 137 -44 29 -156 70 -191 70 -9 0 -20 -4 -26 -8z"></path><path id="p1F8KkAH0c" d="M2310 1460 c0 -21 23 -26 68 -14 41 11 26 34 -23 34 -38 0 -45 -3 -45 -20z"></path><path id="pTJHuwyUR" d="M2198 1463 c-20 -3 -28 -10 -28 -24 0 -17 5 -19 38 -14 81 14 92 17 92 31 0 14 -38 17 -102 7z"></path></g></g><g id="l74FV3WicSrJXmLdcMBk847" fill="rgb(109,8,35)" style="transform: none;"><g style="transform: none;"><path id="pZlrvj6ic" d="M2305 2980 c-22 -5 -88 -9 -147 -9 -59 -1 -109 -5 -113 -10 -7 -13 16 -18 100 -26 39 -4 85 -11 104 -16 30 -7 42 -4 90 24 47 26 66 32 116 31 80 -1 156 -20 196 -50 36 -26 63 -30 105 -14 38 15 23 24 -76 50 -94 25 -304 36 -375 20z"></path><path id="puUG6qjR6" d="M3085 2900 c-11 -4 -55 -11 -99 -15 -72 -7 -77 -9 -55 -21 13 -7 40 -14 59 -14 19 -1 29 -4 22 -7 -19 -8 -3 -23 25 -23 17 0 43 16 74 45 46 43 47 45 21 44 -15 0 -36 -4 -47 -9z"></path><path id="p10rBlDXJb" d="M2740 2860 c0 -12 40 -34 47 -26 9 8 -17 36 -33 36 -8 0 -14 -4 -14 -10z"></path><path id="pen8CLlBi" d="M2787 2714 c-4 -4 -7 -17 -7 -29 0 -36 -50 -123 -91 -158 -22 -19 -65 -42 -100 -52 -47 -15 -57 -21 -43 -28 9 -5 42 -7 74 -5 48 3 64 10 94 36 25 22 47 32 69 32 18 0 43 7 55 16 28 19 50 16 162 -24 134 -49 244 -80 259 -74 13 5 13 7 0 14 -77 46 -134 85 -218 150 -55 42 -117 86 -138 97 -45 22 -105 36 -116 25z"></path><path id="phRQqr7d3" d="M2260 1623 c0 -17 9 -22 43 -27 49 -8 130 -45 170 -79 l29 -24 -119 -8 c-179 -11 -207 -16 -211 -40 -3 -21 -1 -21 95 -8 54 7 151 12 216 12 65 -1 120 1 123 4 3 3 -19 30 -49 60 -67 67 -162 116 -240 124 -53 5 -57 4 -57 -14z"></path></g></g><g id="l7P9MjHcnVglYeh5QCmDYGE" fill="rgb(37,33,30)" style="transform: none;"><g style="transform: none;"><path id="p1CiURb8kF" d="M3095 2901 c-11 -5 -48 -12 -82 -16 -85 -10 -72 -29 15 -22 47 4 70 10 85 26 22 22 16 26 -18 12z"></path><path id="pmQAHhd8m" d="M2227 1600 c-35 -41 -57 -97 -57 -145 0 -25 3 -27 30 -22 76 16 262 29 330 23 l75 -6 -65 61 c-36 34 -82 70 -102 80 -31 16 -144 48 -170 49 -3 0 -22 -18 -41 -40z"></path></g></g></svg>